<svg width="181" height="181" viewBox="0 0 181 181" fill="none" xmlns="http://www.w3.org/2000/svg">
<g clip-path="url(#clip0_649_27679)">
<path d="M90.408 180.816C140.339 180.816 180.816 140.339 180.816 90.408C180.816 40.477 140.339 0 90.408 0C40.477 0 0 40.477 0 90.408C0 140.339 40.477 180.816 90.408 180.816Z" fill="#FFECEC"/>
<path opacity="0.15" d="M90.4081 162.111C130.009 162.111 162.111 130.009 162.111 90.4081C162.111 50.8076 130.009 18.7051 90.4081 18.7051C50.8076 18.7051 18.7051 50.8076 18.7051 90.4081C18.7051 130.009 50.8076 162.111 90.4081 162.111Z" fill="#EC2323"/>
<path d="M89.3683 139.249C116.916 139.249 139.248 116.917 139.248 89.3688C139.248 61.8208 116.916 39.4888 89.3683 39.4888C61.8203 39.4888 39.4883 61.8208 39.4883 89.3688C39.4883 116.917 61.8203 139.249 89.3683 139.249Z" fill="#EC2323"/>
<path d="M83.2431 107.929C82.8925 107.928 82.5453 107.859 82.2215 107.725C81.8978 107.59 81.6037 107.393 81.3561 107.145L64.0021 89.7598C63.5322 89.2532 63.2768 88.5844 63.2895 87.8935C63.3022 87.2027 63.582 86.5437 64.0702 86.0548C64.5583 85.5658 65.2169 85.285 65.9077 85.2712C66.5985 85.2574 67.2678 85.5117 67.7751 85.9808L83.2421 101.471L112.059 72.6208C112.566 72.1517 113.236 71.8974 113.926 71.9112C114.617 71.925 115.276 72.2058 115.764 72.6948C116.252 73.1837 116.532 73.8427 116.545 74.5335C116.557 75.2244 116.302 75.8932 115.832 76.3998L85.1301 107.149C84.8825 107.397 84.5884 107.594 84.2646 107.729C83.9408 107.863 83.5937 107.932 83.2431 107.933V107.929Z" fill="#FFF9F9"/>
</g>
<defs>
<clipPath id="clip0_649_27679">
<rect width="180.816" height="180.816" fill="white"/>
</clipPath>
</defs>
</svg>
