<svg width="291" height="65" viewBox="0 0 291 65" fill="none" xmlns="http://www.w3.org/2000/svg">
<path d="M142.412 24.1593C146.397 20.1863 151.292 18.4585 157.03 18.9217C162.754 19.385 167.161 21.9378 170.14 26.4789C171.518 25.1534 172.715 23.757 174.165 22.6513C178.67 19.2227 183.896 18.2725 189.53 19.1517C197.346 20.3723 202.211 26.4282 203.297 33.5491C203.513 34.9693 203.603 36.4164 203.61 37.8501C203.639 45.4647 203.628 53.0794 203.621 60.6906C203.618 62.6213 202.997 63.6019 201.558 64.0651C199.235 64.8124 197.046 63.3787 197.039 61.0558C197.021 53.2687 197.032 45.485 197.028 37.698C197.028 34.9557 196.635 32.2811 195.102 29.8872C192.527 25.8567 188.592 24.298 183.748 24.8085C178.731 25.336 175.334 27.9599 173.769 32.457C173.26 33.9244 173.08 35.5508 173.065 37.1062C172.997 44.9947 173.04 52.8833 173.029 60.7718C173.026 63.3517 171.042 64.8056 168.586 64.0753C167.118 63.6391 166.36 62.6044 166.35 60.9036C166.328 57.989 166.346 55.0743 166.342 52.1563C166.339 46.9085 166.371 41.6608 166.306 36.4131C166.27 33.6911 165.531 31.1146 163.764 28.8931C160.085 24.2777 152.781 23.3039 147.544 26.6919C143.635 29.2245 142.17 32.8627 142.163 37.1536C142.152 44.7682 142.16 52.3828 142.16 59.9941C142.16 60.4066 142.163 60.8191 142.145 61.2282C142.066 63.0676 140.771 64.2646 138.885 64.2511C136.959 64.2376 135.592 62.9831 135.588 61.1302C135.577 48.2678 135.577 35.4088 135.588 22.5465C135.592 20.6022 136.937 19.2971 138.863 19.2734C140.796 19.2497 142.069 20.5008 142.145 22.5126C142.163 23.0165 142.149 23.5203 142.149 24.0241C142.235 24.068 142.325 24.112 142.412 24.1593Z" fill="#272727"/>
<path d="M225.492 26.9624C227.054 25.6201 228.417 24.227 230.008 23.1146C241.877 14.8068 258.901 18.915 265.104 31.5407C269.912 41.3227 267.391 53.0185 258.692 59.5647C250.724 65.5597 241.697 66.4253 232.521 62.5504C223.642 58.8005 218.939 51.8757 218.758 42.7733C218.495 29.5762 218.704 16.3723 218.733 3.17519C218.737 1.22757 220.1 -0.0167362 222.084 0.000170139C224.129 0.0170765 225.467 1.25124 225.485 3.26986C225.521 7.86501 225.499 12.4602 225.499 17.0553C225.492 20.3385 225.492 23.6251 225.492 26.9624ZM260.856 42.7496C260.852 38.3844 259.921 35.1012 258.291 32.6159C255.042 27.6624 250.292 25.0825 244.139 24.7071C237.776 24.3183 232.514 26.4282 228.835 31.2905C224.399 37.1604 224.046 43.5848 227.4 49.972C231.894 58.5334 242.342 60.9409 250.508 57.4074C257.519 54.3744 260.603 48.8258 260.856 42.7496Z" fill="#EC2323"/>
<path d="M45.1932 43.8353C45.9397 49.9622 48.8251 54.6621 54.6679 57.2792C61.4738 60.3292 68.1281 59.6664 74.3893 55.6799C75.0133 55.2809 75.6986 54.8954 76.4163 54.7162C77.7255 54.3916 79.1898 55.1727 79.7561 56.3392C80.3223 57.5126 80.0194 58.6385 78.8111 59.5176C75.1864 62.155 71.082 63.8152 66.5412 64.363C58.3396 65.3537 51.0576 63.4399 45.2437 57.7526C40.573 53.1811 38.8021 47.4972 38.9067 41.2689C38.9824 36.7042 40.0608 32.3525 42.755 28.4843C46.6935 22.8342 52.2298 19.6152 59.4612 19.0066C66.4077 18.4216 72.5319 20.1021 77.4298 24.863C82.1293 29.4311 83.8858 35.0879 83.7415 41.3332C83.7126 42.5741 82.8578 43.46 81.5594 43.6865C80.9535 43.7913 80.326 43.8252 79.7092 43.8252C68.7052 43.8319 57.7012 43.8319 46.6972 43.8319C46.2427 43.8353 45.7811 43.8353 45.1932 43.8353ZM77.538 38.6011C77.015 31.3347 71.3886 23.8452 60.3124 24.5046C52.6915 24.9576 45.3627 31.754 45.5069 38.6011C56.1575 38.6011 66.8081 38.6011 77.538 38.6011Z" fill="#272727"/>
<path d="M15.444 20.9132C18.6251 20.9132 21.6511 20.9064 24.6771 20.92C25.1857 20.9233 25.705 20.9369 26.1955 21.0451C27.5769 21.346 28.4533 22.4415 28.4173 23.7399C28.3812 25.0147 27.5228 25.9986 26.1486 26.2759C25.6906 26.3706 25.2073 26.3807 24.7348 26.3807C21.7052 26.3909 18.672 26.3841 15.5774 26.3841C15.5269 26.658 15.4476 26.8811 15.4476 27.1009C15.462 34.5431 15.4115 41.9853 15.5269 49.4275C15.5955 53.7589 19.2959 58.0666 24.5797 57.9956C25.5283 57.9821 26.4841 57.972 27.429 58.0531C29.1169 58.1985 30.1809 59.2839 30.3108 60.89C30.4334 62.4116 29.4235 63.7235 27.8005 64.0515C25.4994 64.5147 23.2128 64.2239 20.9586 63.7539C14.4521 62.398 9.55065 57.0692 8.988 50.6177C8.76078 48.0276 8.80046 45.4105 8.78603 42.8069C8.75718 37.3901 8.77882 31.9733 8.77882 26.3807C7.65353 26.3807 6.57513 26.3807 5.49312 26.3807C4.61669 26.3807 3.73666 26.4145 2.86024 26.3638C1.13984 26.2658 0.0145569 25.1871 0.000130114 23.6892C-0.0142967 22.1609 1.1723 20.9876 2.90352 20.9267C4.47243 20.8726 6.04855 20.9098 7.62107 20.9098C7.94567 20.9098 8.27388 20.9098 8.77521 20.9098C8.77521 20.4905 8.77521 20.1321 8.77521 19.7703C8.77521 15.963 8.76078 12.1557 8.78242 8.34839C8.79324 6.14718 10.1566 4.91301 12.3927 5.02121C13.8426 5.09222 15.0364 6.03898 15.2925 7.38472C15.4007 7.95278 15.4332 8.5445 15.4368 9.1227C15.4476 13.0044 15.444 16.876 15.444 20.9132Z" fill="#272727"/>
<path d="M101.801 25.8872C103.413 24.4772 104.664 23.118 106.183 22.1036C111.124 18.7933 116.584 17.9615 122.409 19.6014C124.396 20.1627 125.208 21.5119 124.764 23.0909C124.382 24.4502 123.051 25.0216 120.93 24.8458C117.648 24.5719 114.359 24.3826 111.16 25.3766C106.298 26.8847 102.947 29.7419 102.057 34.6751C101.905 35.5137 101.93 36.3827 101.93 37.2382C101.923 44.917 101.927 52.5993 101.923 60.2782C101.923 60.6535 101.934 61.0356 101.891 61.4075C101.667 63.3247 100.448 64.3289 98.4643 64.2478C96.5131 64.17 95.4167 63.1421 95.4094 61.2012C95.3806 53.2823 95.3914 45.3634 95.3878 37.441C95.3878 32.4367 95.3698 27.4291 95.4022 22.4248C95.4167 19.9937 97.2597 18.7696 99.7591 19.4358C100.942 19.7502 101.696 20.4806 101.782 21.6031C101.88 22.9658 101.801 24.3352 101.801 25.8872Z" fill="#272727"/>
<path d="M282.17 41.7586C282.17 35.412 282.159 29.0687 282.174 22.7221C282.181 20.2673 284.096 18.8032 286.465 19.4051C287.674 19.7127 288.409 20.4769 288.662 21.5995C288.799 22.198 288.821 22.8269 288.821 23.4389C288.828 35.6825 288.828 47.9295 288.824 60.1731C288.824 60.5822 288.81 60.9981 288.763 61.4038C288.543 63.1892 287.162 64.3388 285.387 64.2306C283.468 64.1122 282.181 62.895 282.177 61.0995C282.159 54.6582 282.17 48.2067 282.17 41.7586Z" fill="#272727"/>
<path d="M280.814 6.11753C280.825 3.61538 282.91 1.72187 285.583 1.77935C288.205 1.83683 290.239 3.78445 290.206 6.1953C290.174 8.65686 288.075 10.5808 285.427 10.5774C282.737 10.574 280.804 8.70758 280.814 6.11753Z" fill="#272727"/>
<path d="M237.725 41.7519C237.736 38.9387 240.08 36.8085 243.088 36.8761C246.034 36.9437 248.325 39.128 248.285 41.8398C248.245 44.6091 245.887 46.7697 242.911 46.7663C239.885 46.7629 237.71 44.6632 237.725 41.7519Z" fill="#A6A6A6"/>
</svg>
