<svg width="90" height="21" viewBox="0 0 90 21" fill="none" xmlns="http://www.w3.org/2000/svg">
<path d="M44.1656 7.51609C45.4016 6.28012 46.9194 5.74261 48.6989 5.88672C50.474 6.03083 51.8408 6.825 52.7647 8.23768C53.1919 7.82534 53.5633 7.39092 54.0129 7.04695C55.4099 5.98034 57.0307 5.68476 58.7778 5.95825C61.2016 6.33798 62.7104 8.2219 63.0471 10.4372C63.1142 10.879 63.1422 11.3292 63.1444 11.7752C63.1534 14.144 63.15 16.5129 63.1478 18.8807C63.1466 19.4813 62.9543 19.7863 62.508 19.9305C61.7877 20.1629 61.1087 19.7169 61.1065 18.9943C61.1009 16.5718 61.1043 14.1503 61.1031 11.7278C61.1031 10.8748 60.9812 10.0427 60.5058 9.29798C59.7072 8.04414 58.4869 7.55922 56.9848 7.71805C55.429 7.88215 54.3753 8.69841 53.8899 10.0974C53.7322 10.5539 53.6763 11.0599 53.6718 11.5438C53.6505 13.9978 53.664 16.4519 53.6606 18.9059C53.6595 19.7085 53.0443 20.1608 52.2826 19.9336C51.8274 19.7979 51.5925 19.476 51.5891 18.9469C51.5824 18.0402 51.588 17.1335 51.5869 16.2257C51.5858 14.5932 51.5958 12.9607 51.5757 11.3281C51.5645 10.4814 51.3352 9.67982 50.7872 8.98873C49.6463 7.5529 47.3813 7.24996 45.7572 8.30395C44.5448 9.09181 44.0907 10.2236 44.0884 11.5585C44.0851 13.9273 44.0873 16.2962 44.0873 18.664C44.0873 18.7923 44.0884 18.9206 44.0828 19.0479C44.0582 19.6201 43.6567 19.9925 43.0717 19.9883C42.4744 19.9841 42.0505 19.5938 42.0494 19.0174C42.046 15.016 42.046 11.0157 42.0494 7.01434C42.0505 6.40951 42.4677 6.00348 43.065 5.99611C43.6645 5.98875 44.0593 6.37795 44.0828 7.00382C44.0884 7.16055 44.084 7.31728 44.084 7.47401C44.1108 7.48769 44.1388 7.50136 44.1656 7.51609Z" fill="white"/>
<path d="M69.9297 8.38779C70.4141 7.97019 70.8369 7.53682 71.3301 7.19075C75.0111 4.60626 80.2905 5.8843 82.2143 9.81205C83.7053 12.8552 82.9234 16.4936 80.2256 18.5301C77.7548 20.3951 74.9552 20.6644 72.1097 19.4589C69.356 18.2924 67.8974 16.1381 67.8415 13.3064C67.7598 9.2009 67.8247 5.09329 67.8337 0.987774C67.8348 0.381888 68.2576 -0.0052065 68.8728 5.29287e-05C69.507 0.00531236 69.9219 0.389251 69.9275 1.01723C69.9387 2.44674 69.932 3.87625 69.932 5.30577C69.9298 6.32715 69.9297 7.34958 69.9297 8.38779ZM80.8967 13.299C80.8956 11.9411 80.607 10.9197 80.1014 10.1465C79.0937 8.60553 77.6206 7.80294 75.7124 7.68618C73.7394 7.56522 72.1075 8.22159 70.9666 9.73421C69.5908 11.5603 69.4812 13.5589 70.5214 15.5459C71.9151 18.2093 75.1554 18.9582 77.6877 17.859C79.8621 16.9154 80.8184 15.1893 80.8967 13.299Z" fill="#E87808"/>
<path d="M14.0134 13.6366C14.2449 15.5427 15.1397 17.0048 16.9517 17.8189C19.0623 18.7677 21.126 18.5616 23.0677 17.3214C23.2612 17.1973 23.4737 17.0774 23.6963 17.0216C24.1023 16.9206 24.5564 17.1636 24.732 17.5265C24.9076 17.8915 24.8137 18.2418 24.439 18.5153C23.3149 19.3358 22.042 19.8522 20.6338 20.0226C18.0904 20.3308 15.8321 19.7355 14.0291 17.9662C12.5806 16.5441 12.0314 14.7758 12.0638 12.8383C12.0873 11.4182 12.4218 10.0644 13.2573 8.86108C14.4787 7.10338 16.1956 6.10198 18.4382 5.91264C20.5925 5.73067 22.4917 6.25345 24.0106 7.73451C25.468 9.15561 26.0127 10.9154 25.968 12.8582C25.959 13.2443 25.694 13.5199 25.2913 13.5904C25.1034 13.623 24.9088 13.6335 24.7175 13.6335C21.3049 13.6356 17.8924 13.6356 14.4798 13.6356C14.3389 13.6366 14.1957 13.6366 14.0134 13.6366ZM24.0442 12.0083C23.882 9.74782 22.1371 7.41789 18.7022 7.62301C16.3388 7.76396 14.066 9.87825 14.1107 12.0083C17.4137 12.0083 20.7166 12.0083 24.0442 12.0083Z" fill="white"/>
<path d="M4.78948 6.50548C5.776 6.50548 6.71443 6.50337 7.65285 6.50758C7.81056 6.50863 7.97163 6.51284 8.12374 6.5465C8.55213 6.64012 8.82393 6.98093 8.81274 7.38485C8.80156 7.78141 8.53535 8.08751 8.1092 8.17377C7.96715 8.20322 7.81727 8.20638 7.67075 8.20638C6.7312 8.20953 5.79054 8.20743 4.83086 8.20743C4.81521 8.29263 4.7906 8.36206 4.7906 8.43043C4.79507 10.7456 4.77941 13.0608 4.81521 15.376C4.83646 16.7235 5.98404 18.0636 7.62265 18.0415C7.91682 18.0373 8.21322 18.0341 8.50627 18.0594C9.02973 18.1046 9.35969 18.4423 9.39996 18.9419C9.43799 19.4153 9.12481 19.8234 8.62148 19.9254C7.90787 20.0695 7.19874 19.9791 6.49968 19.8329C4.48189 19.4111 2.96184 17.7533 2.78736 15.7463C2.71689 14.9406 2.72919 14.1264 2.72472 13.3164C2.71577 11.6313 2.72248 9.9462 2.72248 8.20638C2.37351 8.20638 2.03908 8.20638 1.70352 8.20638C1.43173 8.20638 1.15881 8.2169 0.887015 8.20112C0.353488 8.17061 0.00451437 7.83506 4.03508e-05 7.36907C-0.00443367 6.89362 0.363554 6.52862 0.900437 6.50968C1.38699 6.49285 1.87577 6.50443 2.36344 6.50443C2.46411 6.50443 2.56589 6.50443 2.72136 6.50443C2.72136 6.37399 2.72136 6.26249 2.72136 6.14994C2.72136 4.96552 2.71689 3.78109 2.7236 2.59667C2.72696 1.91189 3.14975 1.52795 3.84323 1.56161C4.29286 1.5837 4.66309 1.87823 4.7425 2.29688C4.77606 2.4736 4.78612 2.65768 4.78724 2.83755C4.7906 4.04512 4.78948 5.24953 4.78948 6.50548Z" fill="white"/>
<path d="M31.5684 8.05397C32.0683 7.61533 32.4565 7.19247 32.9274 6.87691C34.4597 5.84711 36.1531 5.58835 37.9595 6.09851C38.5758 6.27312 38.8275 6.69283 38.6899 7.18406C38.5713 7.60692 38.1586 7.78468 37.5009 7.72999C36.4831 7.64478 35.463 7.58588 34.4709 7.89513C32.9632 8.36427 31.9241 9.25312 31.6478 10.7878C31.6008 11.0487 31.6086 11.319 31.6086 11.5851C31.6064 13.974 31.6075 16.3639 31.6064 18.7527C31.6064 18.8695 31.6098 18.9883 31.5963 19.104C31.527 19.7004 31.1489 20.0129 30.5338 19.9876C29.9286 19.9634 29.5886 19.6436 29.5864 19.0399C29.5774 16.5763 29.5808 14.1128 29.5797 11.6483C29.5797 10.0915 29.5741 8.53363 29.5841 6.97684C29.5886 6.22053 30.1602 5.83975 30.9353 6.04697C31.3022 6.14479 31.5359 6.372 31.5628 6.72123C31.593 7.14514 31.5684 7.57115 31.5684 8.05397Z" fill="white"/>
<path d="M87.5051 12.9902C87.5051 11.0158 87.5018 9.04244 87.5062 7.06805C87.5085 6.30438 88.1024 5.84891 88.8373 6.03615C89.212 6.13187 89.4401 6.3696 89.5184 6.71882C89.5609 6.90501 89.5676 7.10066 89.5676 7.29105C89.5699 11.0999 89.5699 14.9099 89.5688 18.7187C89.5688 18.846 89.5643 18.9754 89.5497 19.1016C89.4815 19.657 89.0531 20.0147 88.5028 19.981C87.9078 19.9442 87.5085 19.5655 87.5074 19.007C87.5018 17.0031 87.5051 14.9961 87.5051 12.9902Z" fill="white"/>
<path d="M87.0899 1.9027C87.0932 1.12431 87.7397 0.535249 88.5685 0.553131C89.3817 0.571013 90.0125 1.1769 90.0025 1.92689C89.9924 2.69267 89.3414 3.29119 88.5204 3.29014C87.686 3.28909 87.0865 2.70845 87.0899 1.9027Z" fill="white"/>
<path d="M73.7227 12.988C73.726 12.1128 74.4531 11.4502 75.3859 11.4712C76.2997 11.4922 77.01 12.1717 76.9977 13.0154C76.9854 13.8769 76.2539 14.549 75.3311 14.548C74.3927 14.5469 73.7182 13.8937 73.7227 12.988Z" fill="#A6A6A6"/>
</svg>
