<svg width="250" height="57" viewBox="0 0 250 57" fill="none" xmlns="http://www.w3.org/2000/svg">
<path d="M122.682 20.8775C126.116 17.4442 130.332 15.9511 135.275 16.3514C140.206 16.7517 144.003 18.9578 146.569 22.882C147.756 21.7366 148.788 20.5298 150.037 19.5743C153.917 16.6114 158.419 15.7904 163.273 16.5501C170.005 17.6049 174.197 22.8381 175.132 28.9918C175.318 30.219 175.396 31.4696 175.402 32.7085C175.427 39.2888 175.418 45.8691 175.412 52.4464C175.409 54.1149 174.874 54.9622 173.634 55.3625C171.634 56.0083 169.748 54.7694 169.741 52.762C169.726 46.0327 169.735 39.3063 169.732 32.5771C169.732 30.2073 169.393 27.8961 168.073 25.8273C165.854 22.3443 162.465 20.9973 158.292 21.4385C153.97 21.8944 151.043 24.1618 149.695 28.048C149.257 29.3161 149.101 30.7216 149.089 32.0657C149.03 38.8827 149.067 45.6996 149.058 52.5165C149.055 54.746 147.346 56.0025 145.23 55.3713C143.965 54.9944 143.313 54.1003 143.304 52.6305C143.285 50.1118 143.301 47.593 143.297 45.0714C143.294 40.5365 143.322 36.0016 143.266 31.4667C143.235 29.1145 142.598 26.888 141.076 24.9683C137.907 20.9798 131.615 20.1383 127.104 23.0661C123.736 25.2546 122.474 28.3986 122.468 32.1066C122.459 38.6869 122.465 45.2672 122.465 51.8445C122.465 52.201 122.468 52.5575 122.452 52.911C122.384 54.5006 121.269 55.5349 119.644 55.5233C117.985 55.5116 116.807 54.4275 116.804 52.8263C116.795 41.7111 116.795 30.5989 116.804 19.4837C116.807 17.8036 117.966 16.6757 119.625 16.6553C121.29 16.6348 122.387 17.7159 122.452 19.4545C122.468 19.8899 122.456 20.3253 122.456 20.7606C122.53 20.7986 122.608 20.8366 122.682 20.8775Z" fill="white"/>
<path d="M194.25 23.2999C195.595 22.1399 196.77 20.936 198.14 19.9747C208.365 12.7954 223.03 16.3456 228.374 27.2562C232.516 35.7095 230.344 45.8166 222.85 51.4735C215.987 56.6541 208.21 57.4021 200.305 54.0536C192.656 50.8131 188.604 44.8289 188.449 36.963C188.222 25.5586 188.402 14.1483 188.427 2.74387C188.43 1.06082 189.605 -0.0144628 191.314 0.000147027C193.075 0.0147569 194.228 1.08127 194.244 2.82569C194.275 6.79664 194.256 10.7676 194.256 14.7385C194.25 17.5758 194.25 20.4159 194.25 23.2999ZM224.714 36.9426C224.711 33.1703 223.909 30.3331 222.505 28.1854C219.706 23.9047 215.614 21.6753 210.313 21.3509C204.832 21.0149 200.299 22.8382 197.13 27.04C193.308 32.1125 193.004 37.6643 195.893 43.1839C199.765 50.5823 208.766 52.6627 215.8 49.6093C221.84 46.9883 224.497 42.1933 224.714 36.9426Z" fill="#EC2323"/>
<path d="M38.931 37.8805C39.5742 43.1751 42.0598 47.2367 47.0932 49.4983C52.9561 52.1339 58.6886 51.5612 64.0824 48.1162C64.6199 47.7714 65.2102 47.4383 65.8285 47.2834C66.9564 47.0029 68.2178 47.6779 68.7056 48.686C69.1934 49.6999 68.9324 50.6729 67.8916 51.4326C64.769 53.7118 61.2332 55.1464 57.3215 55.6198C50.2561 56.4759 43.983 54.8221 38.9745 49.9073C34.9509 45.9569 33.4254 41.045 33.5155 35.6628C33.5807 31.7181 34.5097 27.9576 36.8307 24.6148C40.2235 19.7322 44.9928 16.9505 51.2224 16.4246C57.2065 15.9191 62.4822 17.3713 66.7016 21.4854C70.75 25.433 72.2632 30.3214 72.1389 35.7183C72.114 36.7906 71.3776 37.5562 70.2591 37.752C69.7371 37.8426 69.1965 37.8718 68.6652 37.8718C59.1857 37.8776 49.7062 37.8776 40.2266 37.8776C39.8352 37.8805 39.4375 37.8805 38.931 37.8805ZM66.7948 33.3573C66.3443 27.078 61.4973 20.6059 51.9557 21.1757C45.3905 21.5672 39.077 27.4404 39.2013 33.3573C48.3764 33.3573 57.5514 33.3573 66.7948 33.3573Z" fill="white"/>
<path d="M13.3044 18.0724C16.0448 18.0724 18.6516 18.0666 21.2584 18.0782C21.6965 18.0812 22.1439 18.0929 22.5664 18.1864C23.7564 18.4464 24.5114 19.3931 24.4803 20.5152C24.4493 21.6167 23.7098 22.467 22.526 22.7066C22.1314 22.7885 21.7151 22.7972 21.3081 22.7972C18.6982 22.806 16.0852 22.8001 13.4193 22.8001C13.3758 23.0368 13.3075 23.2297 13.3075 23.4196C13.3199 29.8508 13.2764 36.2821 13.3758 42.7133C13.4349 46.4564 16.6227 50.179 21.1745 50.1176C21.9916 50.1059 22.815 50.0971 23.629 50.1673C25.0831 50.2929 25.9997 51.2309 26.1115 52.6188C26.2172 53.9337 25.3472 55.0674 23.949 55.3508C21.9668 55.7511 19.9969 55.4999 18.055 55.0937C12.45 53.922 8.22751 49.317 7.74281 43.7419C7.54707 41.5036 7.58125 39.242 7.56882 36.9921C7.54396 32.3111 7.5626 27.6302 7.5626 22.7972C6.59321 22.7972 5.66421 22.7972 4.73211 22.7972C3.9771 22.7972 3.21899 22.8264 2.46398 22.7826C0.981931 22.6979 0.0125402 21.7658 0.000112088 20.4713C-0.012316 19.1506 1.00989 18.1367 2.50126 18.0841C3.85282 18.0373 5.21059 18.0695 6.56525 18.0695C6.84488 18.0695 7.12762 18.0695 7.5595 18.0695C7.5595 17.7072 7.5595 17.3974 7.5595 17.0848C7.5595 13.7946 7.54707 10.5045 7.56571 7.21438C7.57503 5.31218 8.74949 4.24567 10.6758 4.33917C11.9249 4.40053 12.9533 5.21868 13.1739 6.38162C13.2671 6.87251 13.2951 7.38386 13.2982 7.88351C13.3075 11.2379 13.3044 14.5836 13.3044 18.0724Z" fill="white"/>
<path d="M87.6927 22.371C89.0815 21.1526 90.1596 19.9779 91.4677 19.1014C95.7243 16.2408 100.428 15.5219 105.446 16.9391C107.158 17.4241 107.857 18.59 107.475 19.9546C107.146 21.1292 105.999 21.623 104.172 21.4711C101.345 21.2344 98.5113 21.0708 95.7554 21.9298C91.5671 23.233 88.6807 25.7021 87.9132 29.9652C87.7828 30.6899 87.8045 31.4408 87.8045 32.1801C87.7983 38.8159 87.8014 45.4546 87.7983 52.0903C87.7983 52.4147 87.8076 52.7449 87.7703 53.0663C87.5777 54.723 86.5275 55.5909 84.8187 55.5207C83.1378 55.4535 82.1932 54.5652 82.187 52.888C82.1621 46.0448 82.1715 39.2016 82.1684 32.3554C82.1684 28.0309 82.1528 23.7035 82.1808 19.3789C82.1932 17.2781 83.7809 16.2203 85.9341 16.7959C86.9532 17.0677 87.6026 17.6988 87.6771 18.6689C87.761 19.8465 87.6927 21.0299 87.6927 22.371Z" fill="white"/>
<path d="M243.078 36.0864C243.078 30.6019 243.068 25.1203 243.081 19.6357C243.087 17.5144 244.737 16.2492 246.778 16.7693C247.819 17.0352 248.453 17.6955 248.67 18.6656C248.788 19.1828 248.807 19.7263 248.807 20.2552C248.813 30.8356 248.813 41.419 248.81 51.9994C248.81 52.353 248.798 52.7124 248.757 53.063C248.568 54.6058 247.378 55.5993 245.849 55.5058C244.196 55.4035 243.087 54.3516 243.084 52.8C243.068 47.2337 243.078 41.6586 243.078 36.0864Z" fill="white"/>
<path d="M241.91 5.2866C241.92 3.12435 243.715 1.48805 246.018 1.53772C248.276 1.5874 250.029 3.27045 250.001 5.35381C249.973 7.481 248.165 9.1436 245.884 9.14068C243.566 9.13775 241.901 7.52483 241.91 5.2866Z" fill="white"/>
<path d="M204.789 36.0804C204.798 33.6494 206.818 31.8085 209.409 31.867C211.948 31.9254 213.921 33.813 213.886 36.1564C213.852 38.5495 211.82 40.4166 209.257 40.4137C206.65 40.4108 204.777 38.5962 204.789 36.0804Z" fill="#A6A6A6"/>
</svg>
