<svg width="917" height="496" viewBox="0 0 917 496" fill="none" xmlns="http://www.w3.org/2000/svg">
<path d="M60.361 491.688C60.361 491.688 -47.6776 374.543 42.0903 247.715C121.74 135.184 214.602 142.876 282.732 188.542C311.749 207.993 395.413 190.938 466.618 76.4344C563.724 -79.7172 900.336 14.9892 838.96 255.232C809.26 371.493 929.353 375.719 868.16 491.933L60.361 491.688Z" fill="#FAEBEB"/>
<path d="M540.036 431.145C540.036 431.145 519.457 407.14 538.768 391.89C538.768 391.89 552.871 383.35 564.373 384.044C564.373 384.044 548.079 411.37 553.35 414.087C558.62 416.805 569.312 382.331 569.312 382.331C569.312 382.331 601.408 379.219 611.734 384.183C611.734 384.183 584.295 406.636 590.074 407.973C595.852 409.309 625.49 387.269 625.49 387.269C625.49 387.269 655.361 392.354 653.769 410.577C652.176 428.8 641.883 434.425 637.361 433.943C632.835 433.457 606.372 423.358 605.798 427.065C605.221 430.773 621.15 442.885 632.306 443.451C632.306 443.451 611.244 466.678 597.247 459.976C583.25 453.273 582.056 442.647 573.33 438.662C564.604 434.677 557.156 434.688 560.757 438.75C564.359 442.812 580.149 446.764 585.139 455.589C590.128 464.414 594.607 470.367 580.124 468.19C565.641 466.013 542.103 455.413 541.069 443.283C540.036 431.145 540.036 431.145 540.036 431.145Z" fill="#01AC79"/>
<path d="M639.087 411.066C639.087 411.066 557.954 407.94 540.034 431.145C540.034 431.145 536.07 443.013 523.878 453.821L521.979 459C521.979 459 536.038 444.178 541.067 443.279C541.067 443.279 533.2 414.533 639.087 411.066Z" fill="#01AC79"/>
<path d="M523.879 453.821C523.879 453.821 506.463 466.7 505.254 489.712L508.413 489.993C508.413 489.993 513.976 466.2 524.029 456.893C534.084 447.59 523.879 453.821 523.879 453.821Z" fill="#01AC79"/>
<path d="M328.023 235.041C328.023 235.041 359.502 217.413 344.811 193.491C344.811 193.491 333.06 178.8 320.469 175.024C320.469 175.024 327.183 210.696 320.469 211.536C313.756 212.376 315.852 171.247 315.852 171.247C315.852 171.247 282.697 155.299 269.686 156.559C269.686 156.559 290.251 191.395 283.537 190.555C276.824 189.715 253.739 154.463 253.739 154.463C253.739 154.463 219.743 148.169 214.286 168.314C208.829 188.458 217.643 198.532 222.68 199.792C227.717 201.052 260.032 200.632 259.192 204.829C258.352 209.026 236.527 215.74 224.357 211.963C224.357 211.963 237.788 245.118 255.415 243.442C273.043 241.761 278.497 230.851 289.411 230.011C300.321 229.171 308.299 232.111 302.842 235.048C297.385 237.985 278.92 236.012 270.106 243.504C261.293 250.995 254.159 255.612 270.527 258.969C286.894 262.326 316.273 260.229 322.15 247.639C328.023 235.041 328.023 235.041 328.023 235.041Z" fill="#33D9A7"/>
<path d="M229.814 174.604C229.814 174.604 317.95 203.142 328.024 235.041C328.024 235.041 327.604 249.312 336.418 265.679V271.976C336.418 271.976 327.184 250.572 322.147 247.635C322.147 247.631 341.875 219.933 229.814 174.604Z" fill="#01AC79"/>
<path d="M336.418 265.679C336.418 265.679 350.009 286.32 342.262 311.444L338.766 310.505C338.766 310.505 342.16 282.832 335.048 268.912C327.936 254.995 336.418 265.679 336.418 265.679Z" fill="#01AC79"/>
<path d="M520.169 375.672C520.169 375.672 477.02 351.51 497.157 318.716C497.157 318.716 513.265 298.579 530.524 293.403C530.524 293.403 521.32 342.305 530.524 343.456C539.729 344.606 536.854 288.224 536.854 288.224C536.854 288.224 582.305 266.362 600.141 268.086C600.141 268.086 571.949 315.838 581.154 314.687C590.359 313.537 622.002 265.208 622.002 265.208C622.002 265.208 668.602 256.577 676.083 284.195C683.564 311.809 671.481 325.62 664.577 327.344C657.674 329.071 613.374 328.494 614.525 334.247C615.675 340 645.591 349.205 662.276 344.029C662.276 344.029 643.867 389.479 619.701 387.178C595.538 384.877 588.057 369.919 573.1 368.769C558.142 367.618 547.21 371.647 554.69 375.672C562.171 379.701 587.484 376.991 599.567 387.262C611.65 397.533 621.428 403.863 598.99 408.466C576.552 413.068 536.281 410.19 528.223 392.931C520.169 375.672 520.169 375.672 520.169 375.672Z" fill="#33D9A7"/>
<path d="M654.794 292.826C654.794 292.826 533.975 331.95 520.168 375.672C520.168 375.672 520.745 395.232 508.662 417.671V426.302C508.662 426.302 521.319 396.96 528.222 392.935C528.222 392.931 501.181 354.961 654.794 292.826Z" fill="#01AC79"/>
<path d="M508.658 417.671C508.658 417.671 490.026 445.964 500.648 480.405L505.44 479.116C505.44 479.116 500.787 441.179 510.536 422.101C520.285 403.027 508.658 417.671 508.658 417.671Z" fill="#01AC79"/>
<path d="M114.472 257.209C114.472 257.209 106.955 263.458 115.235 271.396C115.235 271.396 108.127 273.876 105.822 272.192C105.822 272.192 106.305 273.047 106.728 273.423C106.728 273.423 99.4522 274.084 96.3182 271.973C93.1842 269.862 93.0819 232.451 113.544 235.519C113.544 235.519 130.628 233.287 130.113 253.22C129.598 273.156 136.074 272.802 136.074 272.802C136.074 272.802 134.321 273.788 133.451 273.836C133.451 273.836 132.155 273.419 131.866 272.733C131.866 272.733 132.176 273.821 132.523 274.157C132.523 274.157 125.569 275.202 121.934 272.754C118.3 270.304 113.698 261.358 114.472 257.209Z" fill="#4D4D4D"/>
<path d="M113.371 267.4C113.371 267.4 107.53 261.836 105.112 256.434C103.385 252.577 95.0528 236.962 110.624 235.355C110.624 235.355 121.743 234.832 126.542 236.575C130.36 237.963 136.262 241.542 134.261 255.916L133.998 260.668L113.371 267.4Z" fill="#4D4D4D"/>
<path d="M95.5902 378.324C94.9217 361.927 93.4862 347.663 91.7658 337.713C89.0227 321.857 86.5535 312.733 86.5279 312.638C86.1663 311.243 80.9466 305.599 69.3457 305.775C57.7449 305.95 58.8443 313.35 58.8443 313.35C58.8443 313.599 58.8772 313.832 58.9283 314.008C59.0416 314.388 69.6891 353.007 69.2289 402.866C69.2216 403.567 69.1449 404.776 69.1923 405.58C69.1923 405.584 96.0796 406.274 96.0869 405.58C97.022 401.222 96.5654 389.147 95.5902 378.324Z" fill="#F3B7B7"/>
<path d="M98.972 402.618C98.9647 403.312 98.5958 403.867 98.1501 403.867H98.1392C97.6936 403.856 97.3356 403.301 97.332 402.618H74.2909C74.2836 403.312 73.9147 403.867 73.4691 403.867H73.4581C73.0015 403.856 72.6399 403.282 72.6472 402.577C72.7824 388.303 71.9678 374.978 70.7369 363.213C67.6723 333.878 62.0106 314.271 61.9303 314C61.8792 313.825 61.8463 313.591 61.8463 313.343C61.8463 313.343 60.7468 305.943 72.3477 305.767C83.9522 305.592 89.1719 311.235 89.5335 312.631C89.5554 312.704 90.9507 317.868 92.8099 327.157C93.4272 330.233 94.0884 333.761 94.7714 337.706C96.4918 347.652 97.9273 361.92 98.5958 378.316C99.5674 389.147 99.9071 398.264 98.972 402.618Z" fill="#FCD2D2"/>
<path d="M70.943 403.87H161.281C161.281 403.87 159.177 395.356 106.86 396.624C69.8362 397.522 70.943 403.87 70.943 403.87Z" fill="#F8C5C5"/>
<path d="M63.5879 492.795C74.0637 439.769 71.3681 407.231 71.3571 406.822C71.3316 406.004 72.8365 405.266 73.6437 405.236C74.4619 405.222 78.078 404.995 78.4981 405.693C79.046 406.61 81.1536 446.698 65.5457 492.795H63.5879Z" fill="#FAD1D1"/>
<path d="M147.935 492.795C137.46 439.769 140.155 407.231 140.166 406.822C140.192 406.004 138.687 405.266 137.88 405.236C137.061 405.222 133.445 404.995 133.025 405.693C132.477 406.61 130.366 446.698 145.978 492.795H147.935Z" fill="#FAD1D1"/>
<path d="M164.65 492.795C154.174 439.769 156.87 407.231 156.881 406.822C156.907 406.004 155.402 405.266 154.595 405.236C153.776 405.222 150.16 404.995 149.74 405.693C149.192 406.61 147.081 446.698 162.692 492.795H164.65Z" fill="#FAD1D1"/>
<path d="M80.416 492.795C90.8919 439.769 88.1962 407.231 88.1852 406.822C88.1597 406.004 89.6646 405.266 90.4718 405.236C91.29 405.222 94.9062 404.995 95.3262 405.693C95.8741 406.61 97.9854 446.698 82.3739 492.795H80.416Z" fill="#FAD1D1"/>
<path d="M161.334 406.588H70.9964C69.9773 406.588 69.1445 405.755 69.1445 404.736V403.52C69.1445 402.501 69.9773 401.668 70.9964 401.668H161.334C162.353 401.668 163.186 402.501 163.186 403.52V404.736C163.183 405.755 162.35 406.588 161.334 406.588Z" fill="#F3B7B7"/>
<path d="M209.139 495.088C205.841 495.085 199.036 495.943 196.048 492.305C193.057 488.667 186.595 486.877 185.773 485.716C185.328 485.087 185.919 482.3 186.558 479.857C188.169 477.64 185.572 474.619 185.572 474.619L194.222 475.2C194.222 475.2 198.342 480.668 201.377 485.069C202.528 486.738 206.005 489.244 208.095 489.993C210.798 490.961 213.49 491.556 214.476 492.521C216.229 494.23 212.438 495.092 209.139 495.088Z" fill="#FFB27D"/>
<path d="M209.14 495.089C205.842 495.085 199.037 495.943 196.049 492.305C193.057 488.667 186.596 486.877 185.774 485.716C185.328 485.088 185.306 482.556 186.559 479.857V479.853C186.559 479.853 192.005 482.081 195.085 486.355C198.164 490.629 206.349 492.488 208.077 490.022C208.084 490.015 208.092 490.004 208.099 489.993C210.802 490.961 213.494 491.556 214.48 492.521C216.23 494.23 212.438 495.092 209.14 495.089Z" fill="#932722"/>
<path d="M185.77 485.716L189.09 492.795L191.296 493.036L190.967 486.731L185.77 485.716Z" fill="#932722"/>
<path d="M120.991 360.305C120.991 360.305 169.111 375.208 179.467 383.814C189.822 392.419 197.036 477.79 197.036 477.79C197.036 477.79 195.801 478.538 193.27 478.48C190.914 478.425 185.983 476.391 185.983 476.391C185.983 476.391 164.834 435.842 164.231 426.247C163.625 416.651 165.17 408.363 161.024 407.589C156.879 406.818 103.992 406.537 97.9427 391.641C91.8939 376.742 100.2 363.874 100.2 363.874L120.991 360.305Z" fill="#292D31"/>
<path d="M197.975 495.088C194.677 495.085 187.872 495.943 184.884 492.305C181.893 488.667 175.431 486.877 174.609 485.716C174.163 485.087 174.755 482.3 175.394 479.857C177.005 477.64 174.408 474.619 174.408 474.619L183.058 475.2C183.058 475.2 187.178 480.668 190.213 485.069C191.364 486.738 194.841 489.244 196.934 489.993C199.637 490.961 202.329 491.556 203.315 492.521C205.069 494.23 201.277 495.092 197.975 495.088Z" fill="#FFB27D"/>
<path d="M197.976 495.089C194.678 495.085 187.873 495.943 184.885 492.305C181.893 488.667 175.432 486.877 174.61 485.716C174.164 485.088 174.142 482.556 175.395 479.857V479.853C175.395 479.853 180.841 482.081 183.92 486.355C186.996 490.629 195.185 492.488 196.913 490.022C196.92 490.015 196.928 490.004 196.935 489.993C199.638 490.961 202.33 491.556 203.316 492.521C205.069 494.23 201.278 495.092 197.976 495.089Z" fill="#B5453C"/>
<path d="M174.609 485.716L177.926 492.795L180.132 493.036L179.803 486.731L174.609 485.716Z" fill="#B5453C"/>
<path d="M108.397 364.812C108.397 364.812 157.953 375.208 168.304 383.814C178.66 392.419 185.874 477.79 185.874 477.79C185.874 477.79 184.639 478.538 182.108 478.48C179.755 478.425 174.821 476.391 174.821 476.391C174.821 476.391 153.672 435.842 153.065 426.247C152.459 416.651 154.004 408.363 149.858 407.589C145.712 406.818 92.8255 406.537 86.7767 391.641C80.7279 376.742 89.034 363.874 89.034 363.874L108.397 364.812Z" fill="#2A333F"/>
<path d="M127.018 284.87C127.076 284.896 121.247 287.924 116.864 286.726C112.74 285.601 110.044 280.253 110.102 280.242C111.848 279.895 112.353 277.496 112.316 267.18L113.105 267.337L126.382 269.967C126.382 269.967 126.079 274.146 126.072 278.08C126.061 281.382 126.262 284.516 127.018 284.87Z" fill="#FFB27D"/>
<path d="M126.379 269.964C126.379 269.964 126.076 274.142 126.069 278.076C118.639 277.868 114.712 271.089 113.102 267.334L126.379 269.964Z" fill="#ED975D"/>
<path d="M128.861 273.689C128.861 273.689 111.284 273.978 111.269 263.031C111.258 252.08 108.979 244.746 120.204 244.096C131.428 243.449 133.613 247.624 134.504 251.277C135.395 254.929 133.43 273.331 128.861 273.689Z" fill="#FFB27D"/>
<path d="M87.8732 332.161C86.1382 324.893 92.0372 310.782 98.1956 299.105C103.781 288.519 109.581 279.932 110.1 280.239C124.835 288.983 126.164 281.714 126.164 281.714C126.171 281.714 139.548 283.49 143.335 290.013C148.036 298.108 153.114 320.721 158.158 325.002C157.383 327.373 157.716 328.637 158.538 331.573C158.713 332.205 158.907 332.801 159.122 333.37C159.882 335.438 160.832 337.114 161.653 338.572C159.089 340.128 154.136 343.094 150.491 340.961C144.928 337.706 140.592 327.796 138.149 323.852C138.138 323.837 138.13 323.822 138.123 323.808C132.816 353.855 140.033 360.696 136.381 363.863C132.523 367.209 127.012 362.27 114.885 367.527C106.933 370.978 95.8945 375.964 88.4649 376.834C84.5675 377.29 81.66 376.614 80.714 373.981C77.9526 366.332 91.1825 346.02 87.8732 332.161Z" fill="white"/>
<path d="M124.955 267.053C124.955 267.053 125.284 268.444 128.743 268.229C128.743 268.229 131.647 268.05 131.559 266.519C131.559 266.519 128.743 265.431 124.955 267.053Z" fill="white"/>
<path d="M78.196 342.838C82.1372 337.304 86.2391 334.382 88.9385 332.91C88.3175 331.31 105.511 310.231 105.511 306.965C105.511 303.66 110.098 280.239 110.098 280.239C110.098 280.239 95.7726 281.123 90.8123 288.041C84.61 296.69 71.7271 329.984 78.196 342.838Z" fill="white"/>
<path d="M88.9414 332.91L117.571 340.38L114.883 345.201C114.883 345.201 80.0435 344.957 78.1989 342.838C76.3507 340.716 88.9414 332.91 88.9414 332.91Z" fill="#FFB27D"/>
<path d="M138.146 323.852C140.59 327.796 144.926 337.706 150.489 340.961C154.138 343.09 159.087 340.128 161.651 338.572C160.83 337.114 159.88 335.438 159.12 333.37C157.075 333.838 154.576 334.437 152.965 334.923C149.835 335.869 138.146 323.852 138.146 323.852Z" fill="#292D31"/>
<path d="M135.231 319.921L119.908 353.913L156.234 357.343L170.527 322.825L135.231 319.921Z" fill="#B5453C"/>
<path d="M170.525 322.825L187.474 312.075L170.525 349.139L156.232 357.347C156.996 355.502 170.525 322.825 170.525 322.825Z" fill="#96302A"/>
<path d="M117.566 340.38C117.566 340.38 122.859 338.049 124.2 336.855C125.065 336.084 125 337.184 124.916 337.487C124.751 338.09 124.532 339.302 122.991 340.318C120.773 341.779 117.566 340.38 117.566 340.38Z" fill="#FFB27D"/>
<path d="M127.073 240.161C127.073 240.161 121.463 255.89 113.408 258.436C105.351 260.982 102.75 257.76 102.75 257.76C102.75 257.76 108.744 252.438 109.57 243.675C109.573 243.679 122.69 233.616 127.073 240.161Z" fill="#4D4D4D"/>
<path d="M125.816 241.385C125.816 241.385 129.966 244.34 131.102 247.372C132.241 250.404 133.023 256.73 134.86 256.412C134.86 256.412 138.345 246.536 133.538 241.316C128.446 235.786 125.816 241.385 125.816 241.385Z" fill="#4D4D4D"/>
<path d="M126.584 241.827C126.584 241.827 123.603 256.916 113.555 262.246C113.555 262.246 123.366 252.54 123.705 242.667C124.041 232.794 126.584 241.827 126.584 241.827Z" fill="#4D4D4D"/>
<path d="M96.3182 271.973C99.4522 274.084 106.728 273.427 106.728 273.427C106.305 273.054 105.822 272.192 105.822 272.192C110.118 274.321 118.559 270.179 118.559 270.179C111.09 270.205 111.086 259.419 113.409 258.436C113.08 250.375 113.712 240.1 114.052 235.475C113.727 235.494 113.544 235.519 113.544 235.519C93.0819 232.451 93.1842 269.865 96.3182 271.973Z" fill="#4D4D4D"/>
<path d="M117.568 340.38C117.568 340.38 126.864 338.605 128.916 339.058C130.969 339.507 135.557 341.476 135.9 341.903C136.244 342.327 134.567 342.564 133.365 342.075C131.82 341.443 129.26 341.709 129.26 341.709C129.26 341.709 134.198 343.328 135.407 344.018C135.528 344.087 135.531 344.263 135.414 344.336C135.086 344.544 134.293 344.613 133.19 344.343C131.608 343.952 128.789 343.7 128.789 343.7L134.406 345.545C134.476 345.567 134.523 345.636 134.512 345.709C134.476 345.979 133.986 346.228 132.638 346.147C131.597 346.085 128.149 345.205 128.149 345.205L131.101 347.174C131.101 347.174 130.29 347.638 128.748 346.947C127.693 346.473 124.519 345.318 123.748 345.399C122.977 345.479 119.043 346.56 117.334 346.005C115.624 345.45 114.883 345.201 114.883 345.201L117.568 340.38Z" fill="#FFB27D"/>
<path d="M106.964 492.795C107.785 492.795 108.487 492.218 108.625 491.432L116.771 445.27L128.485 378.875L131.762 360.309L123.419 360.072L121.972 370.851L111.807 446.589L105.78 491.484C105.685 492.174 106.244 492.795 106.964 492.795Z" fill="#F3B7B7"/>
<path d="M121.969 370.847C127.375 373.232 128.485 378.872 128.485 378.872L131.762 360.305L123.419 360.068L121.969 370.847Z" fill="#DD9797"/>
<path d="M314.505 492.795C313.683 492.795 312.982 492.218 312.843 491.432L304.698 445.27L292.983 378.875L289.707 360.309L298.05 360.072L299.496 370.851L309.662 446.589L315.688 491.484C315.787 492.174 315.228 492.795 314.505 492.795Z" fill="#F3B7B7"/>
<path d="M299.5 370.847C294.094 373.232 292.983 378.872 292.983 378.872L289.707 360.305L298.05 360.068L299.5 370.847Z" fill="#DD9797"/>
<path d="M100.078 367.596H316.396C318.468 367.596 320.166 365.901 320.166 363.826V362.121C320.166 360.05 318.471 358.351 316.396 358.351H100.078C98.0071 358.351 96.3086 360.046 96.3086 362.121V363.826C96.3086 365.901 98.0034 367.596 100.078 367.596Z" fill="#F3B7B7"/>
<path d="M548.21 377.031H507.406C506.278 377.031 505.354 376.107 505.354 374.978C505.354 373.849 506.278 372.925 507.406 372.925H548.21C549.339 372.925 550.263 373.849 550.263 374.978C550.263 376.107 549.339 377.031 548.21 377.031Z" fill="#FCDBDB"/>
<path d="M548.21 385.067H507.406C506.278 385.067 505.354 384.142 505.354 383.014C505.354 381.885 506.278 380.961 507.406 380.961H548.21C549.339 380.961 550.263 381.885 550.263 383.014C550.263 384.142 549.339 385.067 548.21 385.067Z" fill="#FCDBDB"/>
<path d="M556.801 38.1471V479.945C556.801 486.764 551.307 492.364 544.531 492.535C544.422 492.539 544.316 492.539 544.206 492.539H323.282C316.356 492.539 310.688 486.874 310.688 479.945V38.1471C310.688 31.218 316.356 25.5527 323.282 25.5527H544.206C551.132 25.5527 556.801 31.218 556.801 38.1471Z" fill="#EA7878"/>
<path d="M569.807 38.1471V479.948C569.807 486.87 564.138 492.536 557.209 492.536H336.284C329.355 492.536 323.693 486.87 323.693 479.948V38.1471C323.693 31.218 329.359 25.5527 336.284 25.5527H557.209C564.138 25.5527 569.807 31.218 569.807 38.1471Z" fill="#FBAFAF"/>
<path opacity="0.4" d="M482.817 43.2315H418.841C417.471 43.2315 416.354 42.1101 416.354 40.744C416.354 39.3743 417.475 38.2529 418.841 38.2529H482.817C484.187 38.2529 485.305 39.3743 485.305 40.744C485.305 42.1101 484.184 43.2315 482.817 43.2315Z" fill="#DD5E5E"/>
<path opacity="0.4" d="M407.478 43.2315C406.108 43.2315 404.99 42.1101 404.99 40.744C404.99 39.3743 406.112 38.2529 407.478 38.2529C408.847 38.2529 409.965 39.3743 409.965 40.744C409.965 42.1101 408.844 43.2315 407.478 43.2315Z" fill="#DD5E5E"/>
<path d="M465.853 466.737C465.853 471.142 464.074 475.138 461.195 478.038C458.288 480.975 454.252 482.79 449.795 482.79C440.93 482.79 433.738 475.602 433.738 466.733C433.738 461.031 436.708 456.031 441.19 453.182C443.674 451.6 446.629 450.68 449.795 450.68C458.664 450.683 465.853 457.872 465.853 466.737Z" fill="#F49595"/>
<path d="M556.677 54.3213H338.434V442.79H556.677V54.3213Z" fill="#FCD2D2"/>
<path d="M461.199 478.038C458.292 480.975 454.256 482.79 449.799 482.79C440.934 482.79 433.742 475.602 433.742 466.733C433.742 461.031 436.712 456.031 441.194 453.182C442.768 460.019 447.432 471.452 461.199 478.038Z" fill="#F18C8C"/>
<path d="M652.308 77.5777V221.398C652.308 223.871 650.284 225.894 647.804 225.894H356.551C354.078 225.894 352.055 223.871 352.055 221.398V77.5777C352.055 75.0976 354.078 73.074 356.551 73.074H647.804C650.281 73.0703 652.308 75.0976 652.308 77.5777Z" fill="#FFFBF8"/>
<path d="M652.304 77.5777V221.398C652.304 223.871 649.948 225.898 647.07 225.898H502.18V73.074H647.07C649.952 73.074 652.304 75.0976 652.304 77.5777Z" fill="#2A333F"/>
<path d="M588.07 92.9628H533.547C532.648 92.9628 531.914 92.2286 531.914 91.33C531.914 90.4314 532.648 89.6973 533.547 89.6973H588.07C588.969 89.6973 589.703 90.4314 589.703 91.33C589.703 92.2286 588.969 92.9628 588.07 92.9628Z" fill="#FCDBDB"/>
<path d="M588.07 99.2525H533.547C532.648 99.2525 531.914 98.5184 531.914 97.6198C531.914 96.7213 532.648 95.9871 533.547 95.9871H588.07C588.969 95.9871 589.703 96.7213 589.703 97.6198C589.703 98.5184 588.969 99.2525 588.07 99.2525Z" fill="#FCDBDB"/>
<path d="M523.659 93.3135H522.289C521.223 93.3135 520.35 92.4405 520.35 91.3739V91.2862C520.35 90.2197 521.223 89.3467 522.289 89.3467H523.659C524.726 89.3467 525.598 90.2197 525.598 91.2862V91.3739C525.598 92.4405 524.726 93.3135 523.659 93.3135Z" fill="#FCDBDB"/>
<path d="M588.07 116.12H533.547C532.648 116.12 531.914 115.386 531.914 114.488C531.914 113.589 532.648 112.855 533.547 112.855H588.07C588.969 112.855 589.703 113.589 589.703 114.488C589.703 115.386 588.969 116.12 588.07 116.12Z" fill="#FCDBDB"/>
<path d="M588.07 122.41H533.547C532.648 122.41 531.914 121.676 531.914 120.778C531.914 119.879 532.648 119.145 533.547 119.145H588.07C588.969 119.145 589.703 119.879 589.703 120.778C589.703 121.676 588.969 122.41 588.07 122.41Z" fill="#FCDBDB"/>
<path d="M523.659 116.471H522.289C521.223 116.471 520.35 115.598 520.35 114.532V114.444C520.35 113.377 521.223 112.504 522.289 112.504H523.659C524.726 112.504 525.598 113.377 525.598 114.444V114.532C525.598 115.598 524.726 116.471 523.659 116.471Z" fill="#FCDBDB"/>
<path d="M588.07 139.019H533.547C532.648 139.019 531.914 138.285 531.914 137.387C531.914 136.488 532.648 135.754 533.547 135.754H588.07C588.969 135.754 589.703 136.488 589.703 137.387C589.703 138.285 588.969 139.019 588.07 139.019Z" fill="#FCDBDB"/>
<path d="M588.07 145.309H533.547C532.648 145.309 531.914 144.575 531.914 143.676C531.914 142.778 532.648 142.044 533.547 142.044H588.07C588.969 142.044 589.703 142.778 589.703 143.676C589.703 144.575 588.969 145.309 588.07 145.309Z" fill="#FCDBDB"/>
<path d="M523.659 139.37H522.289C521.223 139.37 520.35 138.497 520.35 137.43V137.343C520.35 136.276 521.223 135.403 522.289 135.403H523.659C524.726 135.403 525.598 136.276 525.598 137.343V137.43C525.598 138.497 524.726 139.37 523.659 139.37Z" fill="#FCDBDB"/>
<path d="M508.493 254.21V398.03C508.493 400.507 506.47 402.53 503.993 402.53H212.744C210.264 402.53 208.24 400.507 208.24 398.03V254.21C208.24 251.737 210.264 249.713 212.744 249.713H503.99C506.47 249.713 508.493 251.741 508.493 254.21Z" fill="#FFFBF8"/>
<path d="M508.493 254.21V398.03C508.493 400.51 506.47 402.534 503.993 402.534H374.455V249.713H503.993C506.466 249.713 508.493 251.737 508.493 254.21Z" fill="#2A333F"/>
<path d="M247.316 274.657C238.397 274.657 231.168 281.886 231.168 290.806C231.168 299.726 238.4 306.954 247.316 306.954C256.236 306.954 263.465 299.722 263.465 290.806C263.469 281.89 256.236 274.657 247.316 274.657ZM258.505 291.325H247.32C247.035 291.325 246.805 291.094 246.805 290.81V278.781C246.805 278.496 247.035 278.266 247.32 278.266C247.605 278.266 247.835 278.496 247.835 278.781V290.295H258.505C258.789 290.295 259.02 290.525 259.02 290.81C259.02 291.094 258.789 291.325 258.505 291.325Z" fill="#EC2323"/>
<path d="M245.706 337.169C237.677 337.169 231.168 343.678 231.168 351.707C231.168 359.735 245.706 377.586 245.706 377.586C245.706 377.586 260.243 359.735 260.243 351.707C260.243 343.678 253.734 337.169 245.706 337.169ZM245.706 358.355C241.954 358.355 238.912 355.312 238.912 351.561C238.912 347.809 241.954 344.767 245.706 344.767C249.457 344.767 252.5 347.809 252.5 351.561C252.5 355.312 249.457 358.355 245.706 358.355Z" fill="#EC2323"/>
<path d="M327.339 346.118H274.43C273.09 346.118 271.99 345.019 271.99 343.678C271.99 342.338 273.09 341.238 274.43 341.238H327.339C328.68 341.238 329.779 342.338 329.779 343.678C329.779 345.019 328.683 346.118 327.339 346.118Z" fill="#FCDBDB"/>
<path d="M313.583 355.458H274.112C272.947 355.458 271.99 354.505 271.99 353.336V352.7C271.99 351.535 272.944 350.578 274.112 350.578H313.583C314.748 350.578 315.705 351.531 315.705 352.7V353.336C315.705 354.501 314.752 355.458 313.583 355.458Z" fill="#FCDBDB"/>
<path d="M327.339 288.578H274.43C273.09 288.578 271.99 287.478 271.99 286.138C271.99 284.797 273.09 283.698 274.43 283.698H327.339C328.68 283.698 329.779 284.797 329.779 286.138C329.779 287.482 328.683 288.578 327.339 288.578Z" fill="#FCDBDB"/>
<path d="M313.583 297.918H274.112C272.947 297.918 271.99 296.964 271.99 295.795V295.16C271.99 293.991 272.944 293.038 274.112 293.038H313.583C314.748 293.038 315.705 293.991 315.705 295.16V295.795C315.705 296.964 314.752 297.918 313.583 297.918Z" fill="#FCDBDB"/>
<path d="M508.491 318.584V293.819L455.707 272.068L374.453 288.782V322.237L420.561 341.045L420.612 341.067L508.491 318.595V318.584Z" fill="#FFB176"/>
<path d="M420.477 341.067V355.823L374.453 335.843V322.27L420.477 341.067Z" fill="#B25918"/>
<path d="M508.491 318.584L420.561 341.045L420.477 341.067V355.823L508.491 331.793V318.595V318.584Z" fill="#BB7542"/>
<path d="M620.594 129.033C620.295 128.851 619.875 128.613 619.374 128.343L611.492 121.907C611.492 121.907 610.491 122.477 611.492 123.569C611.62 123.708 611.795 123.89 612 124.102L608.99 121.75C608.99 121.75 608.456 122.283 608.803 123.127C609.048 123.73 611.872 126.14 613.457 127.463C612.5 127.002 611.159 125.991 609.147 123.971C607.89 122.71 608.299 124.61 608.489 125.439C608.825 126.907 612.745 131.864 614.122 134.096C615.499 136.328 616.185 138.53 615.221 137.566C614.257 136.602 609.026 133.38 608.475 134.096C607.923 134.812 611.09 137.566 612.606 139.768C614.122 141.971 615.773 145.689 621.142 146.515C626.512 147.34 627.436 144.626 627.436 144.626C627.436 144.626 623.071 130.549 620.594 129.033Z" fill="#FFB27D"/>
<path d="M786.528 263.185C786.528 263.185 785.22 275.903 783.785 278.311C782.349 280.718 775.676 287.705 773.634 289.911C773.495 290.061 772.169 288.892 773.174 287.197C777.221 280.367 776.096 282.007 774.697 277.514C774.003 275.293 773.572 281.686 772.425 281.835C771.278 281.985 771.683 275.096 771.643 273.003C771.603 270.91 777.396 269.924 778.079 262.367C778.514 257.501 786.528 263.185 786.528 263.185Z" fill="#FFB27D"/>
<path d="M746.644 132.682C746.644 132.682 736.069 184.59 677.868 201.55C659.699 206.842 618.428 147.033 618.428 147.033C618.428 147.033 619.878 141.518 628.969 142.785C628.969 142.785 669.156 169.391 674.215 172.281C678.704 174.845 708.229 139.315 721.685 133.584C735.141 127.853 746.644 132.682 746.644 132.682Z" fill="#B5053A"/>
<path d="M816.126 458.993C816.126 458.993 823.347 465.583 821.937 470.265C820.527 474.948 814.011 478.067 813.131 483.791C812.251 489.515 808.729 492.634 805.559 492.634C802.388 492.634 790.448 492.634 790.448 492.634C790.448 492.634 788.114 488.609 793.75 487.393C799.386 486.18 801.508 479.455 801.157 473.213C800.807 466.971 801.687 458.646 801.687 458.646L813.661 455.87L816.126 458.993Z" fill="#4D4D4D"/>
<path d="M727.548 476.033C727.548 476.033 728.845 491.027 725.674 492.591L685.107 492.507C685.107 492.507 685.107 487.824 691.624 486.783C698.14 485.742 709.584 481.928 711.524 473.432C713.463 464.936 727.548 476.033 727.548 476.033Z" fill="#4D4D4D"/>
<path d="M693.301 264.215C693.301 264.215 695.441 290.499 697.954 322.095C701.373 365.014 705.482 417.736 705.888 427.723C706.589 445.066 709.413 472.808 709.413 472.808C709.413 472.808 716.101 479.397 729.488 476.621C729.488 476.621 741.417 437.019 744.825 395.119C744.876 394.432 744.931 393.742 744.982 393.048C748.153 350.392 753.08 260.573 753.08 260.573L693.301 264.215Z" fill="#2A333F"/>
<path d="M693.301 264.215C693.301 264.215 695.441 290.499 697.954 322.095L744.825 395.119C744.876 394.432 744.931 393.742 744.982 393.048C748.153 350.392 753.08 260.573 753.08 260.573L693.301 264.215Z" fill="#292D31"/>
<path d="M703.072 267.338C703.072 267.338 741.637 362.53 766.994 407.268C792.351 452.002 800.277 464.487 800.277 464.487C800.277 464.487 814.804 458.763 816.126 454.862C816.126 454.862 806.428 368.498 789.447 347.444C779.851 335.548 768.579 299.846 768.05 287.362C767.52 274.877 764.616 250.17 764.616 250.17L703.072 267.338Z" fill="#2A333F"/>
<path d="M753.814 120.636C753.814 120.636 727.719 133.226 712.678 128.555C712.678 128.555 716.382 123.883 722.861 120.409C722.343 117.388 721.937 114.769 721.704 112.549C721.068 107.42 721.068 104.516 721.068 104.516L731.135 96.5974L740.683 89.0217C739.927 110.324 753.814 120.636 753.814 120.636Z" fill="#FFB27D"/>
<path d="M767.563 255.046C767.621 256.646 764.21 258.465 762.701 259.148C751.539 264.05 741.121 267.465 729.32 268.605C715.377 270.03 698.886 266.896 693.217 267.012C692.64 267.012 692.117 266.786 691.657 266.384C691.252 266.099 690.963 249.293 691.252 228.159C691.252 227.308 691.251 226.453 691.31 225.599V225.314C691.427 217.055 691.715 208.394 692.121 199.734C692.932 180.707 694.437 162.364 696.983 152.224C700.047 140.258 706.995 132.342 713.299 126.586L718.504 122.031C723.713 123.054 729.21 122.769 734.707 120.095C740.723 117.191 747.203 114.057 748.244 114.853C756.112 120.606 761.434 133.537 764.272 150.061C764.283 150.145 764.301 150.222 764.312 150.306C765.901 159.756 766.701 170.323 766.643 181.394C766.643 185.5 766.526 189.711 766.296 193.871C765.134 212.712 765.912 229.485 766.672 241.104C766.822 243.402 766.975 245.495 767.106 247.365C767.333 250.66 767.505 253.224 767.563 255.046Z" fill="#F50057"/>
<path d="M766.668 241.093C723.414 191.154 750.246 154.861 750.246 154.861L764.309 150.299C765.898 159.749 766.698 170.316 766.639 181.387C766.639 185.493 766.522 189.704 766.292 193.864C765.131 212.701 765.909 229.474 766.668 241.093Z" fill="#B5053A"/>
<path d="M740.851 97.1672C740.851 97.1672 734.254 109.188 721.7 112.549C721.064 107.42 721.064 104.516 721.064 104.516L731.131 96.5974L740.851 97.1672Z" fill="#ED985F"/>
<path d="M716.477 104.166C716.477 104.166 741.37 108.238 743.708 92.9336C746.045 77.6289 750.83 67.8507 735.036 64.6035C719.242 61.3563 715.253 66.7367 713.215 71.6605C711.17 76.5806 710.059 102.712 716.477 104.166Z" fill="#FFB27D"/>
<path d="M752.752 62.7737C752.979 62.5143 753.497 62.3061 754.659 62.244C754.659 62.244 753.731 61.6633 752.493 61.634C752.252 60.0196 751.393 57.1668 748.617 56.4728C748.617 56.4728 750.108 57.2691 750.305 58.9822C747.09 55.6802 740.202 53.2767 721.124 54.7816C695.982 56.765 704.267 72.8623 707.521 74.7836C710.776 76.7013 718.969 71.4415 725.032 71.9236C731.095 72.4058 732.25 81.1685 734.306 82.3703C736.363 83.572 735.555 81.4461 738.339 80.1896C741.122 78.9331 741.389 83.5427 740.581 86.5416C739.778 89.5404 743.602 93.4963 743.602 93.4963C743.602 93.4963 743.602 93.4963 747.467 89.3322C751.331 85.1682 754.973 67.5404 753.216 63.7818C753.063 63.4494 752.909 63.1097 752.752 62.7737Z" fill="#4D4D4D"/>
<path d="M748.229 114.718C748.229 114.718 763.98 122.177 771.53 133.643C783.244 151.428 796.821 216.244 797.073 222.246C797.325 228.247 787.163 270.621 787.163 270.621C787.163 270.621 776.859 269.942 774.2 264.741C774.2 264.741 776.26 221.201 774.952 218.403C773.648 215.605 731.99 160 736.676 148.133C741.359 136.273 748.229 114.718 748.229 114.718Z" fill="#F50057"/>
<path d="M783.786 278.307L776.331 290.777C776.331 290.777 775.439 290.401 775.582 289.509C775.721 288.618 777.879 281.864 777.879 281.864L783.786 278.307Z" fill="#FFB27D"/>
<path d="M776.318 278.668C776.318 278.668 770.944 284.798 772.135 286.182L776.014 283.179L776.318 278.668Z" fill="#FFB27D"/>
<path d="M440.092 293.852C440.092 293.852 437.845 293.418 435.76 294.667C435.76 294.667 438.623 295.635 440.092 293.852Z" fill="#01AC79"/>
<path d="M436.49 285.747C418.961 287.011 403.046 288.044 391.887 291.726C381.616 295.116 375.322 299.674 375.322 304.686C375.322 310.256 382.16 316.221 395.478 318.734C406.669 320.845 424.294 325.181 436.49 323.621C451.791 321.667 465.382 321.934 476.048 319.129L471.103 317.32L436.556 304.69L492.204 306.227L497.416 306.37C497.573 305.815 497.657 305.256 497.657 304.69C497.657 299.324 490.451 294.48 478.872 291.036C467.877 287.759 452.898 284.563 436.49 285.747Z" fill="#FFE4CC"/>
<path d="M492.2 306.224L436.552 304.686L471.099 317.317C467.669 318.095 463.917 318.756 459.91 319.286C452.802 320.228 444.573 319.581 436.552 320.75C423.256 322.69 410.983 318.241 401.143 317.116C390.543 315.903 379.442 309.544 380.651 304.682C381.908 299.63 389.089 293.775 401.961 292.055C411.633 290.762 424.392 287.774 437.454 287.774C448.058 287.774 456.963 290.411 465.521 290.933C481.673 291.916 492.456 298.856 492.456 304.682C492.452 305.204 492.368 305.716 492.2 306.224Z" fill="#F77548"/>
<path d="M407.192 302.94C407.192 303.491 406.019 303.941 404.576 303.941C403.133 303.941 401.961 303.491 401.961 302.94C401.961 302.388 403.133 301.939 404.576 301.939C406.019 301.939 407.192 302.388 407.192 302.94Z" fill="#B5453C"/>
<path d="M423.092 298.129C423.092 298.681 421.919 299.13 420.477 299.13C419.034 299.13 417.861 298.681 417.861 298.129C417.861 297.578 419.034 297.128 420.477 297.128C421.919 297.128 423.092 297.578 423.092 298.129Z" fill="#B5453C"/>
<path d="M413.277 295.481C413.277 295.938 412.313 296.307 411.122 296.307C409.931 296.307 408.967 295.938 408.967 295.481C408.967 295.024 409.931 294.656 411.122 294.656C412.313 294.656 413.277 295.024 413.277 295.481Z" fill="#B5453C"/>
<path d="M432.764 293.436C432.764 293.943 431.691 294.356 430.365 294.356C429.039 294.356 427.965 293.943 427.965 293.436C427.965 292.928 429.039 292.515 430.365 292.515C431.687 292.515 432.764 292.928 432.764 293.436Z" fill="#B5453C"/>
<path d="M428.975 304.39C431.067 304.39 432.763 303.741 432.763 302.94C432.763 302.139 431.067 301.49 428.975 301.49C426.883 301.49 425.188 302.139 425.188 302.94C425.188 303.741 426.883 304.39 428.975 304.39Z" fill="#B5453C"/>
<path d="M440.99 297.647C440.99 298.199 439.822 298.648 438.375 298.648C436.932 298.648 435.76 298.199 435.76 297.647C435.76 297.096 436.932 296.646 438.375 296.646C439.822 296.646 440.99 297.092 440.99 297.647Z" fill="#B5453C"/>
<path d="M453.096 298.147C453.096 298.425 452.511 298.648 451.788 298.648C451.065 298.648 450.48 298.425 450.48 298.147C450.48 297.87 451.065 297.647 451.788 297.647C452.511 297.647 453.096 297.87 453.096 298.147Z" fill="#B5453C"/>
<path d="M446.302 294.352C447.024 294.352 447.609 294.128 447.609 293.852C447.609 293.576 447.024 293.352 446.302 293.352C445.58 293.352 444.994 293.576 444.994 293.852C444.994 294.128 445.58 294.352 446.302 294.352Z" fill="#B5453C"/>
<path d="M432.764 309.978C432.764 310.256 432.179 310.479 431.456 310.479C430.733 310.479 430.148 310.256 430.148 309.978C430.148 309.701 430.733 309.478 431.456 309.478C432.176 309.478 432.764 309.701 432.764 309.978Z" fill="#B5453C"/>
<path d="M441.717 312.254C441.717 312.532 441.132 312.754 440.409 312.754C439.686 312.754 439.102 312.532 439.102 312.254C439.102 311.976 439.686 311.754 440.409 311.754C441.132 311.754 441.717 311.976 441.717 312.254Z" fill="#B5453C"/>
<path d="M418.957 309.46C420.589 309.46 421.912 308.954 421.912 308.331C421.912 307.708 420.589 307.202 418.957 307.202C417.325 307.202 416.002 307.708 416.002 308.331C416.002 308.954 417.325 309.46 418.957 309.46Z" fill="#B5453C"/>
<path d="M404.963 308.612C404.963 308.612 403.024 308.123 401.143 309.109C401.143 309.109 403.594 310.095 404.963 308.612Z" fill="#01AC79"/>
<path d="M419.869 301.468C419.869 301.468 417.243 300.803 414.693 302.14C414.693 302.14 418.014 303.477 419.869 301.468Z" fill="#01AC79"/>
<path d="M448.16 297.662C448.16 297.662 445.449 297.669 443.312 299.594C443.312 299.594 446.859 300.065 448.16 297.662Z" fill="#01AC79"/>
<path d="M460.728 299.104C460.728 299.104 458.434 297.665 455.596 298.155C455.596 298.155 458.346 300.449 460.728 299.104Z" fill="#01AC79"/>
<path d="M440.591 303.206C440.591 303.206 439.313 301.311 436.957 300.712C436.957 300.715 438.294 303.426 440.591 303.206Z" fill="#01AC79"/>
<path d="M436.146 305.906C436.146 305.906 433.863 305.741 431.941 307.228C431.941 307.232 434.9 307.849 436.146 305.906Z" fill="#01AC79"/>
<path d="M438.29 314.391C438.29 314.391 436.416 313.08 434.002 313.372C434.002 313.372 436.223 315.421 438.29 314.391Z" fill="#01AC79"/>
<path d="M441.612 308.7C441.612 308.7 439.325 308.609 437.451 310.161C437.455 310.161 440.432 310.683 441.612 308.7Z" fill="#01AC79"/>
<path d="M431.153 298.21C431.153 298.21 428.924 297.698 426.795 298.871C426.795 298.871 429.626 299.937 431.153 298.21Z" fill="#01AC79"/>
<path d="M425.44 295.722C425.44 295.722 423.734 294.199 421.305 294.199C421.305 294.203 423.266 296.5 425.44 295.722Z" fill="#01AC79"/>
<path d="M408.498 309.865C405.926 310.515 404.637 311.838 405.634 312.795C406.383 313.518 408.038 313.364 409.904 312.966L410.854 313.883C410.985 314.011 411.369 314.044 411.709 313.956L413.531 313.492C413.871 313.405 414.039 313.233 413.908 313.105L412.965 312.196C414.689 311.692 415.752 311.169 414.981 310.42C413.984 309.463 411.066 309.211 408.498 309.865Z" fill="#EFABAB"/>
<path d="M457.303 293.078C459.4 293.607 460.448 294.685 459.637 295.466C459.027 296.054 457.68 295.93 456.156 295.605L455.382 296.354C455.276 296.456 454.962 296.485 454.684 296.416L453.198 296.04C452.92 295.97 452.781 295.828 452.891 295.726L453.658 294.984C452.255 294.575 451.386 294.148 452.014 293.538C452.832 292.752 455.21 292.544 457.303 293.078Z" fill="#EFABAB"/>
<path d="M427.401 305.785C429.498 306.319 430.546 307.392 429.739 308.174C429.129 308.762 427.781 308.638 426.258 308.313L425.484 309.062C425.378 309.164 425.064 309.193 424.786 309.124L423.299 308.748C423.022 308.678 422.883 308.536 422.992 308.433L423.76 307.692C422.357 307.283 421.488 306.856 422.116 306.246C422.93 305.457 425.308 305.252 427.401 305.785Z" fill="#EFABAB"/>
<path d="M409.68 297.654C407.584 298.188 406.535 299.261 407.343 300.043C407.953 300.631 409.3 300.507 410.824 300.182L411.598 300.931C411.704 301.033 412.018 301.062 412.296 300.993L413.782 300.617C414.06 300.547 414.199 300.405 414.089 300.302L413.322 299.561C414.725 299.152 415.594 298.725 414.966 298.115C414.155 297.329 411.777 297.125 409.68 297.654Z" fill="#EFABAB"/>
<path d="M500.888 304.631L452.859 303.305L446.303 301.479V303.126L483.79 316.835C495.11 313.861 502.696 309.566 504.073 304.722V303.075L500.888 304.631Z" fill="#FFE4CC"/>
<path d="M504.074 303.071C502.7 307.915 495.106 312.21 483.79 315.184L466.802 308.97L463.266 307.677C463.266 307.677 463.266 307.677 463.262 307.677L446.307 301.475L504.074 303.071Z" fill="#FF7D5A"/>
<path d="M465.518 304.434C465.518 304.985 464.345 305.435 462.902 305.435C461.46 305.435 460.287 304.985 460.287 304.434C460.287 303.882 461.46 303.433 462.902 303.433C464.345 303.433 465.518 303.882 465.518 304.434Z" fill="#B5453C"/>
<path d="M468.284 308.068C468.284 308.47 467.678 308.81 466.801 308.97L463.266 307.677C463.664 307.319 464.592 307.067 465.673 307.067C467.116 307.071 468.284 307.517 468.284 308.068Z" fill="#B5453C"/>
<path d="M477.631 308.298C477.631 308.576 477.047 308.799 476.323 308.799C475.6 308.799 475.016 308.576 475.016 308.298C475.016 308.021 475.6 307.798 476.323 307.798C477.047 307.798 477.631 308.021 477.631 308.298Z" fill="#B5453C"/>
<path d="M483.341 305.935C484.063 305.935 484.649 305.711 484.649 305.435C484.649 305.158 484.063 304.934 483.341 304.934C482.619 304.934 482.033 305.158 482.033 305.435C482.033 305.711 482.619 305.935 483.341 305.935Z" fill="#B5453C"/>
<path d="M471.367 304.682C471.367 304.96 470.783 305.182 470.06 305.182C469.336 305.182 468.752 304.96 468.752 304.682C468.752 304.404 469.336 304.182 470.06 304.182C470.783 304.182 471.367 304.408 471.367 304.682Z" fill="#B5453C"/>
<path d="M478.058 303.802C478.058 304.259 477.094 304.628 475.903 304.628C474.712 304.628 473.748 304.259 473.748 303.802C473.748 303.345 474.712 302.977 475.903 302.977C477.094 302.977 478.058 303.345 478.058 303.802Z" fill="#B5453C"/>
<path d="M475.907 306.479C475.907 306.786 475.253 307.038 474.45 307.038C473.646 307.038 472.992 306.79 472.992 306.479C472.992 306.172 473.646 305.92 474.45 305.92C475.253 305.92 475.907 306.169 475.907 306.479Z" fill="#B5453C"/>
<path d="M456.781 303.433C456.781 303.637 456.35 303.802 455.82 303.802C455.29 303.802 454.859 303.637 454.859 303.433C454.859 303.228 455.29 303.064 455.82 303.064C456.35 303.064 456.781 303.232 456.781 303.433Z" fill="#B5453C"/>
<path d="M467.872 304.752C467.872 304.752 465.991 304.755 464.508 306.092C464.508 306.092 466.97 306.421 467.872 304.752Z" fill="#01AC79"/>
<path d="M489.536 306.012C489.536 306.012 488.104 304.795 486.109 304.843C486.109 304.847 487.768 306.695 489.536 306.012Z" fill="#01AC79"/>
<path d="M472.447 308.065C472.447 308.065 470.975 306.892 468.984 307.009C468.981 307.009 470.701 308.802 472.447 308.065Z" fill="#01AC79"/>
<path d="M483.786 309.248C483.786 309.248 481.919 309.018 480.279 310.158C480.279 310.158 482.679 310.793 483.786 309.248Z" fill="#01AC79"/>
<path d="M454.981 302.312C454.981 302.312 453.356 301.95 451.814 302.819C451.814 302.816 453.878 303.579 454.981 302.312Z" fill="#01AC79"/>
<path d="M386.064 88.6598C378.299 89.7775 371.253 90.6943 366.311 93.9489C361.76 96.9477 358.973 100.98 358.973 105.415C358.973 110.346 362.001 115.62 367.9 117.845C372.856 119.715 380.662 123.546 386.064 122.169C392.84 120.438 398.863 120.675 403.586 118.195L401.395 116.595L386.094 105.418L410.742 106.781L413.05 106.909C413.12 106.419 413.156 105.922 413.156 105.422C413.156 100.673 409.964 96.3888 404.836 93.3389C399.967 90.4423 393.333 87.6151 386.064 88.6598Z" fill="#FFE4CC"/>
<path d="M410.742 106.781L386.094 105.418L401.395 116.595C399.876 117.282 398.214 117.87 396.438 118.338C393.29 119.17 389.644 118.601 386.09 119.634C380.202 121.347 374.767 117.413 370.406 116.42C365.708 115.346 360.796 109.721 361.329 105.418C361.884 100.947 365.066 95.7678 370.767 94.2483C375.052 93.105 380.703 90.4604 386.489 90.4604C391.186 90.4604 395.127 92.7945 398.919 93.2548C406.074 94.1241 410.848 100.264 410.848 105.418C410.852 105.878 410.815 106.331 410.742 106.781Z" fill="#F77548"/>
<path d="M373.087 103.877C373.087 104.366 372.569 104.761 371.929 104.761C371.29 104.761 370.771 104.366 370.771 103.877C370.771 103.387 371.29 102.993 371.929 102.993C372.569 102.989 373.087 103.387 373.087 103.877Z" fill="#B5453C"/>
<path d="M380.128 99.6178C380.128 100.107 379.61 100.502 378.97 100.502C378.331 100.502 377.812 100.104 377.812 99.6178C377.812 99.1284 378.331 98.7339 378.97 98.7339C379.61 98.7339 380.128 99.132 380.128 99.6178Z" fill="#B5453C"/>
<path d="M374.83 98.0035C375.357 98.0035 375.784 97.6765 375.784 97.273C375.784 96.8696 375.357 96.5425 374.83 96.5425C374.304 96.5425 373.877 96.8696 373.877 97.273C373.877 97.6765 374.304 98.0035 374.83 98.0035Z" fill="#B5453C"/>
<path d="M384.413 95.4647C384.413 95.914 383.938 96.2792 383.35 96.2792C382.762 96.2792 382.287 95.914 382.287 95.4647C382.287 95.0154 382.762 94.6501 383.35 94.6501C383.938 94.6501 384.413 95.0154 384.413 95.4647Z" fill="#B5453C"/>
<path d="M384.416 103.877C384.416 104.585 383.663 105.159 382.739 105.159C381.815 105.159 381.062 104.585 381.062 103.877C381.062 103.168 381.815 102.595 382.739 102.595C383.663 102.595 384.416 103.168 384.416 103.877Z" fill="#B5453C"/>
<path d="M388.06 99.1906C388.06 99.68 387.541 100.075 386.902 100.075C386.263 100.075 385.744 99.6764 385.744 99.1906C385.744 98.7011 386.263 98.3066 386.902 98.3066C387.541 98.3066 388.06 98.7011 388.06 99.1906Z" fill="#B5453C"/>
<path d="M393.423 99.6327C393.423 99.8774 393.164 100.075 392.842 100.075C392.521 100.075 392.262 99.8774 392.262 99.6327C392.262 99.3879 392.521 99.1907 392.842 99.1907C393.164 99.1907 393.423 99.3879 393.423 99.6327Z" fill="#B5453C"/>
<path d="M390.99 95.8338C390.99 96.0786 390.73 96.2758 390.409 96.2758C390.087 96.2758 389.828 96.0786 389.828 95.8338C389.828 95.5891 390.087 95.3918 390.409 95.3918C390.73 95.3918 390.99 95.5891 390.99 95.8338Z" fill="#B5453C"/>
<path d="M384.416 110.101C384.416 110.346 384.156 110.543 383.839 110.543C383.517 110.543 383.258 110.346 383.258 110.101C383.258 109.856 383.517 109.659 383.839 109.659C384.156 109.659 384.416 109.856 384.416 110.101Z" fill="#B5453C"/>
<path d="M388.381 112.117C388.381 112.362 388.121 112.559 387.803 112.559C387.486 112.559 387.223 112.362 387.223 112.117C387.223 111.873 387.482 111.675 387.803 111.675C388.125 111.675 388.381 111.873 388.381 112.117Z" fill="#B5453C"/>
<path d="M379.608 108.644C379.608 109.195 379.023 109.644 378.3 109.644C377.577 109.644 376.992 109.195 376.992 108.644C376.992 108.092 377.577 107.643 378.3 107.643C379.023 107.643 379.608 108.092 379.608 108.644Z" fill="#B5453C"/>
<path d="M372.101 108.892C372.101 108.892 371.243 108.457 370.41 109.33C370.41 109.334 371.495 110.203 372.101 108.892Z" fill="#01AC79"/>
<path d="M378.706 102.573C378.706 102.573 377.545 101.985 376.416 103.168C376.412 103.168 377.884 104.348 378.706 102.573Z" fill="#01AC79"/>
<path d="M391.234 99.2053C391.234 99.2053 390.036 99.2126 389.086 100.915C389.086 100.915 390.66 101.331 391.234 99.2053Z" fill="#01AC79"/>
<path d="M396.799 100.484C396.799 100.484 395.784 99.2124 394.527 99.6434C394.527 99.6434 395.744 101.671 396.799 100.484Z" fill="#01AC79"/>
<path d="M387.884 104.111C387.884 104.111 387.318 102.43 386.273 101.904C386.273 101.904 386.865 104.304 387.884 104.111Z" fill="#01AC79"/>
<path d="M385.912 106.499C385.912 106.499 384.9 106.353 384.049 107.672C384.052 107.672 385.364 108.22 385.912 106.499Z" fill="#01AC79"/>
<path d="M386.862 114.006C386.862 114.006 386.033 112.844 384.963 113.104C384.963 113.104 385.949 114.919 386.862 114.006Z" fill="#01AC79"/>
<path d="M388.333 108.972C388.333 108.972 387.321 108.892 386.492 110.262C386.492 110.262 387.811 110.726 388.333 108.972Z" fill="#01AC79"/>
<path d="M383.702 99.6909C383.702 99.6909 382.716 99.238 381.773 100.275C381.773 100.275 383.026 101.218 383.702 99.6909Z" fill="#01AC79"/>
<path d="M381.172 97.4885C381.172 97.4885 380.415 96.1406 379.338 96.1406C379.342 96.1443 380.211 98.1788 381.172 97.4885Z" fill="#01AC79"/>
<path d="M373.667 110.002C372.528 110.58 371.958 111.745 372.4 112.596C372.732 113.235 373.463 113.1 374.292 112.749L374.712 113.56C374.77 113.673 374.942 113.703 375.092 113.626L375.899 113.217C376.049 113.14 376.125 112.987 376.067 112.873L375.651 112.066C376.414 111.621 376.885 111.157 376.542 110.496C376.096 109.648 374.803 109.425 373.667 110.002Z" fill="#EFABAB"/>
<path d="M395.284 95.1469C396.212 95.6181 396.68 96.5678 396.318 97.2618C396.048 97.7842 395.453 97.6709 394.777 97.386L394.433 98.0472C394.386 98.1385 394.247 98.1641 394.127 98.102L393.469 97.7696C393.349 97.7075 393.286 97.5833 393.334 97.4919L393.674 96.8345C393.053 96.4729 392.666 96.093 392.947 95.556C393.305 94.8584 394.357 94.6794 395.284 95.1469Z" fill="#EFABAB"/>
<path d="M382.04 106.39C382.968 106.861 383.436 107.811 383.074 108.505C382.804 109.027 382.208 108.918 381.533 108.629L381.189 109.29C381.142 109.381 381.003 109.407 380.882 109.345L380.225 109.012C380.104 108.95 380.042 108.826 380.09 108.735L380.43 108.077C379.809 107.716 379.421 107.336 379.703 106.799C380.061 106.101 381.113 105.922 382.04 106.39Z" fill="#EFABAB"/>
<path d="M374.191 99.2015C373.263 99.6727 372.796 100.622 373.158 101.316C373.428 101.839 374.023 101.729 374.699 101.441L375.042 102.102C375.09 102.193 375.229 102.219 375.349 102.157L376.007 101.824C376.127 101.762 376.189 101.638 376.142 101.547L375.802 100.889C376.423 100.527 376.81 100.148 376.529 99.6106C376.171 98.913 375.119 98.7303 374.191 99.2015Z" fill="#EFABAB"/>
<path d="M414.587 105.371L393.314 104.198L390.41 102.58V104.037L407.015 116.168C412.027 113.534 415.391 109.736 415.997 105.451V103.994L414.587 105.371Z" fill="#FFE4CC"/>
<path d="M415.997 103.994C415.387 108.278 412.027 112.081 407.012 114.711L399.487 109.213L397.92 108.07L390.41 102.58L415.997 103.994Z" fill="#FF7D5A"/>
<path d="M398.921 105.195C398.921 105.685 398.403 106.079 397.763 106.079C397.124 106.079 396.605 105.685 396.605 105.195C396.605 104.706 397.124 104.311 397.763 104.311C398.403 104.311 398.921 104.709 398.921 105.195Z" fill="#B5453C"/>
<path d="M400.146 108.413C400.146 108.768 399.88 109.071 399.489 109.213L397.922 108.07C398.097 107.752 398.51 107.533 398.988 107.533C399.628 107.529 400.146 107.927 400.146 108.413Z" fill="#B5453C"/>
<path d="M404.288 108.614C404.288 108.859 404.029 109.056 403.708 109.056C403.386 109.056 403.127 108.859 403.127 108.614C403.127 108.369 403.386 108.172 403.708 108.172C404.029 108.172 404.288 108.369 404.288 108.614Z" fill="#B5453C"/>
<path d="M407.392 106.083C407.392 106.328 407.133 106.525 406.815 106.525C406.497 106.525 406.234 106.328 406.234 106.083C406.234 105.838 406.494 105.641 406.815 105.641C407.137 105.641 407.392 105.838 407.392 106.083Z" fill="#B5453C"/>
<path d="M401.511 105.418C401.511 105.663 401.252 105.86 400.931 105.86C400.609 105.86 400.354 105.663 400.354 105.418C400.354 105.173 400.613 104.976 400.931 104.976C401.252 104.972 401.511 105.173 401.511 105.418Z" fill="#B5453C"/>
<path d="M404.477 104.636C404.477 105.038 404.05 105.367 403.524 105.367C402.998 105.367 402.57 105.042 402.57 104.636C402.57 104.235 402.998 103.906 403.524 103.906C404.05 103.906 404.477 104.235 404.477 104.636Z" fill="#B5453C"/>
<path d="M403.522 107.007C403.522 107.281 403.233 107.5 402.875 107.5C402.517 107.5 402.229 107.281 402.229 107.007C402.229 106.733 402.517 106.514 402.875 106.514C403.233 106.51 403.522 106.733 403.522 107.007Z" fill="#B5453C"/>
<path d="M395.054 104.311C395.054 104.49 394.865 104.636 394.631 104.636C394.397 104.636 394.207 104.49 394.207 104.311C394.207 104.132 394.397 103.986 394.631 103.986C394.861 103.986 395.054 104.132 395.054 104.311Z" fill="#B5453C"/>
<path d="M399.963 105.477C399.963 105.477 399.13 105.48 398.473 106.664C398.473 106.664 399.565 106.952 399.963 105.477Z" fill="#01AC79"/>
<path d="M409.559 106.594C409.559 106.594 408.923 105.517 408.039 105.561C408.043 105.561 408.777 107.197 409.559 106.594Z" fill="#01AC79"/>
<path d="M401.991 108.406C401.991 108.406 401.341 107.368 400.457 107.471C400.457 107.474 401.217 109.063 401.991 108.406Z" fill="#01AC79"/>
<path d="M407.013 109.458C407.013 109.458 406.188 109.253 405.461 110.262C405.461 110.262 406.524 110.82 407.013 109.458Z" fill="#01AC79"/>
<path d="M394.254 103.318C394.254 103.318 393.535 103 392.852 103.767C392.852 103.767 393.768 104.439 394.254 103.318Z" fill="#01AC79"/>
<path d="M454.178 132.978C446.412 134.096 439.366 135.012 434.424 138.267C429.873 141.266 427.086 145.298 427.086 149.733C427.086 154.664 430.114 159.938 436.013 162.163C440.97 164.033 448.776 167.865 454.178 166.487C460.954 164.756 466.977 164.994 471.7 162.51L469.508 160.91L454.207 149.733L478.855 151.095L481.164 151.223C481.233 150.734 481.27 150.237 481.27 149.736C481.27 144.988 478.077 140.703 472.949 137.653C468.08 134.757 461.447 131.933 454.178 132.978Z" fill="#FFE4CC"/>
<path d="M478.856 151.095L454.208 149.733L469.509 160.91C467.989 161.596 466.327 162.185 464.552 162.652C461.404 163.485 457.758 162.915 454.204 163.949C448.316 165.662 442.881 161.728 438.52 160.734C433.822 159.661 428.906 154.035 429.443 149.733C429.998 145.262 433.179 140.082 438.881 138.563C443.166 137.419 448.816 134.775 454.602 134.775C459.3 134.775 463.241 137.109 467.032 137.569C474.188 138.439 478.962 144.579 478.962 149.733C478.966 150.196 478.929 150.646 478.856 151.095Z" fill="#F77548"/>
<path d="M441.201 148.191C441.201 148.681 440.682 149.075 440.043 149.075C439.403 149.075 438.885 148.677 438.885 148.191C438.885 147.702 439.403 147.307 440.043 147.307C440.682 147.307 441.201 147.702 441.201 148.191Z" fill="#B5453C"/>
<path d="M448.242 143.936C448.242 144.425 447.723 144.82 447.084 144.82C446.444 144.82 445.926 144.422 445.926 143.936C445.926 143.446 446.444 143.052 447.084 143.052C447.723 143.052 448.242 143.446 448.242 143.936Z" fill="#B5453C"/>
<path d="M443.897 141.591C443.897 141.993 443.47 142.321 442.944 142.321C442.418 142.321 441.99 141.996 441.99 141.591C441.99 141.189 442.418 140.86 442.944 140.86C443.47 140.86 443.897 141.189 443.897 141.591Z" fill="#B5453C"/>
<path d="M452.526 139.783C452.526 140.232 452.051 140.597 451.463 140.597C450.875 140.597 450.4 140.232 450.4 139.783C450.4 139.333 450.875 138.968 451.463 138.968C452.051 138.968 452.526 139.333 452.526 139.783Z" fill="#B5453C"/>
<path d="M452.527 148.191C452.527 148.9 451.775 149.473 450.85 149.473C449.926 149.473 449.174 148.9 449.174 148.191C449.174 147.482 449.926 146.909 450.85 146.909C451.775 146.909 452.527 147.482 452.527 148.191Z" fill="#B5453C"/>
<path d="M456.173 143.508C456.173 143.998 455.655 144.392 455.015 144.392C454.376 144.392 453.857 143.994 453.857 143.508C453.857 143.019 454.376 142.624 455.015 142.624C455.655 142.621 456.173 143.019 456.173 143.508Z" fill="#B5453C"/>
<path d="M461.535 143.95C461.535 144.195 461.275 144.392 460.958 144.392C460.636 144.392 460.377 144.195 460.377 143.95C460.377 143.706 460.636 143.508 460.958 143.508C461.275 143.508 461.535 143.706 461.535 143.95Z" fill="#B5453C"/>
<path d="M459.101 140.151C459.101 140.396 458.842 140.593 458.52 140.593C458.199 140.593 457.943 140.396 457.943 140.151C457.943 139.907 458.203 139.709 458.52 139.709C458.842 139.709 459.101 139.907 459.101 140.151Z" fill="#B5453C"/>
<path d="M452.527 154.419C452.527 154.664 452.267 154.861 451.946 154.861C451.625 154.861 451.365 154.664 451.365 154.419C451.365 154.174 451.625 153.977 451.946 153.977C452.267 153.977 452.527 154.174 452.527 154.419Z" fill="#B5453C"/>
<path d="M456.494 156.431C456.494 156.676 456.235 156.873 455.913 156.873C455.592 156.873 455.336 156.676 455.336 156.431C455.336 156.187 455.595 155.99 455.913 155.99C456.231 155.99 456.494 156.187 456.494 156.431Z" fill="#B5453C"/>
<path d="M447.721 152.962C447.721 153.513 447.136 153.962 446.413 153.962C445.69 153.962 445.105 153.513 445.105 152.962C445.105 152.41 445.69 151.961 446.413 151.961C447.136 151.961 447.721 152.41 447.721 152.962Z" fill="#B5453C"/>
<path d="M440.215 153.21C440.215 153.21 439.356 152.775 438.523 153.648C438.523 153.648 439.608 154.521 440.215 153.21Z" fill="#01AC79"/>
<path d="M446.82 146.89C446.82 146.89 445.658 146.302 444.529 147.486C444.526 147.486 445.998 148.666 446.82 146.89Z" fill="#01AC79"/>
<path d="M459.347 143.523C459.347 143.523 458.149 143.53 457.199 145.232C457.199 145.232 458.774 145.649 459.347 143.523Z" fill="#01AC79"/>
<path d="M464.913 144.798C464.913 144.798 463.897 143.527 462.641 143.958C462.641 143.958 463.857 145.985 464.913 144.798Z" fill="#01AC79"/>
<path d="M455.998 148.428C455.998 148.428 455.431 146.748 454.387 146.222C454.387 146.222 454.978 148.622 455.998 148.428Z" fill="#01AC79"/>
<path d="M454.025 150.817C454.025 150.817 453.013 150.671 452.162 151.99C452.166 151.986 453.477 152.534 454.025 150.817Z" fill="#01AC79"/>
<path d="M454.976 158.324C454.976 158.324 454.146 157.162 453.076 157.421C453.08 157.421 454.062 159.237 454.976 158.324Z" fill="#01AC79"/>
<path d="M456.448 153.29C456.448 153.29 455.437 153.21 454.607 154.58C454.607 154.58 455.926 155.043 456.448 153.29Z" fill="#01AC79"/>
<path d="M451.815 144.005C451.815 144.005 450.829 143.552 449.887 144.59C449.887 144.59 451.14 145.536 451.815 144.005Z" fill="#01AC79"/>
<path d="M449.285 141.806C449.285 141.806 448.529 140.458 447.451 140.458C447.455 140.458 448.324 142.493 449.285 141.806Z" fill="#01AC79"/>
<path d="M441.781 154.317C440.641 154.894 440.071 156.059 440.513 156.91C440.845 157.549 441.576 157.414 442.405 157.063L442.825 157.874C442.884 157.988 443.052 158.017 443.205 157.94L444.012 157.531C444.162 157.454 444.239 157.301 444.18 157.188L443.764 156.38C444.527 155.935 444.999 155.471 444.655 154.81C444.21 153.962 442.916 153.74 441.781 154.317Z" fill="#EFABAB"/>
<path d="M463.398 139.465C464.326 139.936 464.793 140.886 464.431 141.58C464.161 142.102 463.566 141.989 462.89 141.704L462.547 142.365C462.499 142.456 462.36 142.482 462.24 142.42L461.582 142.088C461.462 142.025 461.4 141.901 461.447 141.81L461.787 141.152C461.166 140.791 460.779 140.411 461.06 139.874C461.418 139.176 462.47 138.994 463.398 139.465Z" fill="#EFABAB"/>
<path d="M450.154 150.708C451.081 151.179 451.545 152.129 451.187 152.823C450.917 153.345 450.322 153.232 449.646 152.947L449.303 153.608C449.255 153.699 449.116 153.725 448.996 153.663L448.338 153.33C448.218 153.268 448.156 153.144 448.203 153.053L448.543 152.395C447.922 152.034 447.535 151.654 447.816 151.117C448.174 150.419 449.226 150.236 450.154 150.708Z" fill="#EFABAB"/>
<path d="M442.303 143.516C441.375 143.987 440.911 144.937 441.269 145.631C441.54 146.153 442.135 146.04 442.811 145.755L443.154 146.416C443.202 146.507 443.34 146.533 443.461 146.471L444.118 146.138C444.239 146.076 444.301 145.952 444.254 145.861L443.914 145.203C444.535 144.842 444.922 144.462 444.641 143.925C444.283 143.227 443.231 143.045 442.303 143.516Z" fill="#EFABAB"/>
<path d="M482.702 149.689L461.429 148.516L458.525 146.898V148.355L475.13 160.486C480.142 157.852 483.506 154.054 484.112 149.769V148.312L482.702 149.689Z" fill="#FFE4CC"/>
<path d="M484.112 148.308C483.502 152.592 480.142 156.395 475.127 159.025L467.602 153.528L466.035 152.384L458.525 146.894L484.112 148.308Z" fill="#FF7D5A"/>
<path d="M467.038 149.514C467.038 150.003 466.52 150.398 465.881 150.398C465.241 150.398 464.723 149.999 464.723 149.514C464.723 149.024 465.241 148.63 465.881 148.63C466.52 148.63 467.038 149.024 467.038 149.514Z" fill="#B5453C"/>
<path d="M468.26 152.732C468.26 153.086 467.993 153.389 467.602 153.532L466.035 152.388C466.21 152.07 466.623 151.848 467.102 151.848C467.741 151.848 468.26 152.242 468.26 152.732Z" fill="#B5453C"/>
<path d="M472.404 152.932C472.404 153.177 472.145 153.374 471.827 153.374C471.505 153.374 471.246 153.177 471.246 152.932C471.246 152.688 471.505 152.49 471.827 152.49C472.145 152.49 472.404 152.688 472.404 152.932Z" fill="#B5453C"/>
<path d="M475.507 150.398C475.507 150.642 475.248 150.84 474.93 150.84C474.609 150.84 474.35 150.642 474.35 150.398C474.35 150.153 474.609 149.956 474.93 149.956C475.248 149.956 475.507 150.156 475.507 150.398Z" fill="#B5453C"/>
<path d="M469.627 149.733C469.627 149.977 469.368 150.175 469.05 150.175C468.732 150.175 468.473 149.977 468.473 149.733C468.473 149.488 468.732 149.291 469.05 149.291C469.368 149.291 469.627 149.488 469.627 149.733Z" fill="#B5453C"/>
<path d="M472.592 148.955C472.592 149.356 472.165 149.685 471.639 149.685C471.113 149.685 470.686 149.36 470.686 148.955C470.686 148.553 471.113 148.224 471.639 148.224C472.165 148.224 472.592 148.549 472.592 148.955Z" fill="#B5453C"/>
<path d="M471.637 151.322C471.637 151.596 471.348 151.815 470.99 151.815C470.632 151.815 470.344 151.596 470.344 151.322C470.344 151.048 470.632 150.829 470.99 150.829C471.348 150.829 471.637 151.051 471.637 151.322Z" fill="#B5453C"/>
<path d="M463.169 148.63C463.169 148.809 462.98 148.955 462.746 148.955C462.512 148.955 462.318 148.809 462.318 148.63C462.318 148.451 462.508 148.305 462.746 148.305C462.976 148.305 463.169 148.451 463.169 148.63Z" fill="#B5453C"/>
<path d="M468.078 149.795C468.078 149.795 467.245 149.799 466.588 150.982C466.588 150.982 467.68 151.271 468.078 149.795Z" fill="#01AC79"/>
<path d="M477.674 150.909C477.674 150.909 477.038 149.831 476.154 149.875C476.158 149.879 476.892 151.515 477.674 150.909Z" fill="#01AC79"/>
<path d="M470.106 152.724C470.106 152.724 469.456 151.687 468.572 151.789C468.572 151.789 469.332 153.378 470.106 152.724Z" fill="#01AC79"/>
<path d="M475.129 153.773C475.129 153.773 474.303 153.568 473.576 154.576C473.576 154.576 474.639 155.139 475.129 153.773Z" fill="#01AC79"/>
<path d="M462.369 147.632C462.369 147.632 461.65 147.315 460.967 148.082C460.967 148.082 461.884 148.757 462.369 147.632Z" fill="#01AC79"/>
<path d="M386.064 179.644C378.299 180.762 371.253 181.678 366.311 184.933C361.76 187.932 358.973 191.964 358.973 196.399C358.973 201.33 362.001 206.604 367.9 208.829C372.856 210.699 380.662 214.534 386.064 213.153C392.84 211.422 398.863 211.659 403.586 209.176L401.395 207.576L386.094 196.399L410.742 197.761L413.05 197.889C413.12 197.399 413.156 196.903 413.156 196.402C413.156 191.654 409.964 187.369 404.836 184.319C399.967 181.423 393.333 178.596 386.064 179.644Z" fill="#FFE4CC"/>
<path d="M410.742 197.761L386.094 196.399L401.395 207.576C399.876 208.262 398.214 208.851 396.438 209.318C393.29 210.151 389.644 209.581 386.09 210.615C380.202 212.328 374.767 208.394 370.406 207.4C365.708 206.327 360.796 200.701 361.329 196.399C361.884 191.928 365.066 186.748 370.767 185.229C375.052 184.085 380.703 181.441 386.489 181.441C391.186 181.441 395.127 183.775 398.919 184.235C406.074 185.105 410.848 191.245 410.848 196.399C410.852 196.859 410.815 197.312 410.742 197.761Z" fill="#F77548"/>
<path d="M373.087 194.857C373.087 195.347 372.569 195.741 371.929 195.741C371.29 195.741 370.771 195.343 370.771 194.857C370.771 194.368 371.29 193.973 371.929 193.973C372.569 193.97 373.087 194.368 373.087 194.857Z" fill="#B5453C"/>
<path d="M380.128 190.602C380.128 191.091 379.61 191.486 378.97 191.486C378.331 191.486 377.812 191.088 377.812 190.602C377.812 190.112 378.331 189.718 378.97 189.718C379.61 189.718 380.128 190.112 380.128 190.602Z" fill="#B5453C"/>
<path d="M375.784 188.257C375.784 188.659 375.356 188.987 374.83 188.987C374.304 188.987 373.877 188.662 373.877 188.257C373.877 187.855 374.304 187.526 374.83 187.526C375.356 187.526 375.784 187.851 375.784 188.257Z" fill="#B5453C"/>
<path d="M384.413 186.445C384.413 186.894 383.938 187.26 383.35 187.26C382.762 187.26 382.287 186.894 382.287 186.445C382.287 185.996 382.762 185.631 383.35 185.631C383.938 185.631 384.413 185.996 384.413 186.445Z" fill="#B5453C"/>
<path d="M384.416 194.857C384.416 195.566 383.663 196.139 382.739 196.139C381.815 196.139 381.062 195.566 381.062 194.857C381.062 194.149 381.815 193.575 382.739 193.575C383.663 193.575 384.416 194.149 384.416 194.857Z" fill="#B5453C"/>
<path d="M388.06 190.171C388.06 190.661 387.541 191.055 386.902 191.055C386.263 191.055 385.744 190.657 385.744 190.171C385.744 189.682 386.263 189.287 386.902 189.287C387.541 189.287 388.06 189.682 388.06 190.171Z" fill="#B5453C"/>
<path d="M393.423 190.613C393.423 190.858 393.164 191.055 392.842 191.055C392.521 191.055 392.262 190.858 392.262 190.613C392.262 190.368 392.521 190.171 392.842 190.171C393.164 190.171 393.423 190.372 393.423 190.613Z" fill="#B5453C"/>
<path d="M390.99 186.814C390.99 187.059 390.73 187.256 390.409 187.256C390.087 187.256 389.828 187.059 389.828 186.814C389.828 186.57 390.087 186.372 390.409 186.372C390.73 186.372 390.99 186.573 390.99 186.814Z" fill="#B5453C"/>
<path d="M384.416 201.081C384.416 201.326 384.156 201.523 383.839 201.523C383.517 201.523 383.258 201.326 383.258 201.081C383.258 200.837 383.517 200.639 383.839 200.639C384.156 200.639 384.416 200.837 384.416 201.081Z" fill="#B5453C"/>
<path d="M388.381 203.098C388.381 203.342 388.121 203.54 387.803 203.54C387.486 203.54 387.223 203.342 387.223 203.098C387.223 202.853 387.482 202.656 387.803 202.656C388.125 202.656 388.381 202.853 388.381 203.098Z" fill="#B5453C"/>
<path d="M379.608 199.624C379.608 200.176 379.023 200.625 378.3 200.625C377.577 200.625 376.992 200.176 376.992 199.624C376.992 199.073 377.577 198.623 378.3 198.623C379.023 198.623 379.608 199.073 379.608 199.624Z" fill="#B5453C"/>
<path d="M372.101 199.873C372.101 199.873 371.243 199.438 370.41 200.311C370.41 200.315 371.495 201.184 372.101 199.873Z" fill="#01AC79"/>
<path d="M378.706 193.553C378.706 193.553 377.545 192.965 376.416 194.149C376.412 194.149 377.884 195.332 378.706 193.553Z" fill="#01AC79"/>
<path d="M391.234 190.186C391.234 190.186 390.036 190.193 389.086 191.895C389.086 191.895 390.66 192.311 391.234 190.186Z" fill="#01AC79"/>
<path d="M396.799 191.464C396.799 191.464 395.784 190.193 394.527 190.624C394.527 190.624 395.744 192.651 396.799 191.464Z" fill="#01AC79"/>
<path d="M387.884 195.091C387.884 195.091 387.318 193.411 386.273 192.885C386.273 192.889 386.865 195.285 387.884 195.091Z" fill="#01AC79"/>
<path d="M385.912 197.48C385.912 197.48 384.9 197.334 384.049 198.652C384.052 198.652 385.364 199.2 385.912 197.48Z" fill="#01AC79"/>
<path d="M386.862 204.99C386.862 204.99 386.033 203.828 384.963 204.088C384.963 204.084 385.949 205.899 386.862 204.99Z" fill="#01AC79"/>
<path d="M388.333 199.953C388.333 199.953 387.321 199.872 386.492 201.242C386.492 201.242 387.811 201.706 388.333 199.953Z" fill="#01AC79"/>
<path d="M383.702 190.671C383.702 190.671 382.716 190.218 381.773 191.256C381.773 191.256 383.026 192.198 383.702 190.671Z" fill="#01AC79"/>
<path d="M381.172 188.469C381.172 188.469 380.415 187.121 379.338 187.121C379.342 187.125 380.211 189.159 381.172 188.469Z" fill="#01AC79"/>
<path d="M373.667 200.983C372.528 201.56 371.958 202.725 372.4 203.576C372.732 204.216 373.463 204.08 374.292 203.73L374.712 204.541C374.77 204.654 374.942 204.683 375.092 204.606L375.899 204.197C376.049 204.121 376.125 203.967 376.067 203.854L375.651 203.047C376.414 202.601 376.885 202.137 376.542 201.476C376.096 200.629 374.803 200.406 373.667 200.983Z" fill="#EFABAB"/>
<path d="M395.284 186.128C396.212 186.599 396.68 187.549 396.318 188.243C396.048 188.765 395.453 188.652 394.777 188.367L394.433 189.028C394.386 189.119 394.247 189.145 394.127 189.083L393.469 188.75C393.349 188.688 393.286 188.564 393.334 188.473L393.674 187.815C393.053 187.454 392.666 187.074 392.947 186.537C393.305 185.843 394.357 185.66 395.284 186.128Z" fill="#EFABAB"/>
<path d="M382.04 197.37C382.968 197.842 383.436 198.791 383.074 199.485C382.804 200.008 382.208 199.894 381.533 199.609L381.189 200.271C381.142 200.362 381.003 200.387 380.882 200.325L380.225 199.993C380.104 199.931 380.042 199.807 380.09 199.715L380.43 199.058C379.809 198.696 379.421 198.316 379.703 197.779C380.061 197.085 381.113 196.903 382.04 197.37Z" fill="#EFABAB"/>
<path d="M374.191 190.182C373.263 190.653 372.796 191.603 373.158 192.297C373.428 192.819 374.023 192.706 374.699 192.421L375.042 193.082C375.09 193.173 375.229 193.199 375.349 193.137L376.007 192.804C376.127 192.742 376.189 192.618 376.142 192.527L375.802 191.869C376.423 191.508 376.81 191.128 376.529 190.591C376.171 189.893 375.119 189.711 374.191 190.182Z" fill="#EFABAB"/>
<path d="M414.587 196.351L393.314 195.179L390.41 193.561V195.018L407.015 207.149C412.027 204.515 415.391 200.716 415.997 196.432V194.974L414.587 196.351Z" fill="#FFE4CC"/>
<path d="M415.997 194.974C415.387 199.259 412.027 203.061 407.012 205.691L399.487 200.194L397.92 199.051L390.41 193.561L415.997 194.974Z" fill="#FF7D5A"/>
<path d="M398.921 196.18C398.921 196.67 398.403 197.064 397.763 197.064C397.124 197.064 396.605 196.666 396.605 196.18C396.605 195.691 397.124 195.296 397.763 195.296C398.403 195.293 398.921 195.691 398.921 196.18Z" fill="#B5453C"/>
<path d="M400.146 199.394C400.146 199.749 399.88 200.052 399.489 200.194L397.922 199.051C398.097 198.733 398.51 198.514 398.988 198.514C399.628 198.511 400.146 198.909 400.146 199.394Z" fill="#B5453C"/>
<path d="M404.288 199.595C404.288 199.84 404.029 200.037 403.708 200.037C403.386 200.037 403.127 199.84 403.127 199.595C403.127 199.351 403.386 199.153 403.708 199.153C404.029 199.153 404.288 199.354 404.288 199.595Z" fill="#B5453C"/>
<path d="M407.392 197.064C407.392 197.309 407.133 197.506 406.815 197.506C406.497 197.506 406.234 197.309 406.234 197.064C406.234 196.819 406.494 196.622 406.815 196.622C407.137 196.622 407.392 196.819 407.392 197.064Z" fill="#B5453C"/>
<path d="M401.511 196.399C401.511 196.644 401.252 196.841 400.931 196.841C400.609 196.841 400.354 196.644 400.354 196.399C400.354 196.154 400.613 195.957 400.931 195.957C401.252 195.957 401.511 196.154 401.511 196.399Z" fill="#B5453C"/>
<path d="M404.477 195.617C404.477 196.019 404.05 196.348 403.524 196.348C402.998 196.348 402.57 196.023 402.57 195.617C402.57 195.216 402.998 194.887 403.524 194.887C404.05 194.891 404.477 195.216 404.477 195.617Z" fill="#B5453C"/>
<path d="M403.522 197.988C403.522 198.262 403.233 198.481 402.875 198.481C402.517 198.481 402.229 198.259 402.229 197.988C402.229 197.718 402.517 197.495 402.875 197.495C403.233 197.495 403.522 197.714 403.522 197.988Z" fill="#B5453C"/>
<path d="M395.054 195.293C395.054 195.472 394.865 195.618 394.631 195.618C394.397 195.618 394.207 195.472 394.207 195.293C394.207 195.114 394.397 194.968 394.631 194.968C394.861 194.968 395.054 195.114 395.054 195.293Z" fill="#B5453C"/>
<path d="M399.963 196.458C399.963 196.458 399.13 196.461 398.473 197.645C398.473 197.645 399.565 197.937 399.963 196.458Z" fill="#01AC79"/>
<path d="M409.559 197.576C409.559 197.576 408.923 196.498 408.039 196.542C408.043 196.542 408.777 198.178 409.559 197.576Z" fill="#01AC79"/>
<path d="M401.991 199.391C401.991 199.391 401.341 198.354 400.457 198.456C400.457 198.456 401.217 200.045 401.991 199.391Z" fill="#01AC79"/>
<path d="M407.013 200.439C407.013 200.439 406.188 200.235 405.461 201.243C405.461 201.243 406.524 201.805 407.013 200.439Z" fill="#01AC79"/>
<path d="M394.254 194.299C394.254 194.299 393.535 193.981 392.852 194.748C392.852 194.748 393.768 195.42 394.254 194.299Z" fill="#01AC79"/>
<path d="M500.28 302.969C500.28 302.969 496.901 304.587 495.963 306.615C495.024 308.642 491.229 307.941 489.534 309.234C487.839 310.523 486.1 314.391 481.469 314.344V315.191L483.335 315.914C483.335 315.914 495.926 312.408 497.654 311.042C499.381 309.672 503.491 306.125 503.491 306.125L504.068 303.079L500.28 302.969Z" fill="#FFE4CC"/>
<path d="M427.296 387.894H390.634C389.812 387.894 389.137 387.222 389.137 386.396C389.137 385.574 389.809 384.899 390.634 384.899H427.296C428.118 384.899 428.794 385.571 428.794 386.396C428.794 387.222 428.122 387.894 427.296 387.894Z" fill="#FCDBDB"/>
<path d="M427.296 380.884H390.634C389.812 380.884 389.137 380.212 389.137 379.387C389.137 378.565 389.809 377.889 390.634 377.889H427.296C428.118 377.889 428.794 378.561 428.794 379.387C428.794 380.212 428.122 380.884 427.296 380.884Z" fill="#FCDBDB"/>
<path d="M407.019 143.581H364.451C363.552 143.581 362.814 142.847 362.814 141.945C362.814 141.046 363.549 140.309 364.451 140.309H407.019C407.918 140.309 408.655 141.043 408.655 141.945C408.655 142.847 407.921 143.581 407.019 143.581Z" fill="#EFABAB"/>
<path d="M407.019 150.262H364.451C363.552 150.262 362.814 149.528 362.814 148.626C362.814 147.727 363.549 146.989 364.451 146.989H407.019C407.918 146.989 408.655 147.723 408.655 148.626C408.655 149.528 407.921 150.262 407.019 150.262Z" fill="#EFABAB"/>
<path d="M407.019 156.943H364.451C363.552 156.943 362.814 156.209 362.814 155.307C362.814 154.408 363.549 153.67 364.451 153.67H407.019C407.918 153.67 408.655 154.404 408.655 155.307C408.655 156.209 407.921 156.943 407.019 156.943Z" fill="#EFABAB"/>
<path d="M479.808 95.9029H437.24C436.341 95.9029 435.604 95.1687 435.604 94.2665C435.604 93.368 436.338 92.6301 437.24 92.6301H479.808C480.707 92.6301 481.445 93.3643 481.445 94.2665C481.441 95.1651 480.707 95.9029 479.808 95.9029Z" fill="#EFABAB"/>
<path d="M479.808 102.584H437.24C436.341 102.584 435.604 101.849 435.604 100.947C435.604 100.049 436.338 99.3108 437.24 99.3108H479.808C480.707 99.3108 481.445 100.045 481.445 100.947C481.441 101.846 480.707 102.584 479.808 102.584Z" fill="#EFABAB"/>
<path d="M479.808 109.264H437.24C436.341 109.264 435.604 108.53 435.604 107.628C435.604 106.729 436.338 105.991 437.24 105.991H479.808C480.707 105.991 481.445 106.726 481.445 107.628C481.441 108.526 480.707 109.264 479.808 109.264Z" fill="#EFABAB"/>
<path d="M479.808 190.697H437.24C436.341 190.697 435.604 189.963 435.604 189.061C435.604 188.162 436.338 187.424 437.24 187.424H479.808C480.707 187.424 481.445 188.158 481.445 189.061C481.441 189.963 480.707 190.697 479.808 190.697Z" fill="#EFABAB"/>
<path d="M479.808 197.378H437.24C436.341 197.378 435.604 196.644 435.604 195.741C435.604 194.843 436.338 194.105 437.24 194.105H479.808C480.707 194.105 481.445 194.839 481.445 195.741C481.441 196.64 480.707 197.378 479.808 197.378Z" fill="#EFABAB"/>
<path d="M479.808 204.059H437.24C436.341 204.059 435.604 203.324 435.604 202.422C435.604 201.524 436.338 200.786 437.24 200.786H479.808C480.707 200.786 481.445 201.52 481.445 202.422C481.441 203.321 480.707 204.059 479.808 204.059Z" fill="#EFABAB"/>
<path d="M596.224 195.741H555.464C548.758 195.741 543.271 190.255 543.271 183.549C543.271 176.843 548.758 171.356 555.464 171.356H596.224C602.931 171.356 608.417 176.843 608.417 183.549C608.417 190.255 602.931 195.741 596.224 195.741Z" fill="#EC2323"/>
<path d="M568.053 180.042C568.053 180.042 575.793 190.872 575.767 190.467C575.745 190.061 583.639 175.082 583.639 175.082L574.525 183.914L568.053 180.042Z" fill="white"/>
<path d="M447.167 329.137L421.007 335.467L412.857 331.979L438.225 326.124L447.167 329.137Z" fill="#FFFBF8"/>
<path d="M915.056 495.176H1.11772C0.504067 495.176 0 494.672 0 494.059V493.478C0 492.864 0.504067 492.36 1.11772 492.36H915.056C915.669 492.36 916.173 492.864 916.173 493.478V494.059C916.173 494.672 915.669 495.176 915.056 495.176Z" fill="#2E3552"/>
</svg>
