<svg width="272" height="272" viewBox="0 0 272 272" fill="none" xmlns="http://www.w3.org/2000/svg">
<g filter="url(#filter0_d_649_19183)">
<rect x="6" y="4" width="260" height="260" rx="8" fill="white"/>
</g>
<path d="M73.125 28.4707V33.8711H76.4941C78.3008 33.8711 79.3262 32.8945 79.3262 31.166C79.3262 29.4766 78.2324 28.4707 76.416 28.4707H73.125ZM73.125 35.4238V41H71.3672V26.9082H76.6504C79.3652 26.9082 81.1426 28.5684 81.1426 31.1074C81.1426 33.0703 80.0781 34.5938 78.3105 35.1504L81.5723 41H79.5117L76.4941 35.4238H73.125ZM87.168 32.1426C85.5762 32.1426 84.4629 33.3633 84.3555 35.0527H89.873C89.834 33.3535 88.7695 32.1426 87.168 32.1426ZM89.834 38.0898H91.5039C91.2109 39.8672 89.4922 41.1758 87.2754 41.1758C84.3652 41.1758 82.5977 39.1543 82.5977 35.9609C82.5977 32.8066 84.3945 30.668 87.1973 30.668C89.9414 30.668 91.6309 32.6602 91.6309 35.7363V36.3809H84.3457V36.4785C84.3457 38.4219 85.4883 39.7012 87.3145 39.7012C88.6035 39.7012 89.5508 39.0469 89.834 38.0898ZM93.1738 33.6465C93.1738 31.9082 94.7266 30.668 96.9629 30.668C99.0625 30.668 100.605 31.918 100.684 33.6367H99.0625C98.9453 32.6602 98.1543 32.0547 96.9043 32.0547C95.6641 32.0547 94.8438 32.6699 94.8438 33.5586C94.8438 34.2617 95.3809 34.7305 96.5332 35.0234L98.1055 35.4043C100.156 35.9219 100.898 36.6641 100.898 38.1582C100.898 39.9258 99.2285 41.1758 96.8555 41.1758C94.6289 41.1758 93.0762 39.9648 92.9004 38.168H94.5996C94.7852 39.2227 95.5859 39.7891 96.9629 39.7891C98.3398 39.7891 99.1895 39.2031 99.1895 38.2852C99.1895 37.5625 98.7695 37.1719 97.627 36.8691L95.8398 36.4102C94.0527 35.9512 93.1738 35.0332 93.1738 33.6465ZM106.738 32.1426C105.146 32.1426 104.033 33.3633 103.926 35.0527H109.443C109.404 33.3535 108.34 32.1426 106.738 32.1426ZM109.404 38.0898H111.074C110.781 39.8672 109.062 41.1758 106.846 41.1758C103.936 41.1758 102.168 39.1543 102.168 35.9609C102.168 32.8066 103.965 30.668 106.768 30.668C109.512 30.668 111.201 32.6602 111.201 35.7363V36.3809H103.916V36.4785C103.916 38.4219 105.059 39.7012 106.885 39.7012C108.174 39.7012 109.121 39.0469 109.404 38.0898ZM112.92 41V30.8438H114.521V32.5039H114.561C114.893 31.3809 115.83 30.668 117.021 30.668C117.314 30.668 117.568 30.7168 117.705 30.7363V32.3867C117.568 32.3379 117.207 32.2891 116.797 32.2891C115.479 32.2891 114.619 33.2363 114.619 34.6719V41H112.92ZM127.422 30.8438L123.691 41H121.953L118.213 30.8438H120L122.803 39.1934H122.842L125.654 30.8438H127.422ZM132.539 32.1426C130.947 32.1426 129.834 33.3633 129.727 35.0527H135.244C135.205 33.3535 134.141 32.1426 132.539 32.1426ZM135.205 38.0898H136.875C136.582 39.8672 134.863 41.1758 132.646 41.1758C129.736 41.1758 127.969 39.1543 127.969 35.9609C127.969 32.8066 129.766 30.668 132.568 30.668C135.312 30.668 137.002 32.6602 137.002 35.7363V36.3809H129.717V36.4785C129.717 38.4219 130.859 39.7012 132.686 39.7012C133.975 39.7012 134.922 39.0469 135.205 38.0898ZM150.273 39.7305C151.875 39.7305 153.105 38.6074 153.105 37.1426V36.3125L150.391 36.4785C149.023 36.5664 148.242 37.1719 148.242 38.1289C148.242 39.0957 149.053 39.7305 150.273 39.7305ZM149.893 41.1758C147.871 41.1758 146.514 39.9551 146.514 38.1289C146.514 36.3906 147.852 35.2969 150.195 35.1602L153.105 34.9941V34.1445C153.105 32.9043 152.285 32.1621 150.879 32.1621C149.57 32.1621 148.75 32.7773 148.535 33.7734H146.895C147.012 32.0156 148.516 30.668 150.918 30.668C153.301 30.668 154.805 31.957 154.805 33.9785V41H153.193V39.252H153.154C152.549 40.4141 151.26 41.1758 149.893 41.1758ZM161.611 28.3926H163.311V30.8438H165.283V32.2402H163.311V38.2754C163.311 39.2031 163.701 39.623 164.57 39.623C164.766 39.623 165.156 39.5938 165.273 39.5742V41C165.068 41.0488 164.6 41.0781 164.199 41.0781C162.334 41.0781 161.611 40.3164 161.611 38.3633V32.2402H160.098V30.8438H161.611V28.3926ZM170.254 39.7305C171.855 39.7305 173.086 38.6074 173.086 37.1426V36.3125L170.371 36.4785C169.004 36.5664 168.223 37.1719 168.223 38.1289C168.223 39.0957 169.033 39.7305 170.254 39.7305ZM169.873 41.1758C167.852 41.1758 166.494 39.9551 166.494 38.1289C166.494 36.3906 167.832 35.2969 170.176 35.1602L173.086 34.9941V34.1445C173.086 32.9043 172.266 32.1621 170.859 32.1621C169.551 32.1621 168.73 32.7773 168.516 33.7734H166.875C166.992 32.0156 168.496 30.668 170.898 30.668C173.281 30.668 174.785 31.957 174.785 33.9785V41H173.174V39.252H173.135C172.529 40.4141 171.24 41.1758 169.873 41.1758ZM181.992 41.1758C180.508 41.1758 179.346 40.4531 178.691 39.2812H178.652V41H177.031V26.9082H178.73V32.543H178.77C179.404 31.3809 180.586 30.668 182.021 30.668C184.58 30.668 186.309 32.7383 186.309 35.9219C186.309 39.1152 184.59 41.1758 181.992 41.1758ZM181.66 32.1621C179.941 32.1621 178.721 33.666 178.721 35.9219C178.721 38.1875 179.941 39.6816 181.66 39.6816C183.457 39.6816 184.57 38.2461 184.57 35.9219C184.57 33.6172 183.457 32.1621 181.66 32.1621ZM188.125 41V26.9082H189.824V41H188.125ZM196.191 32.1426C194.6 32.1426 193.486 33.3633 193.379 35.0527H198.896C198.857 33.3535 197.793 32.1426 196.191 32.1426ZM198.857 38.0898H200.527C200.234 39.8672 198.516 41.1758 196.299 41.1758C193.389 41.1758 191.621 39.1543 191.621 35.9609C191.621 32.8066 193.418 30.668 196.221 30.668C198.965 30.668 200.654 32.6602 200.654 35.7363V36.3809H193.369V36.4785C193.369 38.4219 194.512 39.7012 196.338 39.7012C197.627 39.7012 198.574 39.0469 198.857 38.0898Z" fill="#272727"/>
<g clip-path="url(#clip0_649_19183)">
<path d="M164.687 222.735L129.095 158.497C129.084 158.339 129.036 158.187 128.953 158.053C128.87 157.919 128.756 157.808 128.62 157.729C128.463 157.639 128.285 157.596 128.105 157.605C128.1 157.604 128.094 157.604 128.088 157.604C128.082 157.604 128.076 157.604 128.071 157.605C127.827 157.593 127.589 157.676 127.405 157.837C127.222 157.998 127.107 158.223 127.086 158.466L89.3628 222.735C89.2999 222.844 89.2591 222.964 89.2426 223.089C89.2262 223.214 89.2344 223.341 89.2669 223.462C89.2994 223.584 89.3555 223.698 89.432 223.797C89.5085 223.897 89.6039 223.981 89.7127 224.044C89.8216 224.107 89.9417 224.148 90.0663 224.164C90.1909 224.18 90.3175 224.172 90.4389 224.14C90.5603 224.107 90.6741 224.051 90.7738 223.974C90.8734 223.897 90.9571 223.802 91.0198 223.693L128.063 160.583L163.03 223.693C163.093 223.802 163.177 223.897 163.276 223.974C163.376 224.051 163.49 224.107 163.611 224.14C163.732 224.172 163.859 224.18 163.984 224.164C164.108 224.148 164.228 224.107 164.337 224.044C164.446 223.981 164.541 223.897 164.618 223.797C164.694 223.698 164.751 223.584 164.783 223.462C164.816 223.341 164.824 223.214 164.807 223.089C164.791 222.964 164.75 222.844 164.687 222.735Z" fill="#3F3D56"/>
<path d="M122.185 211.714L126.208 210.79L124.563 194.816L118.625 196.18L122.185 211.714Z" fill="#FFB6B6"/>
<path d="M125.299 203.997L119.574 205.312L117.743 201.731L117.64 201.604C116.828 200.606 116.377 199.362 116.361 198.075L111.602 185.475L111.213 185.289C110.912 185.146 110.645 184.94 110.43 184.685C110.215 184.43 110.056 184.133 109.965 183.812C109.874 183.491 109.853 183.154 109.902 182.824C109.952 182.494 110.071 182.178 110.252 181.898L109.748 180.564L95.5327 180.59L95.5185 180.586L78.0625 175.684L79.8954 164.747L84.8057 167.839C86.4237 167.734 114.141 166.03 116.701 172.248C118.982 177.786 122.267 187.246 124.622 194.206C124.74 194.519 124.886 194.82 125.058 195.106C125.425 195.671 125.64 196.32 125.683 196.992C125.711 197.285 125.766 197.574 125.849 197.856C126.828 200.785 125.337 203.92 125.322 203.951L125.299 203.997Z" fill="#2F2E41"/>
<path d="M120.828 210.378L122.136 210.078L126.766 206.826L129.98 208.276L129.98 208.276C131.527 207.921 133.151 208.196 134.496 209.039C135.841 209.883 136.795 211.227 137.15 212.775L137.194 212.965L122.21 216.406L120.828 210.378Z" fill="#2F2E41"/>
<path d="M61.4288 210.737C61.8378 206.28 64.4457 201.818 68.6284 200.237C67.1072 204.86 67.2684 209.872 69.0835 214.387C69.7898 216.126 70.7563 217.986 70.2019 219.779C69.857 220.895 68.9537 221.769 67.9306 222.331C66.9075 222.892 65.7613 223.181 64.6293 223.464L64.411 223.657C62.4703 219.625 61.0198 215.194 61.4288 210.737Z" fill="#F0F0F0"/>
<path d="M68.6748 200.319C66.3006 203.161 64.8812 206.679 64.6182 210.374C64.5475 211.169 64.6023 211.969 64.7806 212.747C64.9788 213.498 65.3744 214.183 65.9264 214.73C66.4308 215.25 67.0069 215.724 67.3763 216.358C67.5605 216.685 67.6735 217.048 67.708 217.422C67.7424 217.796 67.6975 218.173 67.5761 218.529C67.2966 219.422 66.7131 220.162 66.1173 220.866C65.4559 221.647 64.7564 222.448 64.4972 223.464C64.4658 223.587 64.2768 223.531 64.3082 223.408C64.7592 221.64 66.4254 220.591 67.1846 218.988C67.5389 218.24 67.6701 217.38 67.2909 216.615C66.9593 215.945 66.3656 215.457 65.8503 214.934C65.304 214.409 64.8946 213.757 64.6578 213.037C64.4405 212.271 64.355 211.474 64.4049 210.679C64.4887 208.889 64.8532 207.123 65.4851 205.446C66.1957 203.527 67.2288 201.745 68.5397 200.176C68.6209 200.079 68.7555 200.223 68.6748 200.319Z" fill="white"/>
<path d="M64.6323 209.18C64.019 209.052 63.4712 208.71 63.0868 208.214C62.7024 207.719 62.5064 207.103 62.5338 206.476C62.5351 206.451 62.5463 206.427 62.565 206.409C62.5837 206.392 62.6085 206.382 62.634 206.383C62.6596 206.383 62.6839 206.394 62.702 206.412C62.7201 206.43 62.7304 206.454 62.7308 206.48C62.7043 207.063 62.8869 207.637 63.2458 208.098C63.6047 208.558 64.1163 208.875 64.6881 208.991C64.8123 209.016 64.7559 209.205 64.6323 209.18Z" fill="white"/>
<path d="M65.6329 214.501C66.7109 213.808 67.4887 212.735 67.8112 211.494C67.843 211.371 68.032 211.427 68.0002 211.549C67.6622 212.84 66.8506 213.956 65.7271 214.674C65.62 214.742 65.5263 214.569 65.6329 214.501Z" fill="white"/>
<path d="M66.3835 203.709C66.6104 203.808 66.8585 203.849 67.1052 203.829C67.352 203.808 67.5899 203.727 67.7974 203.591C67.9036 203.522 67.9972 203.695 67.8916 203.765C67.6617 203.913 67.3989 204.003 67.1263 204.026C66.8536 204.049 66.5795 204.005 66.3277 203.898C66.3032 203.89 66.2826 203.873 66.2702 203.85C66.2578 203.827 66.2546 203.801 66.2611 203.776C66.2686 203.751 66.2857 203.73 66.3086 203.717C66.3315 203.705 66.3584 203.702 66.3835 203.709Z" fill="white"/>
<path d="M81.7721 207.752C81.707 207.797 81.6419 207.842 81.5768 207.889C80.7049 208.504 79.8844 209.189 79.1234 209.937C79.0636 209.994 79.0039 210.053 78.9459 210.111C77.1316 211.933 75.6708 214.075 74.6379 216.431C74.2277 217.368 73.8894 218.336 73.6259 219.325C73.262 220.691 72.9761 222.201 72.2054 223.333C72.1263 223.452 72.0399 223.566 71.9468 223.675L64.6613 223.909C64.6445 223.901 64.6277 223.895 64.6108 223.887L64.3203 223.91C64.3303 223.858 64.3419 223.804 64.3519 223.752C64.3576 223.722 64.3649 223.692 64.3706 223.662C64.3749 223.642 64.3793 223.621 64.382 223.603C64.3835 223.596 64.3849 223.59 64.3864 223.585C64.3891 223.566 64.3936 223.549 64.3964 223.533C64.46 223.232 64.5258 222.932 64.5938 222.632C64.5938 222.63 64.5938 222.63 64.5953 222.628C65.0917 220.335 65.858 218.108 66.8784 215.996C66.9097 215.933 66.9408 215.869 66.9755 215.806C67.4493 214.87 67.9988 213.974 68.6184 213.128C68.9591 212.666 69.323 212.221 69.7087 211.796C70.7074 210.698 71.8723 209.765 73.1607 209.03C75.7294 207.564 78.7376 206.938 81.5572 207.692C81.6293 207.711 81.6999 207.731 81.7721 207.752Z" fill="#F0F0F0"/>
<path d="M81.762 207.844C78.1573 208.682 74.9079 210.636 72.4755 213.428C71.9412 214.02 71.5035 214.692 71.1783 215.42C70.8844 216.14 70.7885 216.925 70.9003 217.694C70.9902 218.414 71.1653 219.139 71.0789 219.868C71.0292 220.24 70.9014 220.598 70.7039 220.917C70.5064 221.237 70.2437 221.511 69.9329 221.721C69.1724 222.266 68.2615 222.505 67.3626 222.708C66.3646 222.933 65.3244 223.151 64.5064 223.806C64.4073 223.885 64.2901 223.727 64.3891 223.648C65.8122 222.508 67.7736 222.675 69.3441 221.852C70.0769 221.468 70.6986 220.861 70.8562 220.021C70.9941 219.287 70.8141 218.539 70.7168 217.811C70.5967 217.062 70.6616 216.295 70.9059 215.578C71.1929 214.835 71.6041 214.147 72.1218 213.543C73.2656 212.164 74.6189 210.973 76.1321 210.015C77.8531 208.912 79.7499 208.111 81.7405 207.648C81.8638 207.62 81.8844 207.816 81.762 207.844Z" fill="white"/>
<path d="M73.2001 212.483C72.7876 212.011 72.5562 211.408 72.5471 210.78C72.5381 210.153 72.7521 209.543 73.1508 209.059C73.2319 208.962 73.3872 209.083 73.3061 209.181C72.9339 209.631 72.7347 210.199 72.7443 210.783C72.7539 211.367 72.9717 211.928 73.3584 212.366C73.4424 212.461 73.2836 212.578 73.2001 212.483Z" fill="white"/>
<path d="M70.8058 217.335C72.083 217.432 73.3497 217.044 74.3535 216.247C74.4529 216.168 74.5701 216.327 74.4709 216.406C73.4248 217.232 72.1057 217.634 70.7768 217.53C70.6502 217.52 70.6798 217.325 70.8058 217.335Z" fill="white"/>
<path d="M77.8952 209.17C78.0168 209.386 78.19 209.568 78.3994 209.7C78.6088 209.833 78.8478 209.911 79.0948 209.928C79.2215 209.936 79.1918 210.131 79.0659 210.123C78.793 210.103 78.5292 210.016 78.2975 209.87C78.0659 209.725 77.8734 209.524 77.7369 209.287C77.7221 209.266 77.7161 209.24 77.7199 209.214C77.7237 209.188 77.7371 209.165 77.7574 209.149C77.7784 209.134 77.8047 209.127 77.8305 209.131C77.8563 209.135 77.8795 209.149 77.8952 209.17Z" fill="white"/>
<path d="M180.625 210.737C180.216 206.28 177.608 201.818 173.426 200.237C174.947 204.86 174.786 209.872 172.97 214.387C172.264 216.126 171.298 217.986 171.852 219.779C172.197 220.895 173.1 221.769 174.123 222.331C175.147 222.892 176.293 223.181 177.425 223.464L177.643 223.657C179.584 219.625 181.034 215.194 180.625 210.737Z" fill="#F0F0F0"/>
<path d="M173.376 200.319C175.751 203.161 177.17 206.679 177.433 210.374C177.504 211.169 177.449 211.969 177.271 212.747C177.072 213.498 176.677 214.183 176.125 214.73C175.62 215.25 175.044 215.724 174.675 216.358C174.491 216.685 174.378 217.048 174.343 217.422C174.309 217.796 174.354 218.173 174.475 218.529C174.755 219.422 175.338 220.162 175.934 220.866C176.595 221.647 177.295 222.448 177.554 223.464C177.585 223.587 177.774 223.531 177.743 223.408C177.292 221.64 175.626 220.591 174.867 218.988C174.512 218.24 174.381 217.38 174.76 216.615C175.092 215.945 175.686 215.457 176.201 214.934C176.747 214.409 177.157 213.757 177.393 213.037C177.611 212.271 177.696 211.474 177.646 210.679C177.563 208.889 177.198 207.123 176.566 205.446C175.856 203.527 174.822 201.745 173.511 200.176C173.43 200.079 173.296 200.223 173.376 200.319Z" fill="white"/>
<path d="M177.422 209.18C178.036 209.052 178.583 208.71 178.968 208.214C179.352 207.719 179.548 207.103 179.521 206.476C179.519 206.451 179.508 206.427 179.49 206.409C179.471 206.392 179.446 206.382 179.421 206.383C179.395 206.383 179.371 206.394 179.353 206.412C179.335 206.43 179.324 206.454 179.324 206.48C179.35 207.063 179.168 207.637 178.809 208.098C178.45 208.558 177.938 208.875 177.367 208.991C177.242 209.016 177.299 209.206 177.422 209.18Z" fill="white"/>
<path d="M176.418 214.501C175.34 213.808 174.562 212.735 174.239 211.494C174.208 211.371 174.019 211.427 174.05 211.549C174.388 212.84 175.2 213.956 176.324 214.674C176.431 214.742 176.524 214.569 176.418 214.501Z" fill="white"/>
<path d="M175.672 203.709C175.445 203.808 175.197 203.849 174.95 203.829C174.703 203.808 174.465 203.727 174.258 203.591C174.152 203.522 174.058 203.695 174.163 203.765C174.393 203.913 174.656 204.003 174.929 204.026C175.201 204.049 175.476 204.005 175.727 203.898C175.752 203.89 175.773 203.873 175.785 203.85C175.797 203.827 175.801 203.801 175.794 203.776C175.787 203.751 175.769 203.73 175.747 203.717C175.724 203.705 175.697 203.702 175.672 203.709Z" fill="white"/>
<path d="M160.281 207.752C160.346 207.797 160.411 207.842 160.477 207.889C161.348 208.504 162.169 209.189 162.93 209.937C162.99 209.994 163.049 210.053 163.107 210.111C164.922 211.933 166.383 214.075 167.415 216.431C167.826 217.368 168.164 218.336 168.427 219.325C168.791 220.691 169.077 222.201 169.848 223.333C169.927 223.452 170.013 223.566 170.107 223.675L177.392 223.909C177.409 223.901 177.426 223.895 177.443 223.887L177.733 223.91C177.723 223.858 177.711 223.804 177.701 223.752C177.696 223.722 177.688 223.692 177.683 223.662C177.678 223.642 177.674 223.621 177.671 223.603C177.67 223.596 177.668 223.59 177.667 223.585C177.664 223.566 177.66 223.549 177.657 223.533C177.593 223.232 177.528 222.932 177.46 222.632C177.46 222.63 177.46 222.63 177.458 222.628C176.962 220.335 176.195 218.108 175.175 215.996C175.144 215.933 175.112 215.869 175.078 215.806C174.604 214.87 174.055 213.974 173.435 213.128C173.094 212.666 172.73 212.221 172.345 211.796C171.346 210.698 170.181 209.765 168.893 209.03C166.324 207.564 163.316 206.938 160.496 207.692C160.424 207.711 160.353 207.731 160.281 207.752Z" fill="#F0F0F0"/>
<path d="M160.293 207.844C163.898 208.682 167.147 210.636 169.579 213.428C170.114 214.02 170.552 214.692 170.877 215.42C171.171 216.14 171.267 216.925 171.155 217.694C171.065 218.413 170.89 219.139 170.976 219.868C171.026 220.24 171.154 220.598 171.351 220.917C171.549 221.237 171.811 221.511 172.122 221.721C172.883 222.266 173.793 222.505 174.692 222.708C175.69 222.933 176.731 223.151 177.549 223.806C177.648 223.885 177.765 223.727 177.666 223.648C176.243 222.508 174.281 222.675 172.711 221.852C171.978 221.468 171.356 220.861 171.199 220.021C171.061 219.287 171.241 218.539 171.338 217.811C171.458 217.062 171.393 216.295 171.149 215.578C170.862 214.835 170.451 214.147 169.933 213.543C168.789 212.164 167.436 210.973 165.923 210.015C164.202 208.912 162.305 208.111 160.314 207.648C160.191 207.62 160.171 207.816 160.293 207.844Z" fill="white"/>
<path d="M168.846 212.483C169.259 212.011 169.49 211.408 169.499 210.78C169.508 210.153 169.294 209.543 168.895 209.059C168.814 208.962 168.659 209.083 168.74 209.181C169.112 209.631 169.312 210.199 169.302 210.783C169.292 211.367 169.075 211.928 168.688 212.366C168.604 212.461 168.763 212.578 168.846 212.483Z" fill="white"/>
<path d="M171.25 217.335C169.972 217.432 168.706 217.044 167.702 216.247C167.603 216.168 167.485 216.327 167.585 216.406C168.631 217.232 169.95 217.634 171.279 217.53C171.405 217.52 171.376 217.325 171.25 217.335Z" fill="white"/>
<path d="M164.156 209.17C164.035 209.386 163.861 209.568 163.652 209.7C163.443 209.833 163.204 209.911 162.957 209.928C162.83 209.936 162.86 210.131 162.985 210.123C163.258 210.103 163.522 210.016 163.754 209.87C163.985 209.725 164.178 209.524 164.314 209.287C164.329 209.266 164.335 209.24 164.331 209.214C164.328 209.188 164.314 209.165 164.294 209.149C164.273 209.134 164.247 209.127 164.221 209.131C164.195 209.135 164.172 209.149 164.156 209.17Z" fill="white"/>
<path d="M231 224.265C231 224.332 230.973 224.396 230.926 224.444C230.878 224.491 230.814 224.518 230.747 224.518H41.253C41.1859 224.518 41.1215 224.492 41.0741 224.444C41.0267 224.397 41 224.332 41 224.265C41 224.198 41.0267 224.133 41.0741 224.086C41.1215 224.038 41.1859 224.012 41.253 224.012H230.747C230.814 224.012 230.878 224.039 230.926 224.086C230.973 224.134 231 224.198 231 224.265Z" fill="#3F3D56"/>
<path d="M163.058 126.293C163.587 126.293 164.015 125.865 164.015 125.336C164.015 124.807 163.587 124.378 163.058 124.378C162.53 124.378 162.102 124.807 162.102 125.336C162.102 125.865 162.53 126.293 163.058 126.293Z" fill="#3F3D56"/>
<path d="M151.076 132.712L163.974 124.601C164.09 124.527 164.221 124.478 164.357 124.457C164.493 124.435 164.632 124.442 164.766 124.475C164.899 124.509 165.025 124.57 165.134 124.653C165.244 124.737 165.335 124.842 165.403 124.962C165.471 125.082 165.514 125.214 165.529 125.351C165.545 125.488 165.532 125.627 165.493 125.759C165.453 125.891 165.387 126.014 165.298 126.12C165.21 126.226 165.101 126.312 164.978 126.375L151.399 133.284C151.324 133.323 151.237 133.331 151.156 133.306C151.075 133.282 151.006 133.227 150.965 133.153C150.923 133.08 150.911 132.993 150.932 132.911C150.953 132.829 151.004 132.758 151.076 132.712Z" fill="#E4E4E4"/>
<path d="M125.199 150.179C125.097 150.028 125.044 149.849 125.047 149.667C125.05 149.485 125.108 149.308 125.214 149.159C125.432 148.867 125.723 148.636 126.057 148.49C126.747 148.138 127.49 147.903 128.257 147.794C128.84 147.711 129.476 147.685 129.928 147.308C130.376 146.933 130.627 146.232 131.208 146.174C131.771 146.117 132.203 146.733 132.767 146.771C133.462 146.819 133.917 146.004 134.594 145.837C135.046 145.725 135.512 145.923 135.937 146.116L138.485 147.273L139.791 147.866C140.248 148.073 140.762 148.352 140.848 148.847C140.967 149.525 140.212 150.004 139.567 150.245C134.962 151.947 129.902 151.947 125.296 150.247" fill="#F50057"/>
<path d="M129.04 162.687C147.533 162.687 162.525 160.543 162.525 157.898C162.525 155.253 147.533 153.109 129.04 153.109C110.546 153.109 95.5547 155.253 95.5547 157.898C95.5547 160.543 110.546 162.687 129.04 162.687Z" fill="#3F3D56"/>
<path d="M196.968 187.587H174.007C172.95 187.587 172.094 188.444 172.094 189.502C172.094 190.56 172.95 191.418 174.007 191.418H196.968C198.025 191.418 198.882 190.56 198.882 189.502C198.882 188.444 198.025 187.587 196.968 187.587Z" fill="#3F3D56"/>
<path d="M208.095 153.437L200.511 189.5L202.486 198.731L206.215 216.15V223.98C206.216 223.991 206.215 224.001 206.213 224.012C206.212 224.185 206.18 224.356 206.12 224.519H203.122C203.062 224.356 203.03 224.185 203.029 224.012C203.027 224.001 203.026 223.991 203.026 223.98V216.487L199.642 200.676L198.957 197.483L197.633 191.297L197.25 189.505V189.502L197.628 187.706L197.92 186.321L204.974 152.782C205.017 152.576 205.1 152.381 205.218 152.208C205.336 152.035 205.487 151.887 205.662 151.772C205.838 151.657 206.034 151.578 206.24 151.539C206.446 151.5 206.657 151.503 206.862 151.546C207.067 151.589 207.262 151.672 207.435 151.79C207.608 151.909 207.756 152.06 207.87 152.236C207.985 152.411 208.063 152.608 208.102 152.814C208.141 153.02 208.138 153.232 208.095 153.437Z" fill="#3F3D56"/>
<path d="M175.603 189.502V223.98C175.604 223.991 175.603 224.001 175.601 224.012C175.6 224.185 175.568 224.357 175.507 224.519H172.51C172.449 224.357 172.418 224.185 172.416 224.012C172.414 224.001 172.414 223.991 172.414 223.98V189.502C172.414 189.079 172.582 188.673 172.881 188.374C173.18 188.074 173.586 187.906 174.009 187.906C174.432 187.906 174.837 188.074 175.136 188.374C175.435 188.673 175.603 189.079 175.603 189.502Z" fill="#3F3D56"/>
<path d="M177.834 183.756H193.142C194.664 183.756 196.124 184.361 197.201 185.439C198.277 186.517 198.882 187.978 198.882 189.502H172.094C172.094 187.978 172.699 186.517 173.775 185.439C174.852 184.361 176.312 183.756 177.834 183.756Z" fill="#3F3D56"/>
<path d="M200.797 200.676H174.009C173.586 200.676 173.18 200.508 172.881 200.208C172.582 199.909 172.414 199.503 172.414 199.08C172.414 198.656 172.582 198.25 172.881 197.951C173.18 197.652 173.586 197.483 174.009 197.483H200.797C201.22 197.483 201.625 197.652 201.924 197.951C202.223 198.25 202.391 198.656 202.391 199.08C202.391 199.503 202.223 199.909 201.924 200.208C201.625 200.508 201.22 200.676 200.797 200.676Z" fill="#3F3D56"/>
<path d="M76.1915 191.477H103.212C104.268 191.477 105.125 190.619 105.125 189.561V188.981C105.125 187.923 104.268 187.065 103.212 187.065H76.1915C75.1348 187.065 74.2781 187.923 74.2781 188.981V189.561C74.2781 190.619 75.1348 191.477 76.1915 191.477Z" fill="#3F3D56"/>
<path d="M75.9094 189.296L75.4204 191.314L73.626 198.703L72.8522 201.896L69.2591 216.704V223.129C69.26 223.444 69.1668 223.751 68.9913 224.012C68.8533 224.223 68.6657 224.397 68.4449 224.519H66.8843C66.6635 224.397 66.4759 224.223 66.338 224.012C66.1625 223.751 66.0691 223.444 66.07 223.129V216.321L70.0628 199.869L72.6396 189.245L63.9015 147.691C63.8583 147.486 63.8559 147.274 63.8944 147.068C63.9329 146.862 64.0116 146.666 64.126 146.49C64.2403 146.315 64.3882 146.163 64.561 146.045C64.7339 145.927 64.9283 145.844 65.1332 145.801C65.3382 145.758 65.5496 145.755 65.7553 145.794C65.9611 145.833 66.1573 145.912 66.3325 146.027C66.5078 146.141 66.6588 146.289 66.7768 146.463C66.8948 146.636 66.9776 146.83 67.0204 147.036L75.0973 185.436L75.4694 187.206L75.903 189.271L75.9094 189.296Z" fill="#3F3D56"/>
<path d="M104.517 189.271V223.129C104.518 223.444 104.425 223.752 104.249 224.013C104.111 224.224 103.924 224.398 103.703 224.519H102.14C101.921 224.397 101.734 224.223 101.596 224.013C101.42 223.752 101.327 223.444 101.328 223.129V189.271C101.328 188.848 101.496 188.442 101.795 188.142C102.094 187.843 102.5 187.675 102.923 187.675C103.346 187.675 103.751 187.843 104.05 188.142C104.349 188.442 104.517 188.848 104.517 189.271Z" fill="#3F3D56"/>
<path d="M105.125 189.271H74.2781V188.4C74.2781 187.645 74.4265 186.898 74.715 186.201C75.0035 185.504 75.4263 184.87 75.9594 184.337C76.4924 183.803 77.1252 183.38 77.8217 183.091C78.5181 182.802 79.2646 182.654 80.0184 182.654H99.3847C100.907 182.654 102.367 183.259 103.444 184.337C104.52 185.414 105.125 186.876 105.125 188.4L105.125 189.271Z" fill="#3F3D56"/>
<path d="M102.918 201.895H72.0711C71.6482 201.895 71.2426 201.726 70.9436 201.427C70.6446 201.128 70.4766 200.722 70.4766 200.298C70.4766 199.875 70.6446 199.469 70.9436 199.17C71.2426 198.87 71.6482 198.702 72.0711 198.702H102.918C103.341 198.702 103.747 198.87 104.046 199.17C104.345 199.469 104.513 199.875 104.513 200.298C104.513 200.722 104.345 201.128 104.046 201.427C103.747 201.726 103.341 201.895 102.918 201.895Z" fill="#3F3D56"/>
<path d="M142.562 215.819L139.211 214.214L143.814 200.191L148.761 202.559L142.562 215.819Z" fill="#9E616A"/>
<path d="M165.278 214.549L161.674 215.439L156.453 201.638L161.772 200.324L165.278 214.549Z" fill="#9E616A"/>
<path d="M151.467 154.869C151.945 155.646 152.707 156.205 153.591 156.427C154.476 156.649 155.412 156.516 156.2 156.057C156.358 155.961 156.508 155.852 156.649 155.731L167.244 161.818L166.784 155.57L156.793 150.748C156.249 150.201 155.54 149.85 154.776 149.751C154.012 149.651 153.236 149.808 152.571 150.197C152.188 150.428 151.854 150.732 151.591 151.093C151.327 151.454 151.138 151.865 151.035 152.3C150.932 152.735 150.918 153.187 150.992 153.628C151.066 154.069 151.227 154.491 151.467 154.869Z" fill="#9E616A"/>
<path d="M162.688 159.527L164.56 160.67L172.972 165.804C173.524 166.15 174.14 166.384 174.782 166.492C175.425 166.6 176.083 166.58 176.718 166.433C177.353 166.286 177.953 166.016 178.483 165.637C179.014 165.258 179.465 164.778 179.81 164.224C180.432 163.197 180.653 161.975 180.428 160.795L176.69 142.098C176.552 141.364 176.257 140.668 175.825 140.059C175.394 139.449 174.836 138.94 174.19 138.567C173.545 138.193 172.826 137.963 172.083 137.893C171.34 137.823 170.591 137.914 169.886 138.161C168.703 138.577 167.722 139.43 167.143 140.544C166.565 141.659 166.432 142.952 166.773 144.161L170.682 157.43L164.69 154.634L162.688 159.527Z" fill="#E6E6E6"/>
<path d="M158.259 210.681L152.492 199.104L152.493 199.077L153.062 177.842C153.069 177.654 153.085 177.464 153.108 177.277C153.208 176.426 153.477 175.603 153.899 174.856C154.32 174.11 154.886 173.455 155.563 172.93C156.211 172.422 156.954 172.049 157.748 171.831C158.542 171.614 159.372 171.557 160.188 171.664L176.677 173.8L177.249 171.459L177.356 171.42L193.155 165.624L193.246 165.772C195.315 169.143 196.762 175.875 197.156 177.858L197.162 177.887C197.17 177.929 197.175 177.954 197.177 177.961C197.99 181.345 194.629 186.951 191.281 187.794C184.229 189.593 177.922 188.19 170.619 186.564C168.001 185.981 165.294 185.379 162.313 184.858L162.402 186.614C162.474 187.966 162.755 189.298 163.234 190.565C163.765 192.123 164.185 193.354 163.297 195.92L162.868 197.162C163.09 197.778 163.167 198.438 163.092 199.089C163.016 199.74 162.791 200.365 162.433 200.914L162.347 201.046L166.15 210.679L158.259 210.681Z" fill="#2F2E41"/>
<path d="M148.783 205.561L141.906 204.921L144.342 197.122C144.845 192.029 146.112 187.041 148.1 182.327L151.423 174.443C151.431 174.268 151.446 174.091 151.467 173.918C151.568 173.067 151.836 172.244 152.258 171.498C152.679 170.751 153.245 170.096 153.922 169.571C154.571 169.064 155.314 168.69 156.108 168.473C156.902 168.256 157.731 168.199 158.547 168.305L175.012 170.438L175.729 164.413L191.533 162.296L191.606 162.414C194.368 166.913 196.122 170.435 197.125 173.498C197.175 173.655 197.22 173.814 197.258 173.973C198.077 177.38 196.033 180.834 192.701 181.673C184.211 183.839 174.001 183.779 160.577 181.482L154.081 196.959C153.46 198.437 152.691 199.849 151.786 201.172L148.783 205.561Z" fill="#2F2E41"/>
<path d="M172.77 127.43C177.17 127.43 180.736 123.781 180.736 119.279C180.736 114.777 177.17 111.127 172.77 111.127C168.371 111.127 164.805 114.777 164.805 119.279C164.805 123.781 168.371 127.43 172.77 127.43Z" fill="#9E616A"/>
<path d="M175.071 170.723L173.928 166.624L173.647 164.603L172.004 164.657L168.78 157.208L167.528 155.243C167.272 154.974 167.041 154.715 166.833 154.467C165.529 152.991 164.482 151.304 163.739 149.479C163.218 148.167 162.912 146.78 162.833 145.371C162.599 141.209 164.352 136.805 168.192 131.909C168.129 131.736 168.087 131.556 168.067 131.372C167.998 130.777 168.167 130.18 168.536 129.709C168.906 129.238 169.446 128.932 170.039 128.858L173.743 128.442C174.031 128.409 174.322 128.434 174.601 128.515C174.879 128.596 175.138 128.732 175.364 128.915C175.599 129.103 175.794 129.337 175.938 129.602C176.082 129.867 176.172 130.159 176.203 130.459C176.253 130.923 176.161 131.392 175.941 131.804C177.829 132.044 179.607 132.824 181.063 134.05C182.519 135.276 183.591 136.897 184.15 138.718C186.366 142.859 188.132 147.226 189.418 151.744C189.672 152.629 189.559 153.541 189.45 154.423C189.349 155.237 189.245 156.08 189.42 156.919C189.598 157.773 190.027 158.629 190.482 159.536C191.002 160.575 191.54 161.649 191.685 162.743L191.696 162.82L175.071 170.723Z" fill="#E4E4E4"/>
<path opacity="0.2" d="M163.836 149.438C164.576 151.252 165.617 152.929 166.914 154.398C167.136 154.663 167.37 154.924 167.616 155.185L168.876 157.165C173.521 153.679 177.284 139.956 177.284 139.956L172.043 138.936L163.836 149.438Z" fill="black"/>
<path d="M160.661 128.191C161.119 128.98 161.253 129.918 161.032 130.803C160.811 131.689 160.254 132.454 159.478 132.935C159.319 133.03 159.152 133.112 158.979 133.18L159.35 145.403L154.062 142.071L154.521 130.974C154.296 130.236 154.321 129.444 154.594 128.721C154.866 127.999 155.369 127.387 156.025 126.981C156.407 126.75 156.832 126.597 157.274 126.533C157.716 126.469 158.166 126.493 158.598 126.606C159.03 126.719 159.435 126.917 159.79 127.19C160.144 127.462 160.44 127.802 160.661 128.191Z" fill="#9E616A"/>
<path d="M159.815 140.79L154 141.618L154.25 153.672C154.265 154.532 154.498 155.374 154.93 156.118C155.361 156.862 155.975 157.484 156.713 157.923C157.616 158.454 158.666 158.678 159.706 158.56C160.746 158.441 161.72 157.988 162.48 157.268L176.209 144.049C177.175 143.131 177.753 141.878 177.824 140.547C177.896 139.216 177.455 137.909 176.593 136.893C176.166 136.388 175.642 135.973 175.052 135.674C174.462 135.375 173.818 135.197 173.159 135.152C172.499 135.107 171.837 135.195 171.212 135.411C170.587 135.626 170.011 135.966 169.52 136.408C169.384 136.53 169.255 136.659 169.133 136.794L160.068 147.234L159.815 140.79Z" fill="#E6E6E6"/>
<path d="M111.18 219.419L115.308 219.419L117.271 203.481L111.18 203.482L111.18 219.419Z" fill="#FFB6B6"/>
<path d="M87.7849 127.666C92.3347 127.666 96.023 123.974 96.023 119.419C96.023 114.865 92.3347 111.173 87.7849 111.173C83.2352 111.173 79.5469 114.865 79.5469 119.419C79.5469 123.974 83.2352 127.666 87.7849 127.666Z" fill="#FFB6B6"/>
<path d="M116.656 214.51H110.811L109.321 212.51L108.917 210.626L108.57 210.29C108.099 209.837 107.795 209.239 107.706 208.592C107.617 207.944 107.75 207.286 108.082 206.723L103.845 186.938C102.736 186.841 90.224 185.721 81.5266 184.18C79.3007 183.786 77.5629 182.703 76.3613 180.961C73.4087 176.681 74.6735 169.755 74.6866 169.686L74.7012 169.609L74.7792 169.6L95.0945 167.317L95.1219 167.33C95.796 167.65 111.663 175.19 114.256 177.786C115.426 178.958 118.039 185.922 118.623 193.325C118.728 194.651 118.351 196.002 117.987 197.308C117.646 198.53 117.293 199.794 117.363 200.989C117.47 202.832 117.572 204.766 117.665 206.736C117.68 207.05 117.917 207.375 118.145 207.689C118.384 208.018 118.609 208.328 118.624 208.652C118.763 211.799 116.708 214.443 116.688 214.469L116.656 214.51Z" fill="#2F2E41"/>
<path d="M117.985 141.385C117.543 141.264 117.079 141.241 116.627 141.319C116.175 141.396 115.745 141.572 115.368 141.834C114.991 142.096 114.676 142.438 114.446 142.835C114.215 143.231 114.074 143.674 114.032 144.132L107.188 146.273L107.473 150.754L117.097 147.594C117.869 147.613 118.621 147.347 119.211 146.848C119.801 146.349 120.187 145.65 120.296 144.885C120.406 144.119 120.231 143.34 119.805 142.695C119.379 142.05 118.732 141.584 117.985 141.385Z" fill="#FFB6B6"/>
<path d="M113.521 148.8L108.405 150.739L108.274 150.993C107.96 151.602 107.418 152.061 106.766 152.27C106.114 152.479 105.406 152.419 104.797 152.105L93.2988 156.462C93.2988 156.462 88.1638 151.318 84.5078 146.727L85.7538 139.055C86.0424 137.275 86.6558 135.564 87.5633 134.006C95.061 135.652 99.3649 146.144 99.3649 146.144L112.878 143.563L113.521 148.8Z" fill="#F50057"/>
<path d="M86.6187 127.226C84.5563 127.783 82.2826 127.042 80.6731 125.636C79.0636 124.23 78.0568 122.237 77.4767 120.179C77.0518 118.671 76.8504 116.998 77.5208 115.583C78.1913 114.168 79.9957 113.213 81.3879 113.928C80.5291 112.927 80.9581 111.27 81.9611 110.413C82.9641 109.556 84.3414 109.311 85.6531 109.176C87.5568 108.981 89.5232 108.96 91.3347 109.577C93.1462 110.194 94.7921 111.544 95.3591 113.374C95.9381 113.644 96.5902 113.714 97.2133 113.573C97.8363 113.432 98.3951 113.088 98.8022 112.596C98.9071 113.162 98.8228 113.746 98.5623 114.259C98.3018 114.773 97.8797 115.185 97.3612 115.434L100.137 114.533C100.614 115.545 99.7777 116.797 98.7081 117.121C97.6385 117.444 96.4839 117.09 95.4689 116.622C94.4539 116.155 93.4703 115.563 92.3678 115.38C91.2653 115.198 89.9703 115.553 89.4603 116.548C89.1932 117.069 89.1793 117.68 89.0242 118.245C88.8691 118.81 88.4763 119.395 87.8928 119.442C87.5242 119.471 87.1633 119.274 86.7957 119.315C86.34 119.364 85.9912 119.778 85.8698 120.22C85.7783 120.671 85.7772 121.136 85.8665 121.587L86.5715 126.982" fill="#2F2E41"/>
<path d="M76.4124 181.946C76.4109 181.946 76.4093 181.946 76.4078 181.945L76.3426 181.934L76.3238 181.871C76.0869 181.073 75.7856 180.257 75.4941 179.468C75.0648 178.374 74.7024 177.256 74.4087 176.119C74.1776 175.031 74.0174 173.93 73.9291 172.822C73.8477 172.017 73.7637 171.185 73.6207 170.366C73.5572 170.003 73.7978 169.658 74.0305 169.325C74.2462 169.016 74.45 168.725 74.4072 168.449C74.3635 168.167 74.0509 167.857 73.7486 167.557C73.4173 167.229 73.0747 166.889 73.0261 166.531C72.3658 161.653 72.0584 156.734 72.1064 151.812C72.1747 145.001 72.4822 140.359 73.0203 138.014C74.4672 131.709 81.1521 130.558 82.1985 130.416C82.3099 130.119 82.4813 129.848 82.7019 129.62C82.9225 129.392 83.1876 129.212 83.4807 129.091C83.7738 128.97 84.0887 128.91 84.4057 128.916C84.7227 128.922 85.0351 128.994 85.3234 129.126L90.0731 131.303C91.0366 131.746 91.8988 132.382 92.606 133.173C93.3133 133.964 93.8506 134.892 94.1844 135.899L94.89 138.052L95.2435 152.507L93.2849 162.686L97.1117 168.433C76.7159 179.642 76.4781 181.946 76.4124 181.946Z" fill="#F50057"/>
<path d="M108.961 217.813L110.303 217.813L115.542 215.68L118.35 217.812H118.351C119.938 217.812 121.46 218.443 122.582 219.567C123.704 220.69 124.334 222.214 124.335 223.802V223.997L108.961 223.997L108.961 217.813Z" fill="#2F2E41"/>
<path d="M119.703 151.7C119.307 151.467 118.865 151.325 118.408 151.281C117.952 151.238 117.491 151.296 117.059 151.45C116.627 151.605 116.234 151.852 115.908 152.175C115.581 152.498 115.33 152.889 115.171 153.319L108.005 153.599L107.039 156.94L117.226 157.462C117.967 157.682 118.762 157.622 119.462 157.294C120.161 156.966 120.716 156.392 121.021 155.682C121.327 154.972 121.361 154.174 121.118 153.44C120.875 152.706 120.371 152.087 119.703 151.7Z" fill="#FFB6B6"/>
<path d="M113.814 157.823L106.453 157.731L105.522 157.718L90.5456 157.529C90.5456 157.529 86.4787 153.645 82.9375 149.647L83.4338 146.053C83.918 142.526 85.6658 139.295 88.3519 136.962C93.4238 140.354 96.3651 147.07 96.3651 147.07L101.297 149.279C104.767 149.434 108.149 150.426 111.156 152.169L112.777 153.109L113.814 157.823Z" fill="#F50057"/>
<path d="M167.905 221.346L165.456 221.951L164.448 219.744L163.899 222.336L157.404 223.94C157.092 224.017 156.764 223.993 156.468 223.87C156.172 223.747 155.922 223.533 155.756 223.258C155.59 222.983 155.516 222.663 155.545 222.343C155.574 222.023 155.704 221.721 155.917 221.481L160.22 216.613L159.643 214.273L165.18 213.251L167.905 221.346Z" fill="#2F2E41"/>
<path d="M141.958 222.103L139.623 221.149L140.106 218.771L138.138 220.542L131.944 218.011C131.647 217.89 131.396 217.677 131.229 217.403C131.061 217.129 130.986 216.809 131.013 216.489C131.041 216.169 131.169 215.866 131.381 215.625C131.592 215.383 131.875 215.216 132.188 215.147L138.53 213.748L139.44 211.517L144.516 213.954L141.958 222.103Z" fill="#2F2E41"/>
<path d="M133.822 157.046H131.908C129.851 157.044 127.879 156.225 126.424 154.769C124.969 153.312 124.151 151.338 124.148 149.278V149.172H141.582V149.278C141.58 151.338 140.761 153.312 139.307 154.769C137.852 156.225 135.879 157.044 133.822 157.046Z" fill="#E4E4E4"/>
<path d="M131.913 146.406C131.913 146.935 130.957 147.364 130.957 147.364C130.957 147.364 130 146.935 130 146.406C130 145.877 130.957 145.448 130.957 145.448C130.957 145.448 131.913 145.877 131.913 146.406Z" fill="#3F3D56"/>
<path d="M137.656 146.406C137.656 146.935 136.699 147.364 136.699 147.364C136.699 147.364 135.742 146.935 135.742 146.406C135.742 145.877 136.699 145.448 136.699 145.448C136.699 145.448 137.656 145.877 137.656 146.406Z" fill="#3F3D56"/>
<path d="M133.827 148.321C133.827 148.85 132.871 149.279 132.871 149.279C132.871 149.279 131.914 148.85 131.914 148.321C131.914 147.792 132.871 147.363 132.871 147.363C132.871 147.363 133.827 147.792 133.827 148.321Z" fill="#3F3D56"/>
<path d="M127.129 144.384C127.657 144.384 128.085 143.955 128.085 143.426C128.085 142.898 127.657 142.469 127.129 142.469C126.6 142.469 126.172 142.898 126.172 143.426C126.172 143.955 126.6 144.384 127.129 144.384Z" fill="#3F3D56"/>
<path d="M113.217 141.368L128.306 143.454C128.443 143.473 128.574 143.52 128.692 143.591C128.81 143.662 128.913 143.756 128.994 143.868C129.074 143.98 129.132 144.107 129.162 144.241C129.192 144.376 129.195 144.515 129.17 144.651C129.145 144.787 129.093 144.916 129.016 145.031C128.94 145.145 128.841 145.244 128.726 145.319C128.611 145.395 128.481 145.446 128.346 145.47C128.21 145.495 128.071 145.491 127.937 145.46L113.098 142.015C113.016 141.996 112.944 141.945 112.898 141.875C112.851 141.804 112.834 141.718 112.849 141.635C112.865 141.551 112.911 141.477 112.98 141.428C113.049 141.378 113.134 141.357 113.217 141.368Z" fill="#E4E4E4"/>
<path d="M131.551 93.7767V65H129.637V93.7767C127.023 94.0155 124.592 95.2238 122.822 97.1646C121.052 99.1053 120.071 101.638 120.07 104.266V107.139H126.767C126.767 108.155 127.171 109.13 127.888 109.848C128.606 110.567 129.579 110.97 130.594 110.97C131.609 110.97 132.583 110.567 133.3 109.848C134.018 109.13 134.421 108.155 134.421 107.139H141.118V104.266C141.118 101.638 140.136 99.1053 138.366 97.1646C136.596 95.2238 134.165 94.0155 131.551 93.7767Z" fill="#F0F0F0"/>
<path d="M156.189 86.5825V65H154.754V86.5825C152.793 86.7616 150.97 87.6679 149.642 89.1234C148.315 90.579 147.578 92.4787 147.578 94.4496V96.6045H152.601C152.601 97.3665 152.903 98.0973 153.442 98.6361C153.98 99.1749 154.71 99.4776 155.471 99.4776C156.232 99.4776 156.962 99.1749 157.501 98.6361C158.039 98.0973 158.341 97.3665 158.341 96.6045H163.364V94.4496C163.364 92.4787 162.628 90.579 161.3 89.1234C159.972 87.6679 158.149 86.7616 156.189 86.5825Z" fill="#F0F0F0"/>
<path d="M107.712 86.5825V65H106.277V86.5825C104.316 86.7616 102.493 87.6679 101.166 89.1234C99.8379 90.579 99.1018 92.4787 99.1016 94.4496V96.6045H104.124C104.124 97.3665 104.427 98.0973 104.965 98.6361C105.503 99.1749 106.233 99.4776 106.994 99.4776C107.756 99.4776 108.486 99.1749 109.024 98.6361C109.562 98.0973 109.865 97.3665 109.865 96.6045H114.887V94.4496C114.887 92.4787 114.151 90.579 112.823 89.1234C111.496 87.6679 109.673 86.7616 107.712 86.5825Z" fill="#F0F0F0"/>
<path d="M194.085 115.743C192.731 114.162 192.087 112.065 191.005 110.27C189.923 108.475 188.039 106.869 186.049 107.287C184.677 107.574 183.617 108.786 183.08 110.137C182.544 111.488 182.443 112.978 182.349 114.437C182.382 111.438 180.408 108.53 177.689 107.573C174.97 106.616 171.716 107.684 170.007 110.093C169.262 109.402 168.289 109.008 167.272 108.986C166.256 108.965 165.267 109.318 164.493 109.978C162.965 111.345 162.626 113.947 163.75 115.692C164.874 117.436 167.308 118.085 169.095 117.118L169.726 117.7C169.371 118.944 170.06 120.414 171.219 120.883C172.158 121.262 173.485 121.199 173.836 122.186C174.082 122.876 173.623 123.612 173.134 124.142C172.646 124.672 172.066 125.219 172.007 125.953C171.918 127.059 173.061 127.835 174.099 128.068C176.603 128.631 179.381 127.47 180.825 125.258C180.852 125.216 180.883 125.173 180.915 125.13C181.725 124.094 182.315 122.903 182.649 121.63C182.984 120.358 183.056 119.03 182.86 117.729C182.779 117.218 182.861 116.837 183.213 116.716C184.735 116.193 188.999 117.291 190.29 118.284C191.58 119.277 192.614 120.591 193.857 121.647C195.1 122.704 196.684 123.519 198.262 123.231C199.526 123.001 200.602 122.082 201.325 120.974C202.048 119.866 202.464 118.574 202.837 117.291C200.042 118.907 196.216 118.231 194.085 115.743Z" fill="#2F2E41"/>
</g>
<defs>
<filter id="filter0_d_649_19183" x="0" y="0" width="272" height="272" filterUnits="userSpaceOnUse" color-interpolation-filters="sRGB">
<feFlood flood-opacity="0" result="BackgroundImageFix"/>
<feColorMatrix in="SourceAlpha" type="matrix" values="0 0 0 0 0 0 0 0 0 0 0 0 0 0 0 0 0 0 127 0" result="hardAlpha"/>
<feOffset dy="2"/>
<feGaussianBlur stdDeviation="3"/>
<feComposite in2="hardAlpha" operator="out"/>
<feColorMatrix type="matrix" values="0 0 0 0 0 0 0 0 0 0 0 0 0 0 0 0 0 0 0.08 0"/>
<feBlend mode="normal" in2="BackgroundImageFix" result="effect1_dropShadow_649_19183"/>
<feBlend mode="normal" in="SourceGraphic" in2="effect1_dropShadow_649_19183" result="shape"/>
</filter>
<clipPath id="clip0_649_19183">
<rect width="190" height="159.519" fill="white" transform="translate(41 65)"/>
</clipPath>
</defs>
</svg>
