<svg width="272" height="272" viewBox="0 0 272 272" fill="none" xmlns="http://www.w3.org/2000/svg">
<g filter="url(#filter0_d_649_19390)">
<rect x="6" y="4" width="260" height="260" rx="8" fill="white"/>
<path d="M47.125 24.4707V29.8711H50.4941C52.3008 29.8711 53.3262 28.8945 53.3262 27.166C53.3262 25.4766 52.2324 24.4707 50.416 24.4707H47.125ZM47.125 31.4238V37H45.3672V22.9082H50.6504C53.3652 22.9082 55.1426 24.5684 55.1426 27.1074C55.1426 29.0703 54.0781 30.5938 52.3105 31.1504L55.5723 37H53.5117L50.4941 31.4238H47.125ZM61.168 28.1426C59.5762 28.1426 58.4629 29.3633 58.3555 31.0527H63.873C63.834 29.3535 62.7695 28.1426 61.168 28.1426ZM63.834 34.0898H65.5039C65.2109 35.8672 63.4922 37.1758 61.2754 37.1758C58.3652 37.1758 56.5977 35.1543 56.5977 31.9609C56.5977 28.8066 58.3945 26.668 61.1973 26.668C63.9414 26.668 65.6309 28.6602 65.6309 31.7363V32.3809H58.3457V32.4785C58.3457 34.4219 59.4883 35.7012 61.3145 35.7012C62.6035 35.7012 63.5508 35.0469 63.834 34.0898ZM67.1738 29.6465C67.1738 27.9082 68.7266 26.668 70.9629 26.668C73.0625 26.668 74.6055 27.918 74.6836 29.6367H73.0625C72.9453 28.6602 72.1543 28.0547 70.9043 28.0547C69.6641 28.0547 68.8438 28.6699 68.8438 29.5586C68.8438 30.2617 69.3809 30.7305 70.5332 31.0234L72.1055 31.4043C74.1562 31.9219 74.8984 32.6641 74.8984 34.1582C74.8984 35.9258 73.2285 37.1758 70.8555 37.1758C68.6289 37.1758 67.0762 35.9648 66.9004 34.168H68.5996C68.7852 35.2227 69.5859 35.7891 70.9629 35.7891C72.3398 35.7891 73.1895 35.2031 73.1895 34.2852C73.1895 33.5625 72.7695 33.1719 71.627 32.8691L69.8398 32.4102C68.0527 31.9512 67.1738 31.0332 67.1738 29.6465ZM80.7383 28.1426C79.1465 28.1426 78.0332 29.3633 77.9258 31.0527H83.4434C83.4043 29.3535 82.3398 28.1426 80.7383 28.1426ZM83.4043 34.0898H85.0742C84.7812 35.8672 83.0625 37.1758 80.8457 37.1758C77.9355 37.1758 76.168 35.1543 76.168 31.9609C76.168 28.8066 77.9648 26.668 80.7676 26.668C83.5117 26.668 85.2012 28.6602 85.2012 31.7363V32.3809H77.916V32.4785C77.916 34.4219 79.0586 35.7012 80.8848 35.7012C82.1738 35.7012 83.1211 35.0469 83.4043 34.0898ZM86.9199 37V26.8438H88.5215V28.5039H88.5605C88.8926 27.3809 89.8301 26.668 91.0215 26.668C91.3145 26.668 91.5684 26.7168 91.7051 26.7363V28.3867C91.5684 28.3379 91.207 28.2891 90.7969 28.2891C89.4785 28.2891 88.6191 29.2363 88.6191 30.6719V37H86.9199ZM101.422 26.8438L97.6914 37H95.9531L92.2129 26.8438H94L96.8027 35.1934H96.8418L99.6543 26.8438H101.422ZM106.539 28.1426C104.947 28.1426 103.834 29.3633 103.727 31.0527H109.244C109.205 29.3535 108.141 28.1426 106.539 28.1426ZM109.205 34.0898H110.875C110.582 35.8672 108.863 37.1758 106.646 37.1758C103.736 37.1758 101.969 35.1543 101.969 31.9609C101.969 28.8066 103.766 26.668 106.568 26.668C109.312 26.668 111.002 28.6602 111.002 31.7363V32.3809H103.717V32.4785C103.717 34.4219 104.859 35.7012 106.686 35.7012C107.975 35.7012 108.922 35.0469 109.205 34.0898ZM120.172 35.7305C121.773 35.7305 123.004 34.6074 123.004 33.1426V32.3125L120.289 32.4785C118.922 32.5664 118.141 33.1719 118.141 34.1289C118.141 35.0957 118.951 35.7305 120.172 35.7305ZM119.791 37.1758C117.77 37.1758 116.412 35.9551 116.412 34.1289C116.412 32.3906 117.75 31.2969 120.094 31.1602L123.004 30.9941V30.1445C123.004 28.9043 122.184 28.1621 120.777 28.1621C119.469 28.1621 118.648 28.7773 118.434 29.7734H116.793C116.91 28.0156 118.414 26.668 120.816 26.668C123.199 26.668 124.703 27.957 124.703 29.9785V37H123.092V35.252H123.053C122.447 36.4141 121.158 37.1758 119.791 37.1758ZM126.949 37V22.9082H128.648V37H126.949ZM131.031 37V22.9082H132.73V37H131.031ZM143.229 37V26.8438H144.83V28.5039H144.869C145.201 27.3809 146.139 26.668 147.33 26.668C147.623 26.668 147.877 26.7168 148.014 26.7363V28.3867C147.877 28.3379 147.516 28.2891 147.105 28.2891C145.787 28.2891 144.928 29.2363 144.928 30.6719V37H143.229ZM152.984 28.1426C151.393 28.1426 150.279 29.3633 150.172 31.0527H155.689C155.65 29.3535 154.586 28.1426 152.984 28.1426ZM155.65 34.0898H157.32C157.027 35.8672 155.309 37.1758 153.092 37.1758C150.182 37.1758 148.414 35.1543 148.414 31.9609C148.414 28.8066 150.211 26.668 153.014 26.668C155.758 26.668 157.447 28.6602 157.447 31.7363V32.3809H150.162V32.4785C150.162 34.4219 151.305 35.7012 153.131 35.7012C154.42 35.7012 155.367 35.0469 155.65 34.0898ZM158.99 29.6465C158.99 27.9082 160.543 26.668 162.779 26.668C164.879 26.668 166.422 27.918 166.5 29.6367H164.879C164.762 28.6602 163.971 28.0547 162.721 28.0547C161.48 28.0547 160.66 28.6699 160.66 29.5586C160.66 30.2617 161.197 30.7305 162.35 31.0234L163.922 31.4043C165.973 31.9219 166.715 32.6641 166.715 34.1582C166.715 35.9258 165.045 37.1758 162.672 37.1758C160.445 37.1758 158.893 35.9648 158.717 34.168H160.416C160.602 35.2227 161.402 35.7891 162.779 35.7891C164.156 35.7891 165.006 35.2031 165.006 34.2852C165.006 33.5625 164.586 33.1719 163.443 32.8691L161.656 32.4102C159.869 31.9512 158.99 31.0332 158.99 29.6465ZM169.029 24.3926H170.729V26.8438H172.701V28.2402H170.729V34.2754C170.729 35.2031 171.119 35.623 171.988 35.623C172.184 35.623 172.574 35.5938 172.691 35.5742V37C172.486 37.0488 172.018 37.0781 171.617 37.0781C169.752 37.0781 169.029 36.3164 169.029 34.3633V28.2402H167.516V26.8438H169.029V24.3926ZM177.672 35.7305C179.273 35.7305 180.504 34.6074 180.504 33.1426V32.3125L177.789 32.4785C176.422 32.5664 175.641 33.1719 175.641 34.1289C175.641 35.0957 176.451 35.7305 177.672 35.7305ZM177.291 37.1758C175.27 37.1758 173.912 35.9551 173.912 34.1289C173.912 32.3906 175.25 31.2969 177.594 31.1602L180.504 30.9941V30.1445C180.504 28.9043 179.684 28.1621 178.277 28.1621C176.969 28.1621 176.148 28.7773 175.934 29.7734H174.293C174.41 28.0156 175.914 26.668 178.316 26.668C180.699 26.668 182.203 27.957 182.203 29.9785V37H180.592V35.252H180.553C179.947 36.4141 178.658 37.1758 177.291 37.1758ZM192.701 26.8438V37H191.09V35.3496H191.051C190.445 36.5215 189.391 37.1758 187.828 37.1758C185.611 37.1758 184.312 35.7402 184.312 33.4355V26.8438H186.012V33.1328C186.012 34.7832 186.783 35.6719 188.355 35.6719C190.006 35.6719 191.002 34.5391 191.002 32.8105V26.8438H192.701ZM194.908 37V26.8438H196.51V28.5039H196.549C196.881 27.3809 197.818 26.668 199.01 26.668C199.303 26.668 199.557 26.7168 199.693 26.7363V28.3867C199.557 28.3379 199.195 28.2891 198.785 28.2891C197.467 28.2891 196.607 29.2363 196.607 30.6719V37H194.908ZM204.234 35.7305C205.836 35.7305 207.066 34.6074 207.066 33.1426V32.3125L204.352 32.4785C202.984 32.5664 202.203 33.1719 202.203 34.1289C202.203 35.0957 203.014 35.7305 204.234 35.7305ZM203.854 37.1758C201.832 37.1758 200.475 35.9551 200.475 34.1289C200.475 32.3906 201.812 31.2969 204.156 31.1602L207.066 30.9941V30.1445C207.066 28.9043 206.246 28.1621 204.84 28.1621C203.531 28.1621 202.711 28.7773 202.496 29.7734H200.855C200.973 28.0156 202.477 26.668 204.879 26.668C207.262 26.668 208.766 27.957 208.766 29.9785V37H207.154V35.252H207.115C206.51 36.4141 205.221 37.1758 203.854 37.1758ZM210.924 37V26.8438H212.525V28.4648H212.564C213.131 27.3711 214.215 26.668 215.787 26.668C218.014 26.668 219.303 28.1035 219.303 30.4082V37H217.604V30.7109C217.604 29.0703 216.832 28.1719 215.27 28.1719C213.668 28.1719 212.623 29.3047 212.623 31.0234V37H210.924ZM222.018 24.3926H223.717V26.8438H225.689V28.2402H223.717V34.2754C223.717 35.2031 224.107 35.623 224.977 35.623C225.172 35.623 225.562 35.5938 225.68 35.5742V37C225.475 37.0488 225.006 37.0781 224.605 37.0781C222.74 37.0781 222.018 36.3164 222.018 34.3633V28.2402H220.504V26.8438H222.018V24.3926Z" fill="#272727"/>
<g clip-path="url(#clip0_649_19390)">
<rect x="41" y="90" width="190" height="130" rx="8" fill="#454545"/>
<path d="M135.996 125.653C139.64 125.653 143.248 126.37 146.614 127.762C149.981 129.155 153.039 131.196 155.616 133.768C158.192 136.341 160.236 139.395 161.631 142.757C163.025 146.118 163.743 149.721 163.743 153.359V219.741H108.25V153.359C108.25 149.721 108.968 146.118 110.362 142.757C111.756 139.395 113.8 136.341 116.377 133.768C118.953 131.196 122.012 129.155 125.378 127.762C128.745 126.37 132.353 125.653 135.996 125.653Z" fill="#E6E6E6"/>
<path d="M126.374 158.963H121.391V175.474H126.374V158.963Z" fill="white"/>
<path d="M144.269 176.831H127.734V191.758H144.269V176.831Z" fill="white"/>
<path d="M144.269 158.963H127.734V175.474H144.269V158.963Z" fill="white"/>
<path d="M145.625 157.607H150.608V157.267C150.61 155.19 150.166 153.136 149.307 151.244C148.447 149.352 147.192 147.666 145.625 146.299V157.607Z" fill="white"/>
<path d="M127.734 157.606H144.269V145.24C141.838 143.568 138.954 142.675 136.002 142.679C133.049 142.675 130.166 143.568 127.734 145.241V157.606Z" fill="white"/>
<path d="M126.374 176.831H121.391V188.14C121.391 189.099 121.772 190.02 122.452 190.698C123.132 191.377 124.053 191.758 125.015 191.758H126.374V176.831Z" fill="white"/>
<path d="M145.625 176.831V191.758H146.984C147.945 191.758 148.867 191.377 149.547 190.698C150.226 190.02 150.608 189.099 150.608 188.14V176.831H145.625Z" fill="white"/>
<path d="M126.374 157.607V146.299C124.807 147.666 123.552 149.352 122.692 151.244C121.833 153.136 121.389 155.19 121.391 157.267V157.607H126.374Z" fill="white"/>
<path d="M150.608 158.963H145.625V175.474H150.608V158.963Z" fill="white"/>
<path d="M159.78 180.902C161.407 180.902 162.725 179.586 162.725 177.962C162.725 176.338 161.407 175.021 159.78 175.021C158.154 175.021 156.836 176.338 156.836 177.962C156.836 179.586 158.154 180.902 159.78 180.902Z" fill="#8F8DAD"/>
<path d="M66.9501 149.743H63.0391V162.702H66.9501V149.743Z" fill="#F2F2F2"/>
<path d="M80.9932 149.743H68.0156V162.702H80.9932V149.743Z" fill="#F2F2F2"/>
<path d="M85.9736 149.743H82.0625V162.702H85.9736V149.743Z" fill="#F2F2F2"/>
<path d="M82.0625 148.678H85.9736V148.412C85.975 146.781 85.6267 145.169 84.952 143.684C84.2774 142.199 83.2921 140.876 82.0625 139.803V148.678Z" fill="#F2F2F2"/>
<path d="M80.9932 163.767H68.0156V175.483H80.9932V163.767Z" fill="#F2F2F2"/>
<path d="M66.9501 163.767H63.0391V172.642C63.0391 173.396 63.3387 174.118 63.8722 174.651C64.4056 175.183 65.1291 175.483 65.8835 175.483H66.9501L66.9501 163.767Z" fill="#F2F2F2"/>
<path d="M82.0625 163.767V175.483H83.1291C83.5027 175.483 83.8726 175.409 84.2177 175.266C84.5628 175.124 84.8763 174.915 85.1405 174.651C85.4046 174.387 85.6141 174.074 85.757 173.729C85.9 173.385 85.9736 173.015 85.9735 172.642V163.767H82.0625Z" fill="#F2F2F2"/>
<path d="M66.9501 148.678V139.803C65.7205 140.876 64.7352 142.199 64.0606 143.684C63.386 145.169 63.0377 146.781 63.0391 148.412V148.678H66.9501Z" fill="#F2F2F2"/>
<path d="M68.0156 148.678H80.9932V138.973C79.0849 137.66 76.8216 136.959 74.5044 136.962C72.1872 136.959 69.9239 137.66 68.0156 138.973V148.678Z" fill="#F2F2F2"/>
<path d="M91.0849 176.899H58.0187C57.8066 176.899 57.6033 176.814 57.4533 176.665C57.3033 176.515 57.219 176.312 57.2188 176.1V173.97C57.219 173.758 57.3033 173.555 57.4533 173.405C57.6033 173.255 57.8066 173.171 58.0187 173.171H91.0849C91.297 173.171 91.5003 173.255 91.6503 173.405C91.8003 173.555 91.8846 173.758 91.8849 173.97V176.1C91.8846 176.312 91.8003 176.515 91.6503 176.665C91.5003 176.814 91.297 176.899 91.0849 176.899Z" fill="#E6E6E6"/>
<path d="M189.942 149.743H186.031V162.702H189.942V149.743Z" fill="#F2F2F2"/>
<path d="M203.985 149.743H191.008V162.702H203.985V149.743Z" fill="#F2F2F2"/>
<path d="M208.966 149.743H205.055V162.702H208.966V149.743Z" fill="#F2F2F2"/>
<path d="M205.055 148.678H208.966V148.412C208.967 146.781 208.619 145.169 207.944 143.684C207.27 142.199 206.284 140.876 205.055 139.803V148.678Z" fill="#F2F2F2"/>
<path d="M203.985 163.767H191.008V175.483H203.985V163.767Z" fill="#F2F2F2"/>
<path d="M189.942 163.767H186.031V172.642C186.031 173.396 186.331 174.118 186.864 174.651C187.398 175.183 188.121 175.483 188.876 175.483H189.942L189.942 163.767Z" fill="#F2F2F2"/>
<path d="M205.055 163.767V175.483H206.121C206.495 175.483 206.865 175.409 207.21 175.266C207.555 175.124 207.869 174.915 208.133 174.651C208.397 174.387 208.606 174.074 208.749 173.729C208.892 173.385 208.966 173.015 208.966 172.642V163.767H205.055Z" fill="#F2F2F2"/>
<path d="M189.942 148.678V139.803C188.713 140.876 187.727 142.199 187.053 143.684C186.378 145.169 186.03 146.781 186.031 148.412V148.678H189.942Z" fill="#F2F2F2"/>
<path d="M191.008 148.678H203.985V138.973C202.077 137.66 199.814 136.959 197.497 136.962C195.179 136.959 192.916 137.66 191.008 138.973V148.678Z" fill="#F2F2F2"/>
<path d="M214.069 176.899H181.003C180.791 176.899 180.588 176.814 180.438 176.665C180.288 176.515 180.203 176.312 180.203 176.1V173.97C180.203 173.758 180.288 173.555 180.438 173.405C180.588 173.255 180.791 173.171 181.003 173.171H214.069C214.281 173.171 214.485 173.255 214.635 173.405C214.785 173.555 214.869 173.758 214.869 173.97V176.1C214.869 176.312 214.785 176.515 214.635 176.665C214.485 176.814 214.281 176.899 214.069 176.899Z" fill="#E6E6E6"/>
<path d="M223.88 219.967H48.1151C46.1335 219.965 44.2336 219.178 42.8323 217.778C41.4311 216.379 40.6429 214.482 40.6406 212.503V98.7381C40.6429 96.7593 41.4311 94.8622 42.8323 93.463C44.2336 92.0637 46.1335 91.2766 48.1151 91.2744H223.88C225.861 91.2766 227.761 92.0637 229.162 93.463C230.564 94.8622 231.352 96.7593 231.354 98.7381V212.503C231.352 214.482 230.564 216.379 229.162 217.778C227.761 219.178 225.861 219.965 223.88 219.967ZM48.1151 91.7268C46.2536 91.7289 44.4688 92.4682 43.1525 93.7827C41.8362 95.0971 41.0957 96.8792 41.0936 98.7381V212.503C41.0957 214.362 41.8362 216.144 43.1525 217.459C44.4688 218.773 46.2536 219.512 48.1151 219.515H223.88C225.741 219.512 227.526 218.773 228.842 217.459C230.159 216.144 230.899 214.362 230.901 212.503V98.7381C230.899 96.8792 230.159 95.0971 228.842 93.7827C227.526 92.4682 225.741 91.7289 223.88 91.7268H48.1151Z" fill="#CCCCCC"/>
<path d="M43.4855 106.15C41.6039 106.148 39.7917 105.44 38.4093 104.165C37.0268 102.891 36.1754 101.143 36.0242 99.2705C35.8731 97.3977 36.4332 95.5367 37.5934 94.0574C38.7535 92.5781 40.4287 91.589 42.2858 91.2867L134.144 61.1489C135.338 60.9519 136.556 60.9504 137.75 61.1445L229.73 91.2917C231.689 91.6143 233.439 92.7002 234.596 94.3108C235.753 95.9213 236.223 97.9247 235.902 99.8808C235.581 101.837 234.495 103.586 232.883 104.743C231.272 105.9 229.266 106.371 227.306 106.052C226.316 105.911 136.814 93.1498 135.998 93.1163C135.185 93.1498 45.5969 105.923 44.692 106.052C44.2931 106.117 43.8896 106.15 43.4855 106.15Z" fill="#F50057"/>
<path d="M106.625 104.312C106.635 104.312 106.672 104.318 106.734 104.328C106.797 104.339 106.865 104.349 106.938 104.359C107.01 104.359 107.078 104.365 107.141 104.375C107.214 104.385 107.255 104.391 107.266 104.391C107.318 104.391 107.396 104.401 107.5 104.422C107.604 104.432 107.656 104.49 107.656 104.594V105.969C107.833 105.927 108.036 105.833 108.266 105.688C108.495 105.531 108.766 105.375 109.078 105.219C109.391 105.062 109.74 104.932 110.125 104.828C110.51 104.724 110.953 104.698 111.453 104.75C112.224 104.906 112.781 105.094 113.125 105.312C113.469 105.521 113.651 105.755 113.672 106.016C113.693 106.266 113.583 106.536 113.344 106.828C113.115 107.12 112.807 107.422 112.422 107.734C112.036 108.036 111.604 108.339 111.125 108.641C110.656 108.943 110.193 109.24 109.734 109.531C109.286 109.812 108.875 110.078 108.5 110.328C108.125 110.578 107.844 110.802 107.656 111C107.823 111.073 108.062 111.193 108.375 111.359C108.698 111.516 109.047 111.693 109.422 111.891C109.807 112.078 110.203 112.281 110.609 112.5C111.026 112.719 111.417 112.922 111.781 113.109C112.146 113.286 112.474 113.448 112.766 113.594C113.057 113.729 113.266 113.818 113.391 113.859C113.495 113.911 113.594 113.958 113.688 114C113.76 114.052 113.828 114.099 113.891 114.141C113.964 114.182 114 114.224 114 114.266C114 114.307 113.984 114.365 113.953 114.438C113.932 114.51 113.896 114.578 113.844 114.641C113.792 114.703 113.734 114.76 113.672 114.812C113.62 114.854 113.568 114.875 113.516 114.875C113.495 114.875 113.469 114.875 113.438 114.875C113.417 114.865 113.401 114.859 113.391 114.859C113.37 114.849 113.297 114.818 113.172 114.766C113.057 114.703 112.932 114.635 112.797 114.562C112.672 114.49 112.547 114.427 112.422 114.375C112.307 114.312 112.234 114.276 112.203 114.266C112.089 114.224 111.901 114.146 111.641 114.031C111.391 113.906 111.104 113.771 110.781 113.625C110.469 113.469 110.135 113.302 109.781 113.125C109.427 112.948 109.089 112.781 108.766 112.625C108.453 112.469 108.167 112.333 107.906 112.219C107.656 112.104 107.474 112.036 107.359 112.016V116.797H106.656L106.625 104.312ZM107.656 107C107.635 107.188 107.615 107.406 107.594 107.656C107.573 107.906 107.547 108.167 107.516 108.438C107.495 108.708 107.474 108.979 107.453 109.25C107.443 109.521 107.438 109.771 107.438 110C107.479 109.948 107.625 109.859 107.875 109.734C108.125 109.609 108.427 109.453 108.781 109.266C109.135 109.078 109.516 108.87 109.922 108.641C110.339 108.411 110.729 108.177 111.094 107.938C111.458 107.688 111.776 107.443 112.047 107.203C112.328 106.964 112.505 106.745 112.578 106.547C112.661 106.339 112.62 106.151 112.453 105.984C112.297 105.818 111.964 105.688 111.453 105.594C111.172 105.573 110.849 105.589 110.484 105.641C110.13 105.693 109.771 105.781 109.406 105.906C109.052 106.031 108.719 106.188 108.406 106.375C108.094 106.552 107.844 106.76 107.656 107ZM114.922 113.625C114.87 113.635 114.792 113.651 114.688 113.672C114.583 113.693 114.474 113.698 114.359 113.688C114.245 113.677 114.146 113.646 114.062 113.594C113.969 113.542 113.922 113.453 113.922 113.328C113.922 113.255 113.938 113.203 113.969 113.172C114 113.141 114.052 113.094 114.125 113.031C114.354 112.844 114.547 112.604 114.703 112.312C114.87 112.01 115.021 111.693 115.156 111.359C115.292 111.016 115.432 110.677 115.578 110.344C115.734 110 115.911 109.693 116.109 109.422C116.307 109.151 116.552 108.932 116.844 108.766C117.135 108.599 117.495 108.521 117.922 108.531C118.099 108.531 118.297 108.573 118.516 108.656C118.734 108.74 118.938 108.854 119.125 109C119.312 109.135 119.469 109.302 119.594 109.5C119.719 109.698 119.781 109.917 119.781 110.156C119.833 110.24 119.781 110.359 119.625 110.516C119.479 110.672 119.276 110.844 119.016 111.031C118.755 111.208 118.458 111.396 118.125 111.594C117.802 111.781 117.49 111.958 117.188 112.125C116.885 112.292 116.62 112.438 116.391 112.562C116.161 112.688 116.01 112.781 115.938 112.844C115.885 112.948 115.844 113.068 115.812 113.203C115.781 113.339 115.755 113.469 115.734 113.594C115.724 113.708 115.714 113.818 115.703 113.922C115.703 114.016 115.703 114.089 115.703 114.141C115.703 114.339 115.693 114.557 115.672 114.797C115.661 115.036 115.672 115.266 115.703 115.484C115.745 115.693 115.833 115.87 115.969 116.016C116.104 116.151 116.333 116.219 116.656 116.219C117 116.219 117.323 116.135 117.625 115.969C117.927 115.792 118.208 115.578 118.469 115.328C118.729 115.078 118.964 114.807 119.172 114.516C119.391 114.224 119.583 113.953 119.75 113.703C119.927 113.443 120.083 113.229 120.219 113.062C120.354 112.896 120.469 112.812 120.562 112.812C120.667 112.812 120.776 112.833 120.891 112.875C121.016 112.906 121.078 112.99 121.078 113.125C121.078 113.312 121 113.536 120.844 113.797C120.698 114.057 120.5 114.333 120.25 114.625C120.01 114.917 119.729 115.208 119.406 115.5C119.094 115.781 118.776 116.036 118.453 116.266C118.13 116.484 117.812 116.667 117.5 116.812C117.188 116.948 116.911 117.016 116.672 117.016C116.203 117.016 115.849 116.901 115.609 116.672C115.37 116.443 115.198 116.156 115.094 115.812C115 115.469 114.948 115.104 114.938 114.719C114.938 114.323 114.932 113.958 114.922 113.625ZM117.797 109.406C117.62 109.406 117.432 109.495 117.234 109.672C117.036 109.839 116.849 110.047 116.672 110.297C116.505 110.536 116.365 110.786 116.25 111.047C116.146 111.297 116.094 111.505 116.094 111.672C116.25 111.672 116.474 111.615 116.766 111.5C117.068 111.375 117.365 111.224 117.656 111.047C117.948 110.87 118.203 110.682 118.422 110.484C118.641 110.286 118.75 110.099 118.75 109.922C118.75 109.828 118.714 109.75 118.641 109.688C118.568 109.625 118.479 109.573 118.375 109.531C118.281 109.49 118.182 109.458 118.078 109.438C117.974 109.417 117.88 109.406 117.797 109.406ZM123.094 116.766C123.094 116.776 123.203 116.714 123.422 116.578C123.651 116.443 123.917 116.266 124.219 116.047C124.531 115.818 124.849 115.573 125.172 115.312C125.495 115.042 125.76 114.786 125.969 114.547C126.177 114.307 126.286 114.104 126.297 113.938C126.318 113.76 126.177 113.646 125.875 113.594C125.5 113.542 125.182 113.547 124.922 113.609C124.672 113.672 124.443 113.745 124.234 113.828C124.026 113.911 123.828 113.99 123.641 114.062C123.464 114.135 123.266 114.161 123.047 114.141C122.589 114.141 122.271 114 122.094 113.719C121.927 113.427 121.844 113.036 121.844 112.547C121.844 112.057 121.953 111.594 122.172 111.156C122.391 110.708 122.672 110.323 123.016 110C123.359 109.677 123.755 109.422 124.203 109.234C124.651 109.036 125.109 108.938 125.578 108.938C125.766 108.938 125.927 108.953 126.062 108.984C126.198 109.016 126.266 109.135 126.266 109.344C126.266 109.49 126.203 109.63 126.078 109.766C125.953 109.891 125.812 109.953 125.656 109.953C125.646 109.953 125.62 109.948 125.578 109.938C125.536 109.917 125.495 109.891 125.453 109.859C125.411 109.828 125.37 109.807 125.328 109.797C125.286 109.776 125.26 109.766 125.25 109.766C124.917 109.672 124.594 109.719 124.281 109.906C123.969 110.094 123.688 110.349 123.438 110.672C123.198 110.984 123.005 111.328 122.859 111.703C122.714 112.068 122.641 112.396 122.641 112.688C122.641 112.802 122.661 112.896 122.703 112.969C122.755 113.031 122.818 113.078 122.891 113.109C122.974 113.141 123.062 113.161 123.156 113.172C123.26 113.172 123.365 113.172 123.469 113.172C123.677 113.172 123.885 113.141 124.094 113.078C124.312 113.016 124.521 112.943 124.719 112.859C124.927 112.776 125.135 112.703 125.344 112.641C125.562 112.578 125.786 112.547 126.016 112.547C126.12 112.547 126.234 112.578 126.359 112.641C126.484 112.693 126.599 112.776 126.703 112.891C126.807 112.995 126.896 113.12 126.969 113.266C127.042 113.401 127.083 113.552 127.094 113.719C127.156 113.865 127.135 114.057 127.031 114.297C126.938 114.536 126.792 114.792 126.594 115.062C126.396 115.333 126.156 115.609 125.875 115.891C125.594 116.161 125.312 116.411 125.031 116.641C124.75 116.859 124.474 117.036 124.203 117.172C123.932 117.318 123.703 117.385 123.516 117.375C123.307 117.375 123.182 117.312 123.141 117.188C123.109 117.062 123.094 116.922 123.094 116.766ZM128.141 110.328C128.036 110.38 127.938 110.438 127.844 110.5C127.76 110.552 127.677 110.604 127.594 110.656C127.51 110.698 127.427 110.729 127.344 110.75C127.26 110.771 127.172 110.771 127.078 110.75C127.016 110.75 126.964 110.714 126.922 110.641C126.88 110.557 126.849 110.469 126.828 110.375C126.797 110.271 126.776 110.172 126.766 110.078C126.755 109.974 126.755 109.896 126.766 109.844L128.266 108.984L128.359 104.984C128.38 104.849 128.464 104.797 128.609 104.828C128.755 104.849 128.906 104.88 129.062 104.922C129.083 104.922 129.115 104.932 129.156 104.953C129.208 104.964 129.245 104.974 129.266 104.984C129.245 105.266 129.219 105.573 129.188 105.906C129.167 106.229 129.146 106.557 129.125 106.891C129.104 107.214 129.089 107.531 129.078 107.844C129.078 108.156 129.094 108.438 129.125 108.688L131.469 108.031C131.51 108.021 131.542 108.052 131.562 108.125C131.594 108.188 131.62 108.266 131.641 108.359C131.672 108.453 131.693 108.547 131.703 108.641C131.714 108.734 131.719 108.781 131.719 108.781L129.062 109.906C129.062 110 129.068 110.224 129.078 110.578C129.099 110.932 129.12 111.354 129.141 111.844C129.161 112.323 129.182 112.844 129.203 113.406C129.224 113.958 129.245 114.474 129.266 114.953C129.286 115.432 129.302 115.854 129.312 116.219C129.323 116.573 129.328 116.797 129.328 116.891C129.307 117.203 129.214 117.359 129.047 117.359C128.891 117.359 128.719 117.281 128.531 117.125L128.141 110.328ZM136.453 116.594C136.401 116.323 136.354 116 136.312 115.625C136.281 115.24 136.245 114.854 136.203 114.469C136.161 114.073 136.109 113.703 136.047 113.359C135.995 113.016 135.911 112.734 135.797 112.516C135.266 113.599 134.797 114.453 134.391 115.078C133.984 115.693 133.625 116.135 133.312 116.406C133.01 116.667 132.755 116.792 132.547 116.781C132.339 116.771 132.167 116.677 132.031 116.5C131.896 116.323 131.797 116.099 131.734 115.828C131.682 115.547 131.646 115.286 131.625 115.047C131.625 114.818 131.677 114.495 131.781 114.078C131.885 113.661 132.026 113.208 132.203 112.719C132.38 112.219 132.589 111.714 132.828 111.203C133.078 110.693 133.344 110.229 133.625 109.812C133.906 109.396 134.198 109.052 134.5 108.781C134.802 108.51 135.104 108.375 135.406 108.375C135.854 108.302 136.182 108.401 136.391 108.672C136.609 108.932 136.651 109.375 136.516 110C136.516 110.688 136.542 111.276 136.594 111.766C136.656 112.255 136.719 112.724 136.781 113.172C136.854 113.62 136.917 114.089 136.969 114.578C137.031 115.068 137.062 115.656 137.062 116.344C137.062 116.469 137.047 116.578 137.016 116.672C136.995 116.755 136.87 116.797 136.641 116.797C136.609 116.797 136.568 116.771 136.516 116.719C136.474 116.667 136.453 116.625 136.453 116.594ZM135.609 109.609C135.495 109.443 135.339 109.427 135.141 109.562C134.943 109.698 134.734 109.922 134.516 110.234C134.297 110.547 134.073 110.922 133.844 111.359C133.615 111.797 133.401 112.24 133.203 112.688C133.005 113.135 132.833 113.562 132.688 113.969C132.542 114.365 132.443 114.693 132.391 114.953C132.391 115.328 132.448 115.542 132.562 115.594C132.677 115.635 132.818 115.573 132.984 115.406C133.151 115.24 133.339 115 133.547 114.688C133.766 114.375 133.974 114.042 134.172 113.688C134.38 113.333 134.573 112.99 134.75 112.656C134.938 112.323 135.083 112.052 135.188 111.844C135.281 111.625 135.354 111.422 135.406 111.234C135.458 111.047 135.5 110.87 135.531 110.703C135.573 110.526 135.594 110.349 135.594 110.172C135.604 109.995 135.609 109.807 135.609 109.609ZM141.844 115.188C141.802 115.312 141.698 115.484 141.531 115.703C141.375 115.911 141.188 116.125 140.969 116.344C140.75 116.552 140.521 116.74 140.281 116.906C140.052 117.062 139.849 117.141 139.672 117.141C139.339 117.141 139.062 116.984 138.844 116.672C138.635 116.359 138.474 115.958 138.359 115.469C138.245 114.979 138.167 114.438 138.125 113.844C138.083 113.24 138.057 112.651 138.047 112.078C138.036 111.505 138.031 110.984 138.031 110.516C138.031 110.047 138.016 109.693 137.984 109.453C138.026 109.349 138.078 109.286 138.141 109.266C138.214 109.245 138.297 109.234 138.391 109.234C138.474 109.234 138.547 109.245 138.609 109.266C138.682 109.286 138.745 109.349 138.797 109.453C138.797 109.568 138.797 109.76 138.797 110.031C138.807 110.302 138.823 110.609 138.844 110.953C138.865 111.286 138.885 111.641 138.906 112.016C138.927 112.38 138.943 112.729 138.953 113.062C138.974 113.396 138.99 113.698 139 113.969C139.021 114.229 139.036 114.422 139.047 114.547C139.057 114.62 139.068 114.74 139.078 114.906C139.099 115.073 139.125 115.25 139.156 115.438C139.198 115.615 139.245 115.776 139.297 115.922C139.359 116.068 139.438 116.146 139.531 116.156C139.688 116.156 139.844 116.089 140 115.953C140.167 115.818 140.328 115.646 140.484 115.438C140.641 115.229 140.786 115 140.922 114.75C141.057 114.5 141.177 114.26 141.281 114.031C141.396 113.792 141.479 113.578 141.531 113.391C141.594 113.203 141.63 113.068 141.641 112.984C141.661 112.807 141.682 112.557 141.703 112.234C141.724 111.901 141.74 111.547 141.75 111.172C141.76 110.797 141.766 110.443 141.766 110.109C141.776 109.776 141.781 109.521 141.781 109.344L142.641 109.391C142.651 110.234 142.646 111 142.625 111.688C142.604 112.365 142.599 113.005 142.609 113.609C142.62 114.203 142.667 114.781 142.75 115.344C142.833 115.906 142.984 116.49 143.203 117.094C143.172 117.125 143.109 117.167 143.016 117.219C142.922 117.281 142.854 117.312 142.812 117.312C142.552 117.312 142.375 117.224 142.281 117.047C142.198 116.88 142.141 116.682 142.109 116.453C142.089 116.214 142.068 115.979 142.047 115.75C142.036 115.51 141.969 115.323 141.844 115.188ZM144.078 109.469V109.344C144.078 109.24 144.115 109.167 144.188 109.125C144.271 109.083 144.365 109.062 144.469 109.062C144.552 109.062 144.63 109.073 144.703 109.094C144.776 109.104 144.833 109.161 144.875 109.266C144.906 109.422 144.938 109.641 144.969 109.922C145 110.193 145.036 110.495 145.078 110.828C145.12 111.161 145.161 111.516 145.203 111.891C145.255 112.255 145.302 112.604 145.344 112.938C145.396 113.26 145.448 113.552 145.5 113.812C145.552 114.073 145.609 114.271 145.672 114.406C145.641 113.406 145.672 112.542 145.766 111.812C145.859 111.073 146.036 110.474 146.297 110.016C146.568 109.547 146.932 109.224 147.391 109.047C147.859 108.859 148.443 108.818 149.141 108.922C149.464 108.922 149.625 109.094 149.625 109.438C149.625 109.573 149.536 109.667 149.359 109.719C149.182 109.76 148.984 109.792 148.766 109.812C148.547 109.823 148.333 109.839 148.125 109.859C147.917 109.88 147.766 109.932 147.672 110.016C147.297 110.224 147.031 110.547 146.875 110.984C146.729 111.422 146.625 111.938 146.562 112.531C146.5 113.125 146.453 113.776 146.422 114.484C146.401 115.182 146.333 115.901 146.219 116.641C146.219 116.745 146.177 116.823 146.094 116.875C146.01 116.927 145.906 116.953 145.781 116.953C145.667 116.953 145.552 116.927 145.438 116.875C145.333 116.823 145.25 116.745 145.188 116.641L144.078 109.469ZM154.859 116.594C154.807 116.323 154.76 116 154.719 115.625C154.688 115.24 154.651 114.854 154.609 114.469C154.568 114.073 154.516 113.703 154.453 113.359C154.401 113.016 154.318 112.734 154.203 112.516C153.672 113.599 153.203 114.453 152.797 115.078C152.391 115.693 152.031 116.135 151.719 116.406C151.417 116.667 151.161 116.792 150.953 116.781C150.745 116.771 150.573 116.677 150.438 116.5C150.302 116.323 150.203 116.099 150.141 115.828C150.089 115.547 150.052 115.286 150.031 115.047C150.031 114.818 150.083 114.495 150.188 114.078C150.292 113.661 150.432 113.208 150.609 112.719C150.786 112.219 150.995 111.714 151.234 111.203C151.484 110.693 151.75 110.229 152.031 109.812C152.312 109.396 152.604 109.052 152.906 108.781C153.208 108.51 153.51 108.375 153.812 108.375C154.26 108.302 154.589 108.401 154.797 108.672C155.016 108.932 155.057 109.375 154.922 110C154.922 110.688 154.948 111.276 155 111.766C155.062 112.255 155.125 112.724 155.188 113.172C155.26 113.62 155.323 114.089 155.375 114.578C155.438 115.068 155.469 115.656 155.469 116.344C155.469 116.469 155.453 116.578 155.422 116.672C155.401 116.755 155.276 116.797 155.047 116.797C155.016 116.797 154.974 116.771 154.922 116.719C154.88 116.667 154.859 116.625 154.859 116.594ZM154.016 109.609C153.901 109.443 153.745 109.427 153.547 109.562C153.349 109.698 153.141 109.922 152.922 110.234C152.703 110.547 152.479 110.922 152.25 111.359C152.021 111.797 151.807 112.24 151.609 112.688C151.411 113.135 151.24 113.562 151.094 113.969C150.948 114.365 150.849 114.693 150.797 114.953C150.797 115.328 150.854 115.542 150.969 115.594C151.083 115.635 151.224 115.573 151.391 115.406C151.557 115.24 151.745 115 151.953 114.688C152.172 114.375 152.38 114.042 152.578 113.688C152.786 113.333 152.979 112.99 153.156 112.656C153.344 112.323 153.49 112.052 153.594 111.844C153.688 111.625 153.76 111.422 153.812 111.234C153.865 111.047 153.906 110.87 153.938 110.703C153.979 110.526 154 110.349 154 110.172C154.01 109.995 154.016 109.807 154.016 109.609ZM156.938 116.797C156.823 115.391 156.719 113.984 156.625 112.578C156.542 111.161 156.448 109.693 156.344 108.172C156.344 107.922 156.479 107.797 156.75 107.797H156.875C156.906 107.797 156.943 107.839 156.984 107.922C157.026 108.005 157.068 108.161 157.109 108.391C157.161 108.609 157.214 108.948 157.266 109.406C157.328 109.854 157.401 110.443 157.484 111.172C157.568 111.901 157.661 112.812 157.766 113.906C157.984 113.198 158.156 112.51 158.281 111.844C158.406 111.177 158.568 110.573 158.766 110.031C158.964 109.479 159.24 108.995 159.594 108.578C159.958 108.161 160.479 107.854 161.156 107.656C161.531 107.719 161.833 107.948 162.062 108.344C162.292 108.729 162.474 109.208 162.609 109.781C162.745 110.354 162.839 110.979 162.891 111.656C162.943 112.323 162.974 112.964 162.984 113.578C162.995 114.193 163 114.745 163 115.234C163 115.714 163.01 116.057 163.031 116.266C163 116.349 162.953 116.422 162.891 116.484C162.828 116.547 162.755 116.594 162.672 116.625C162.599 116.646 162.526 116.651 162.453 116.641C162.38 116.62 162.312 116.562 162.25 116.469C162.25 116.354 162.24 116.12 162.219 115.766C162.198 115.411 162.172 115 162.141 114.531C162.109 114.052 162.073 113.547 162.031 113.016C162 112.474 161.969 111.969 161.938 111.5C161.917 111.021 161.896 110.604 161.875 110.25C161.854 109.896 161.839 109.661 161.828 109.547C161.609 109.161 161.391 108.943 161.172 108.891C160.964 108.839 160.75 108.906 160.531 109.094C160.323 109.281 160.12 109.568 159.922 109.953C159.724 110.339 159.536 110.776 159.359 111.266C159.182 111.745 159.016 112.25 158.859 112.781C158.703 113.312 158.568 113.828 158.453 114.328C158.339 114.818 158.24 115.266 158.156 115.672C158.083 116.068 158.036 116.375 158.016 116.594C157.984 116.667 157.917 116.74 157.812 116.812C157.719 116.875 157.615 116.922 157.5 116.953C157.396 116.984 157.286 116.995 157.172 116.984C157.068 116.964 156.99 116.901 156.938 116.797ZM164.438 110.328C164.333 110.38 164.234 110.438 164.141 110.5C164.057 110.552 163.974 110.604 163.891 110.656C163.807 110.698 163.724 110.729 163.641 110.75C163.557 110.771 163.469 110.771 163.375 110.75C163.312 110.75 163.26 110.714 163.219 110.641C163.177 110.557 163.146 110.469 163.125 110.375C163.094 110.271 163.073 110.172 163.062 110.078C163.052 109.974 163.052 109.896 163.062 109.844L164.562 108.984L164.656 104.984C164.677 104.849 164.76 104.797 164.906 104.828C165.052 104.849 165.203 104.88 165.359 104.922C165.38 104.922 165.411 104.932 165.453 104.953C165.505 104.964 165.542 104.974 165.562 104.984C165.542 105.266 165.516 105.573 165.484 105.906C165.464 106.229 165.443 106.557 165.422 106.891C165.401 107.214 165.385 107.531 165.375 107.844C165.375 108.156 165.391 108.438 165.422 108.688L167.766 108.031C167.807 108.021 167.839 108.052 167.859 108.125C167.891 108.188 167.917 108.266 167.938 108.359C167.969 108.453 167.99 108.547 168 108.641C168.01 108.734 168.016 108.781 168.016 108.781L165.359 109.906C165.359 110 165.365 110.224 165.375 110.578C165.396 110.932 165.417 111.354 165.438 111.844C165.458 112.323 165.479 112.844 165.5 113.406C165.521 113.958 165.542 114.474 165.562 114.953C165.583 115.432 165.599 115.854 165.609 116.219C165.62 116.573 165.625 116.797 165.625 116.891C165.604 117.203 165.51 117.359 165.344 117.359C165.188 117.359 165.016 117.281 164.828 117.125L164.438 110.328Z" fill="white"/>
<g clip-path="url(#clip1_649_19390)">
<path d="M106.357 166.839C109.959 166.839 112.879 163.924 112.879 160.328C112.879 156.732 109.959 153.816 106.357 153.816C102.756 153.816 99.8359 156.732 99.8359 160.328C99.8359 163.924 102.756 166.839 106.357 166.839Z" fill="#FFB6B6"/>
<path d="M109.815 168.213L101.231 170.662L100.005 173.416L97.2459 186.578V207.393C97.2459 207.393 93.8737 214.739 95.7131 221.167C97.6792 228.038 104.604 219.928 109.815 220.854C115.027 221.779 123.304 222.697 123.304 222.697L118.399 200.353L117.173 173.11L109.815 168.213Z" fill="#E6E6E6"/>
<path d="M108.195 162.46L106.869 161.798C106.869 161.798 106.538 158.819 105.875 158.157C105.212 157.495 105.212 157.164 105.212 157.164L106.206 155.841C106.206 155.841 101.234 158.488 100.24 156.834C99.2455 155.179 100.571 154.517 100.571 154.517L98.9141 153.193C98.9141 153.193 100.903 154.517 101.234 153.524C101.566 152.531 103.555 151.857 103.555 151.857C103.555 151.857 107.898 152.839 107.549 151.857C107.201 150.876 108.527 151.869 108.858 152.2C109.19 152.531 112.173 155.841 112.504 155.51C112.836 155.179 114.493 156.172 114.162 156.503C113.83 156.834 113.83 157.164 114.162 157.495C114.493 157.826 116.482 161.467 114.824 162.791C113.167 164.114 110.847 165.769 111.178 167.093C111.51 168.417 111.178 162.791 108.195 162.46Z" fill="#2F2E41"/>
<path d="M76.0446 178.853C74.3708 177.413 73.7585 175.383 74.6769 174.319C75.5954 173.256 77.6964 173.562 79.3707 175.003C80.0473 175.57 80.5783 176.29 80.9191 177.104L87.9339 183.297L84.9528 186.522L78.3539 180.074C77.4976 179.857 76.7057 179.439 76.0446 178.853Z" fill="#FFB6B6"/>
<path d="M100.071 173.522L104.691 173.103L108.744 192.399C109.516 196.076 107.102 199.665 103.401 200.344L100.071 200.954L78.8438 182.293L81.945 177.132L97.5988 186.936L100.071 173.522Z" fill="#E6E6E6"/>
<path d="M84.3487 211.766C84.3487 211.766 82.4726 219.253 82.6619 218.935C82.8511 218.618 87.5511 219.044 87.5511 219.044L88.4123 211.813L84.3487 211.766Z" fill="#FFB6B6"/>
<path d="M116.983 210.506C108.7 211.668 101.219 210.655 95.1239 205.883C95.1239 205.883 90.6736 220.781 98.7888 222.349C106.904 223.918 115.935 221.222 116.983 218.608C118.03 215.995 116.983 210.506 116.983 210.506Z" fill="#2F2E41"/>
<path d="M101.54 215.211L92.5088 236.464L88.3203 261.033L93.8177 262.34L103.651 239.731L116.985 218.086L101.54 215.211Z" fill="#2F2E41"/>
<path d="M100.366 209.15C100.366 209.15 98.2718 192.945 94.3451 191.9C92.4309 191.39 90.641 191.439 89.3092 191.624C87.9669 191.81 86.8968 192.834 86.6621 194.166L83.0938 214.427H88.1397L89.764 208.938L94.0834 216.469L100.366 209.15Z" fill="#2F2E41"/>
<path d="M87.5349 216.991L82.5457 216.468L81.7758 219.343C81.7758 219.343 73.6606 226.662 77.8491 227.185C82.0376 227.707 85.9643 224.832 85.9643 224.832L91.726 221.532C91.726 221.532 89.4983 215.603 87.9276 215.603C86.3569 215.603 87.5349 216.991 87.5349 216.991Z" fill="#2F2E41"/>
<path d="M115.415 226.431C114.813 228.491 113.261 229.851 111.948 229.468C110.635 229.086 110.058 227.106 110.661 225.045C110.89 224.219 111.314 223.459 111.897 222.83L114.557 214.134L118.617 215.467L115.564 223.898C115.718 224.742 115.666 225.611 115.415 226.431Z" fill="#FFB6B6"/>
<path d="M118.227 173.148L116.11 172.552C114.114 176.518 113.255 180.958 113.63 185.382L114.675 197.724L111.227 219.417L117.985 221.163L123.31 193.939L118.227 173.148Z" fill="#E6E6E6"/>
<path d="M76.9987 207.065C76.906 206.782 76.2033 206.907 76.1358 206.653C76.0686 206.401 76.7429 206.189 77.2601 205.478C77.3534 205.349 77.9411 204.541 77.7157 204.201C77.2884 203.556 74.3156 205.162 73.6021 204.261C73.4455 204.063 73.381 203.723 72.9145 203.092C72.7289 202.84 72.6098 202.719 72.4676 202.723C72.2657 202.728 72.1935 202.98 71.8762 203.437C71.4004 204.122 71.2287 204.036 70.9152 204.597C70.6825 205.014 70.655 205.28 70.4872 205.295C70.2497 205.318 70.1516 204.799 69.8615 204.779C69.5654 204.758 69.2691 205.271 69.1222 205.671C68.8466 206.423 69.0173 206.997 69.0551 207.57C69.0963 208.192 68.9997 209.102 68.3227 210.271L61.9375 220.429C63.3088 218.358 67.2014 212.711 68.7697 210.64C69.2224 210.042 69.709 209.442 70.4578 209.329C71.1788 209.22 72.056 209.576 73.2804 209.556C73.4234 209.553 73.8214 209.541 73.9182 209.331C73.9982 209.157 73.7995 209.005 73.8718 208.842C73.9688 208.622 74.405 208.716 74.9995 208.57C75.4187 208.468 75.7035 208.298 75.9484 208.152C76.0222 208.108 77.1222 207.442 76.9987 207.065Z" fill="#F2F2F2"/>
<path d="M60.2778 209.437C60.1118 209.401 59.9704 209.781 59.8263 209.741C59.6828 209.701 59.7733 209.309 59.5728 208.851C59.5366 208.768 59.3088 208.247 59.0765 208.259C58.6364 208.282 58.5679 210.202 57.9191 210.292C57.7767 210.312 57.5913 210.245 57.1461 210.292C56.969 210.31 56.8751 210.334 56.8358 210.404C56.78 210.505 56.8831 210.613 57.0161 210.9C57.2155 211.331 57.1237 211.39 57.3092 211.706C57.4468 211.94 57.5697 212.03 57.529 212.117C57.4714 212.24 57.1881 212.138 57.0945 212.275C56.999 212.414 57.1655 212.707 57.32 212.894C57.6098 213.246 57.9414 213.328 58.2337 213.475C58.5514 213.634 58.9712 213.944 59.3504 214.613L62.5012 220.673C61.8789 219.404 60.2264 215.867 59.6608 214.501C59.4975 214.107 59.3427 213.695 59.5033 213.295C59.6578 212.911 60.086 212.584 60.4291 211.978C60.4692 211.907 60.5782 211.708 60.5026 211.6C60.4401 211.511 60.3084 211.564 60.2488 211.482C60.1688 211.371 60.341 211.184 60.4409 210.851C60.5113 210.616 60.5099 210.427 60.5088 210.265C60.5085 210.216 60.4988 209.485 60.2778 209.437Z" fill="#F2F2F2"/>
<path d="M63.4219 210.916L63.5209 210.003L63.5817 209.945C63.8627 209.68 64.0385 209.399 64.1044 209.11C64.1149 209.064 64.1231 209.018 64.1314 208.97C64.1643 208.783 64.2051 208.549 64.3858 208.307C64.487 208.172 64.7546 207.867 65.0306 207.973C65.1051 208.001 65.1553 208.049 65.1903 208.101C65.199 208.092 65.208 208.083 65.2176 208.073C65.3368 207.958 65.4202 207.915 65.5006 207.874C65.5623 207.843 65.626 207.811 65.7339 207.725C65.7812 207.687 65.8191 207.653 65.851 207.624C65.9479 207.538 66.0717 207.437 66.2414 207.477C66.4212 207.526 66.4829 207.697 66.5238 207.811C66.5969 208.013 66.6194 208.152 66.6343 208.244C66.6396 208.278 66.6459 208.316 66.6506 208.328C66.6899 208.427 67.1841 208.453 67.37 208.464C67.788 208.486 68.1496 208.506 68.2366 208.792C68.299 208.996 68.169 209.219 67.8389 209.472C67.7361 209.551 67.6333 209.605 67.5437 209.645C67.5988 209.697 67.6427 209.768 67.6454 209.864C67.6514 210.092 67.4172 210.267 66.9493 210.385C66.8331 210.415 66.6767 210.454 66.472 210.444C66.3756 210.439 66.2912 210.425 66.2192 210.411C66.2085 210.452 66.1888 210.494 66.1533 210.535C66.0492 210.654 65.881 210.684 65.6527 210.617C65.4007 210.547 65.2016 210.452 65.0259 210.368C64.8724 210.295 64.74 210.232 64.629 210.215C64.4225 210.186 64.2299 210.314 63.9994 210.483L63.4219 210.916Z" fill="#F2F2F2"/>
<path d="M65.0703 205.716L64.1607 205.852L64.0897 205.808C63.7615 205.604 63.4448 205.505 63.1479 205.515C63.1007 205.516 63.0536 205.52 63.0056 205.524C62.8154 205.54 62.579 205.56 62.2983 205.447C62.1418 205.383 61.7783 205.202 61.8116 204.909C61.8197 204.83 61.8536 204.769 61.8943 204.722C61.8835 204.716 61.8726 204.709 61.8609 204.703C61.7186 204.617 61.6564 204.547 61.5965 204.48C61.5504 204.428 61.503 204.375 61.3921 204.292C61.3435 204.256 61.301 204.228 61.2652 204.205C61.157 204.133 61.0277 204.039 61.0234 203.865C61.0254 203.679 61.1757 203.576 61.2752 203.508C61.4526 203.386 61.5816 203.329 61.6673 203.291C61.6985 203.277 61.7337 203.262 61.7445 203.254C61.8305 203.191 61.73 202.707 61.6932 202.525C61.6091 202.115 61.5363 201.761 61.7911 201.605C61.9733 201.493 62.2223 201.562 62.5511 201.816C62.6534 201.896 62.732 201.981 62.7941 202.057C62.8305 201.991 62.8878 201.931 62.9805 201.904C63.1998 201.84 63.4287 202.022 63.6616 202.444C63.7198 202.548 63.7975 202.69 63.8398 202.89C63.8596 202.984 63.8668 203.069 63.8717 203.142C63.9141 203.142 63.9603 203.15 64.0085 203.174C64.1502 203.245 64.2222 203.4 64.2151 203.637C64.2111 203.898 64.1692 204.115 64.1326 204.306C64.1008 204.473 64.0738 204.616 64.0855 204.728C64.1099 204.935 64.2821 205.088 64.5048 205.268L65.0703 205.716Z" fill="#F2F2F2"/>
<path d="M65.1875 202.989L65.2865 202.076L65.3473 202.019C65.6283 201.754 65.8041 201.473 65.8701 201.183C65.8806 201.137 65.8887 201.091 65.897 201.044C65.9299 200.856 65.9707 200.623 66.1515 200.38C66.2526 200.245 66.5202 199.94 66.7962 200.047C66.8707 200.074 66.921 200.123 66.9559 200.174C66.9646 200.165 66.9736 200.156 66.9832 200.146C67.1024 200.031 67.1858 199.988 67.2662 199.948C67.3279 199.916 67.3916 199.884 67.4995 199.798C67.5468 199.76 67.5847 199.726 67.6167 199.697C67.7135 199.611 67.8374 199.51 68.007 199.55C68.1869 199.599 68.2485 199.77 68.2895 199.884C68.3625 200.086 68.385 200.225 68.3999 200.317C68.4053 200.351 68.4115 200.389 68.4162 200.401C68.4556 200.501 68.9497 200.526 69.1357 200.537C69.5536 200.559 69.9153 200.579 70.0022 200.865C70.0646 201.069 69.9346 201.292 69.6045 201.545C69.5017 201.624 69.3989 201.678 69.3094 201.719C69.3644 201.771 69.4083 201.841 69.411 201.938C69.4171 202.166 69.1829 202.341 68.715 202.459C68.5987 202.488 68.4423 202.527 68.2376 202.517C68.1413 202.513 68.0568 202.498 67.9848 202.484C67.9741 202.525 67.9544 202.568 67.9189 202.608C67.8148 202.727 67.6466 202.757 67.4183 202.69C67.1663 202.62 66.9672 202.525 66.7915 202.441C66.638 202.368 66.5057 202.306 66.3946 202.289C66.1881 202.26 65.9955 202.387 65.765 202.556L65.1875 202.989Z" fill="#F2F2F2"/>
<path d="M62.2446 220.481L62.0837 220.322L61.8602 220.298C61.8613 220.277 61.8598 220.228 61.8582 220.152C61.8496 219.732 61.8229 218.453 62.0011 216.49C62.1256 215.119 62.3336 213.727 62.6194 212.353C62.9056 210.976 63.2027 209.952 63.4413 209.129C63.6213 208.508 63.8031 207.919 63.9805 207.346C64.454 205.813 64.901 204.365 65.1779 202.714C65.2398 202.346 65.3685 201.578 65.1051 200.673C64.9522 200.147 64.6905 199.653 64.327 199.204L64.6789 198.92C65.08 199.416 65.3694 199.964 65.5392 200.547C65.8312 201.551 65.6911 202.387 65.6237 202.789C65.3419 204.469 64.8904 205.931 64.4123 207.478C64.2358 208.05 64.0546 208.636 63.8753 209.254C63.6389 210.07 63.3445 211.085 63.062 212.444C62.7795 213.802 62.5741 215.177 62.451 216.53C62.2751 218.469 62.3016 219.729 62.3102 220.142C62.3147 220.363 62.3156 220.409 62.2446 220.481Z" fill="#F2F2F2"/>
<path d="M63.3586 199.724C63.3405 199.72 63.3223 199.715 63.304 199.71C62.933 199.606 62.6353 199.304 62.4191 198.812C62.3178 198.581 62.294 198.338 62.2463 197.853C62.2388 197.778 62.2058 197.4 62.2464 196.898C62.2728 196.57 62.3081 196.439 62.3975 196.335C62.4967 196.22 62.6303 196.154 62.7716 196.121C62.7754 196.078 62.7896 196.035 62.8178 195.995C62.934 195.828 63.1285 195.897 63.234 195.932C63.2872 195.951 63.3534 195.976 63.4279 195.988C63.5451 196.008 63.615 195.988 63.7209 195.957C63.8221 195.928 63.9481 195.891 64.1222 195.894C64.4657 195.899 64.7199 196.053 64.8038 196.104C65.2454 196.369 65.3979 196.792 65.5743 197.281C65.6094 197.379 65.7257 197.734 65.7528 198.19C65.7724 198.52 65.7292 198.655 65.6796 198.751C65.5783 198.949 65.4233 199.041 65.0385 199.234C64.6365 199.437 64.4348 199.538 64.2694 199.591C63.8845 199.711 63.6429 199.787 63.3586 199.724Z" fill="#F2F2F2"/>
<path d="M166.56 161.51C166.56 161.51 169.056 162.972 168.237 164.417C167.419 165.863 166.277 167.832 167.051 168.452C167.826 169.072 169.104 171.807 169.104 171.807C169.104 171.807 174.561 171.046 174.049 175.278C173.537 179.51 170.973 180.087 173.17 181.949C175.368 183.811 170.887 186.038 170.887 186.038C170.887 186.038 167.793 185.075 167.087 182.116C166.382 179.156 167.717 184.379 167.269 184.753C166.821 185.128 165.083 187.596 163.853 184.314C162.623 181.032 163.841 179.76 162.215 177.823C160.59 175.886 159.485 172.753 159.534 172.205C159.582 171.658 157.674 166.66 160.611 164.711C163.547 162.762 166.56 161.51 166.56 161.51Z" fill="#2F2E41"/>
<path d="M191.153 207.431C192.602 208.628 194.396 208.852 195.159 207.931C195.923 207.01 195.366 205.293 193.916 204.095C193.343 203.608 192.662 203.266 191.93 203.096L185.724 198.099L183.438 201.056L189.798 205.669C190.102 206.356 190.567 206.96 191.153 207.431Z" fill="#FFB6B6"/>
<path d="M172.554 180.175C172.554 180.175 167.684 176.924 166.09 178.518C164.495 180.113 164.876 184.095 164.876 184.095L177.647 198.956L187.774 205.383L190.489 201.138L181.975 193.552L172.554 180.175Z" fill="#8F8DAD"/>
<path d="M165.416 173.132L167.183 179.403H157.484L160.678 171.676L165.416 173.132Z" fill="#FFB6B6"/>
<path opacity="0.1" d="M165.416 173.132L167.183 179.403H157.484L160.678 171.676L165.416 173.132Z" fill="black"/>
<path d="M144.27 219.432C144.145 221.306 145.012 222.89 146.207 222.969C147.401 223.049 148.471 221.593 148.596 219.718C148.656 218.97 148.536 218.218 148.246 217.526L148.676 209.577L144.935 209.455L144.909 217.304C144.529 217.952 144.31 218.682 144.27 219.432Z" fill="#FFB6B6"/>
<path d="M155.528 188.428C155.528 188.428 155.321 182.582 153.093 182.223C150.865 181.864 147.852 184.502 147.852 184.502L143.25 203.537L143.952 215.497L148.989 215.213L150.171 203.882L155.528 188.428Z" fill="#8F8DAD"/>
<path d="M182.532 210.72C182.532 210.72 184.408 218.207 184.219 217.89C184.03 217.572 179.33 217.998 179.33 217.998L178.469 210.768L182.532 210.72Z" fill="#FFB6B6"/>
<path d="M167.966 177.312H158.816L148.856 184.107L145.977 207.892L147.547 212.597L150.427 218.086C150.427 218.086 147.547 206.063 154.615 210.767C161.683 215.472 162.207 216.256 162.207 216.256L171.631 211.551L175.165 192.079L172.547 181.363L167.966 177.312Z" fill="#8F8DAD"/>
<path d="M149.903 209.461C158.185 210.623 165.666 209.61 171.762 204.838C171.762 204.838 176.212 219.736 168.097 221.304C159.981 222.873 150.95 220.177 149.903 217.564C148.856 214.95 149.903 209.461 149.903 209.461Z" fill="#2F2E41"/>
<path d="M165.343 214.165L174.375 235.418L178.563 259.987L173.066 261.294L163.233 238.685L149.898 217.04L165.343 214.165Z" fill="#2F2E41"/>
<path d="M166.523 208.104C166.523 208.104 168.618 191.899 172.544 190.854C174.459 190.344 176.249 190.393 177.58 190.578C178.923 190.764 179.993 191.788 180.227 193.12L183.796 213.381H178.75L177.126 207.892L172.806 215.423L166.523 208.104Z" fill="#2F2E41"/>
<path d="M179.355 215.946L184.344 215.423L185.114 218.299C185.114 218.299 193.229 225.617 189.041 226.14C184.853 226.662 180.926 223.787 180.926 223.787L175.164 220.487C175.164 220.487 177.392 214.558 178.962 214.558C180.533 214.558 179.355 215.946 179.355 215.946Z" fill="#2F2E41"/>
<path d="M163.106 174.495C166.332 174.495 168.947 171.884 168.947 168.663C168.947 165.443 166.332 162.832 163.106 162.832C159.881 162.832 157.266 165.443 157.266 168.663C157.266 171.884 159.881 174.495 163.106 174.495Z" fill="#FFB6B6"/>
<path d="M165.344 162.152C165.344 162.152 166.317 164.873 164.76 165.456C163.202 166.039 161.061 166.817 161.256 167.789C161.45 168.76 160.672 171.676 160.672 171.676C160.672 171.676 165.344 174.592 162.229 177.508C159.114 180.423 156.778 179.222 157.265 182.058C157.751 184.894 152.884 183.728 152.884 183.728C152.884 183.728 151.132 181.006 152.495 178.285C153.858 175.564 151.522 180.423 150.937 180.423C150.353 180.423 147.433 181.201 148.601 177.896C149.769 174.592 151.522 174.397 151.522 171.871C151.522 169.344 152.69 166.233 153.079 165.845C153.468 165.456 155.22 160.402 158.725 160.791C162.229 161.18 165.344 162.152 165.344 162.152Z" fill="#2F2E41"/>
<path d="M141.522 209.461C133.239 210.623 125.758 209.61 119.663 204.838C119.663 204.838 115.213 219.736 123.328 221.304C131.443 222.873 140.474 220.177 141.522 217.564C142.569 214.95 141.522 209.461 141.522 209.461Z" fill="#2F2E41"/>
<path d="M126.079 214.165L117.048 235.418L112.859 259.987L118.357 261.294L128.19 238.685L141.524 217.04L126.079 214.165Z" fill="#2F2E41"/>
<path d="M120.149 209.113L118.125 232.112L121.732 256.773L127.365 256.322L129.733 231.787L135.729 207.091L120.149 209.113Z" fill="#2F2E41"/>
<path d="M124.867 161.51C124.867 161.51 122.371 162.972 123.189 164.417C124.008 165.863 125.15 167.832 124.375 168.452C123.601 169.072 122.322 171.807 122.322 171.807C122.322 171.807 116.865 171.046 117.378 175.278C117.89 179.51 120.454 180.087 118.256 181.949C116.059 183.811 120.54 186.038 120.54 186.038C120.54 186.038 123.633 185.075 124.339 182.116C125.045 179.156 123.71 184.379 124.158 184.753C124.605 185.128 126.344 187.596 127.574 184.314C128.804 181.032 127.586 179.76 129.211 177.823C130.836 175.886 131.942 172.753 131.893 172.205C131.845 171.658 133.752 166.66 130.816 164.711C127.88 162.762 124.867 161.51 124.867 161.51Z" fill="#2F2E41"/>
<path d="M126.017 173.132L124.25 179.403H133.948L130.755 171.676L126.017 173.132Z" fill="#A0616A"/>
<path opacity="0.1" d="M126.017 173.132L124.25 179.403H133.948L130.755 171.676L126.017 173.132Z" fill="black"/>
<path d="M147.164 219.432C147.289 221.306 146.422 222.89 145.227 222.969C144.032 223.049 142.962 221.593 142.837 219.718C142.777 218.97 142.897 218.218 143.188 217.526L142.758 209.577L146.498 209.455L146.525 217.304C146.905 217.952 147.124 218.682 147.164 219.432Z" fill="#A0616A"/>
<path d="M135.906 188.428C135.906 188.428 136.113 182.582 138.341 182.223C140.569 181.864 143.582 184.502 143.582 184.502L148.184 203.537L147.482 215.497L142.445 215.213L141.263 203.882L135.906 188.428Z" fill="#F50057"/>
<path d="M123.458 177.312H132.608L142.568 184.107L145.448 207.892L143.877 212.597L140.997 218.086C140.997 218.086 143.877 206.063 136.809 210.767C136.738 210.814 136.668 210.861 136.599 210.907C132.049 213.942 126.046 213.63 121.834 210.143L118.484 207.37L120.317 198.221L118.877 181.363L123.458 177.312Z" fill="#F50057"/>
<path d="M100.567 207.089C99.0996 208.265 97.3026 208.462 96.5534 207.529C95.8042 206.597 96.3866 204.888 97.8549 203.712C98.4349 203.234 99.1211 202.902 99.856 202.744L106.137 197.841L108.379 200.833L101.949 205.348C101.634 206.031 101.16 206.627 100.567 207.089Z" fill="#A0616A"/>
<path d="M119.58 180.12C119.58 180.12 124.499 176.942 126.069 178.561C127.639 180.18 127.198 184.156 127.198 184.156L114.202 198.821L103.979 205.094L101.328 200.808L109.956 193.352L119.58 180.12Z" fill="#F50057"/>
<path d="M128.317 174.495C131.543 174.495 134.158 171.884 134.158 168.663C134.158 165.443 131.543 162.832 128.317 162.832C125.091 162.832 122.477 165.443 122.477 168.663C122.477 171.884 125.091 174.495 128.317 174.495Z" fill="#A0616A"/>
<path d="M125.409 164.754C125.409 164.754 124.549 161.891 125.983 161.891C127.417 161.891 133.153 162.177 133.727 162.75C134.301 163.322 141.088 169.071 137.073 173.652C133.058 178.234 137.073 180.448 137.073 180.448C137.073 180.448 140.037 187.377 137.169 187.95C134.301 188.523 122.536 185.248 125.409 179.932C128.528 174.163 129.979 165.057 125.409 164.754Z" fill="#2F2E41"/>
<path d="M220.975 207.326C220.883 207.043 220.18 207.167 220.112 206.914C220.045 206.662 220.719 206.45 221.237 205.738C221.33 205.61 221.918 204.802 221.692 204.461C221.265 203.817 218.292 205.422 217.579 204.521C217.422 204.324 217.358 203.984 216.891 203.353C216.705 203.101 216.586 202.98 216.444 202.983C216.242 202.989 216.17 203.241 215.853 203.697C215.377 204.382 215.205 204.296 214.892 204.858C214.659 205.274 214.632 205.541 214.464 205.556C214.226 205.578 214.128 205.06 213.838 205.04C213.542 205.019 213.246 205.532 213.099 205.932C212.823 206.684 212.994 207.258 213.032 207.83C213.073 208.452 212.976 209.363 212.299 210.532L205.914 220.689C207.285 218.619 211.178 212.972 212.746 210.901C213.199 210.303 213.686 209.703 214.434 209.59C215.155 209.481 216.033 209.837 217.257 209.816C217.4 209.814 217.798 209.802 217.895 209.591C217.975 209.417 217.776 209.266 217.848 209.102C217.945 208.883 218.382 208.977 218.976 208.831C219.395 208.728 219.68 208.559 219.925 208.412C219.999 208.368 221.099 207.703 220.975 207.326Z" fill="#F2F2F2"/>
<path d="M204.254 209.698C204.088 209.661 203.947 210.042 203.803 210.002C203.659 209.962 203.75 209.57 203.549 209.111C203.513 209.029 203.285 208.507 203.053 208.52C202.613 208.543 202.544 210.463 201.896 210.553C201.753 210.573 201.568 210.506 201.123 210.553C200.946 210.571 200.852 210.594 200.812 210.665C200.757 210.766 200.86 210.874 200.993 211.161C201.192 211.592 201.1 211.651 201.286 211.967C201.423 212.201 201.546 212.291 201.506 212.378C201.448 212.501 201.165 212.399 201.071 212.535C200.976 212.675 201.142 212.968 201.297 213.155C201.586 213.507 201.918 213.589 202.21 213.736C202.528 213.895 202.948 214.205 203.327 214.874L206.478 220.934C205.855 219.665 204.203 216.128 203.637 214.762C203.474 214.367 203.319 213.956 203.48 213.556C203.634 213.171 204.063 212.844 204.406 212.238C204.446 212.167 204.555 211.969 204.479 211.861C204.417 211.771 204.285 211.825 204.225 211.742C204.145 211.632 204.318 211.445 204.417 211.112C204.488 210.877 204.487 210.688 204.485 210.526C204.485 210.477 204.475 209.746 204.254 209.698Z" fill="#F2F2F2"/>
<path d="M207.398 211.177L207.497 210.264L207.558 210.206C207.839 209.941 208.015 209.66 208.081 209.371C208.091 209.325 208.1 209.278 208.108 209.231C208.141 209.043 208.182 208.81 208.362 208.568C208.464 208.433 208.731 208.127 209.007 208.234C209.082 208.262 209.132 208.31 209.167 208.361C209.176 208.352 209.185 208.344 209.194 208.334C209.313 208.218 209.397 208.176 209.477 208.135C209.539 208.104 209.603 208.071 209.71 207.985C209.758 207.947 209.796 207.913 209.828 207.885C209.924 207.799 210.048 207.698 210.218 207.738C210.398 207.787 210.459 207.958 210.5 208.071C210.573 208.274 210.596 208.413 210.611 208.505C210.616 208.539 210.622 208.577 210.627 208.589C210.666 208.688 211.161 208.714 211.347 208.724C211.765 208.747 212.126 208.767 212.213 209.052C212.276 209.257 212.146 209.48 211.815 209.733C211.713 209.811 211.61 209.866 211.52 209.906C211.575 209.958 211.619 210.029 211.622 210.125C211.628 210.353 211.394 210.528 210.926 210.646C210.81 210.676 210.653 210.715 210.449 210.705C210.352 210.7 210.268 210.685 210.196 210.672C210.185 210.713 210.165 210.755 210.13 210.796C210.026 210.915 209.858 210.945 209.629 210.878C209.377 210.808 209.178 210.712 209.002 210.629C208.849 210.556 208.717 210.493 208.606 210.476C208.399 210.447 208.206 210.575 207.976 210.744L207.398 211.177Z" fill="#F2F2F2"/>
<path d="M209.047 205.977L208.137 206.113L208.066 206.068C207.738 205.864 207.421 205.766 207.124 205.775C207.077 205.777 207.03 205.781 206.982 205.785C206.792 205.801 206.556 205.82 206.275 205.707C206.118 205.644 205.755 205.463 205.788 205.169C205.796 205.09 205.83 205.03 205.871 204.983C205.86 204.977 205.849 204.97 205.837 204.963C205.695 204.878 205.633 204.808 205.573 204.741C205.527 204.689 205.48 204.635 205.369 204.553C205.32 204.517 205.278 204.489 205.242 204.465C205.134 204.394 205.004 204.3 205 204.126C205.002 203.94 205.152 203.837 205.252 203.768C205.429 203.647 205.558 203.59 205.644 203.552C205.675 203.538 205.71 203.522 205.721 203.515C205.807 203.452 205.707 202.968 205.67 202.786C205.586 202.376 205.513 202.022 205.768 201.865C205.95 201.753 206.199 201.822 206.528 202.077C206.63 202.156 206.709 202.242 206.771 202.318C206.807 202.252 206.864 202.191 206.957 202.164C207.176 202.101 207.405 202.282 207.638 202.704C207.696 202.809 207.774 202.95 207.816 203.15C207.836 203.245 207.843 203.33 207.848 203.403C207.891 203.403 207.937 203.411 207.985 203.435C208.127 203.506 208.199 203.66 208.192 203.898C208.188 204.159 208.146 204.376 208.109 204.567C208.077 204.733 208.05 204.877 208.062 204.988C208.086 205.195 208.259 205.349 208.481 205.529L209.047 205.977Z" fill="#F2F2F2"/>
<path d="M209.164 203.249L209.263 202.336L209.324 202.278C209.605 202.013 209.781 201.732 209.847 201.443C209.857 201.397 209.865 201.351 209.874 201.303C209.906 201.116 209.947 200.882 210.128 200.64C210.229 200.505 210.497 200.2 210.773 200.306C210.847 200.334 210.898 200.382 210.932 200.434C210.941 200.425 210.95 200.416 210.96 200.406C211.079 200.291 211.162 200.248 211.243 200.207C211.304 200.176 211.368 200.144 211.476 200.058C211.523 200.02 211.561 199.986 211.593 199.957C211.69 199.871 211.814 199.77 211.984 199.81C212.163 199.859 212.225 200.03 212.266 200.144C212.339 200.346 212.362 200.485 212.376 200.577C212.382 200.611 212.388 200.649 212.393 200.661C212.432 200.76 212.926 200.786 213.112 200.797C213.53 200.819 213.892 200.839 213.979 201.125C214.041 201.329 213.911 201.552 213.581 201.805C213.478 201.884 213.375 201.938 213.286 201.978C213.341 202.03 213.385 202.101 213.388 202.197C213.394 202.425 213.159 202.6 212.692 202.718C212.575 202.748 212.419 202.787 212.214 202.777C212.118 202.772 212.033 202.758 211.961 202.744C211.951 202.785 211.931 202.828 211.896 202.868C211.791 202.987 211.623 203.017 211.395 202.95C211.143 202.88 210.944 202.785 210.768 202.701C210.615 202.628 210.482 202.565 210.371 202.548C210.165 202.519 209.972 202.647 209.742 202.816L209.164 203.249Z" fill="#F2F2F2"/>
<path d="M206.221 220.741L206.06 220.583L205.837 220.559C205.838 220.538 205.836 220.489 205.835 220.412C205.826 219.992 205.799 218.714 205.978 216.75C206.102 215.379 206.31 213.988 206.596 212.613C206.882 211.237 207.179 210.213 207.418 209.39C207.598 208.769 207.78 208.18 207.957 207.606C208.431 206.074 208.878 204.626 209.154 202.975C209.216 202.606 209.345 201.839 209.082 200.933C208.929 200.408 208.667 199.914 208.304 199.464L208.655 199.181C209.057 199.677 209.346 200.225 209.516 200.808C209.808 201.812 209.668 202.648 209.6 203.05C209.318 204.73 208.867 206.192 208.389 207.739C208.212 208.311 208.031 208.897 207.852 209.515C207.615 210.331 207.321 211.346 207.039 212.705C206.756 214.063 206.551 215.437 206.428 216.791C206.252 218.73 206.278 219.989 206.287 220.403C206.291 220.624 206.292 220.67 206.221 220.741Z" fill="#F2F2F2"/>
<path d="M207.335 199.984C207.317 199.98 207.299 199.976 207.281 199.97C206.91 199.867 206.612 199.565 206.396 199.073C206.294 198.842 206.271 198.599 206.223 198.114C206.215 198.039 206.182 197.66 206.223 197.159C206.249 196.831 206.285 196.699 206.374 196.596C206.473 196.481 206.607 196.415 206.748 196.382C206.752 196.338 206.766 196.296 206.794 196.256C206.911 196.089 207.105 196.157 207.211 196.193C207.264 196.212 207.33 196.236 207.405 196.249C207.522 196.269 207.592 196.249 207.697 196.218C207.799 196.189 207.925 196.152 208.099 196.155C208.442 196.16 208.697 196.314 208.78 196.365C209.222 196.63 209.374 197.052 209.551 197.542C209.586 197.64 209.702 197.995 209.729 198.451C209.749 198.781 209.706 198.915 209.656 199.012C209.555 199.21 209.4 199.302 209.015 199.495C208.613 199.698 208.411 199.799 208.246 199.851C207.861 199.972 207.619 200.048 207.335 199.984Z" fill="#F2F2F2"/>
<path d="M93.3738 204.936L93.0784 195.633C93.0736 195.482 93.133 195.335 93.2415 195.23C93.3501 195.124 93.499 195.069 93.6502 195.078L101.044 195.521C101.193 195.53 101.333 195.601 101.428 195.716C101.523 195.832 101.566 195.983 101.546 196.131L100.296 205.377C100.258 205.657 100.007 205.862 99.7252 205.843L93.8776 205.457C93.8183 205.453 93.7618 205.44 93.7094 205.418C93.5163 205.34 93.3807 205.155 93.3738 204.936Z" fill="#F50057"/>
<path d="M93.0878 194.763C93.1912 194.752 93.3298 194.739 93.4961 194.725C93.4517 194.642 93.4335 194.544 93.4525 194.444L93.5845 193.747C93.6188 193.566 93.7647 193.428 93.9475 193.403C95.0361 193.258 98.7806 192.864 101.138 193.932C101.286 193.998 101.381 194.145 101.386 194.307L101.407 195.05C101.41 195.142 101.383 195.227 101.336 195.298C101.532 195.351 101.728 195.406 101.921 195.467C102.043 195.505 102.13 195.612 102.144 195.738L102.181 196.055C102.204 196.256 102.039 196.429 101.837 196.415L92.9978 195.819C92.7966 195.805 92.6565 195.614 92.7049 195.418L92.8068 195.007C92.8396 194.875 92.9519 194.777 93.0878 194.763Z" fill="#8F8DAD"/>
<path d="M71.1238 178.538L70.8284 169.235C70.8236 169.084 70.883 168.937 70.9915 168.831C71.1001 168.726 71.249 168.671 71.4002 168.68L78.7939 169.122C78.9433 169.131 79.0834 169.203 79.1784 169.318C79.2735 169.433 79.3165 169.584 79.2965 169.732L78.0457 178.979C78.0078 179.259 77.7573 179.463 77.4752 179.444L71.6276 179.058C71.5683 179.054 71.5118 179.041 71.4594 179.02C71.2663 178.942 71.1307 178.757 71.1238 178.538Z" fill="#F50057"/>
<path d="M70.8378 168.365C70.9412 168.354 71.0798 168.34 71.2461 168.326C71.2017 168.244 71.1835 168.146 71.2025 168.046L71.3345 167.349C71.3688 167.168 71.5147 167.029 71.6975 167.005C72.7861 166.859 76.5306 166.465 78.8885 167.533C79.036 167.6 79.1309 167.747 79.1356 167.908L79.1572 168.652C79.1598 168.744 79.1331 168.829 79.0862 168.9C79.2822 168.952 79.4776 169.008 79.6714 169.068C79.7928 169.106 79.8798 169.214 79.8944 169.34L79.931 169.656C79.9542 169.857 79.7893 170.03 79.5871 170.016L70.7478 169.42C70.5466 169.407 70.4065 169.215 70.4549 169.02L70.5568 168.609C70.5896 168.476 70.7019 168.379 70.8378 168.365Z" fill="#8F8DAD"/>
<path d="M187.093 207.289L186.797 197.986C186.792 197.835 186.852 197.688 186.96 197.582C187.069 197.477 187.218 197.422 187.369 197.431L194.763 197.873C194.912 197.882 195.052 197.954 195.147 198.069C195.242 198.184 195.285 198.335 195.265 198.483L194.014 207.73C193.977 208.01 193.726 208.214 193.444 208.195L187.596 207.809C187.537 207.805 187.481 207.792 187.428 207.771C187.235 207.693 187.099 207.508 187.093 207.289Z" fill="#F50057"/>
<path d="M186.807 197.115C186.91 197.105 187.049 197.091 187.215 197.077C187.17 196.995 187.152 196.897 187.171 196.796L187.303 196.1C187.338 195.919 187.483 195.78 187.666 195.756C188.755 195.61 192.499 195.216 194.857 196.284C195.005 196.351 195.1 196.498 195.104 196.659L195.126 197.403C195.129 197.495 195.102 197.58 195.055 197.65C195.251 197.703 195.446 197.759 195.64 197.819C195.762 197.857 195.849 197.964 195.863 198.091L195.9 198.407C195.923 198.608 195.758 198.781 195.556 198.767L186.717 198.171C186.515 198.158 186.375 197.966 186.424 197.771L186.526 197.36C186.558 197.227 186.671 197.13 186.807 197.115Z" fill="#8F8DAD"/>
</g>
<path d="M85.6019 111.385L82.7755 118.687L79.271 127.742L71.4879 124.96L75.058 114.16L76.9922 108.308L85.6019 111.385Z" fill="#E6E6E6"/>
<path d="M83.2192 106.112L82.1172 105.718L76.89 120.297L77.992 120.691L83.2192 106.112Z" fill="#F50057"/>
<path d="M83.0646 116.74L79.1014 127.138L72.0072 124.602L76.1621 112.245C76.8655 112.294 77.5512 112.488 78.1765 112.813C78.8018 113.139 79.3533 113.589 79.7966 114.137C80.7309 115.26 81.9274 116.113 83.0646 116.74Z" fill="#FFB6B6"/>
<path d="M77.0972 115.937L76.0859 115.575L75.7239 116.585L76.7352 116.946L77.0972 115.937Z" fill="#E6E6E6"/>
<path d="M78.519 114.119L77.5078 113.758L77.1458 114.767L78.157 115.129L78.519 114.119Z" fill="#E6E6E6"/>
<path d="M80.1825 116.323L79.5859 115.432L78.6928 116.027L79.2894 116.919L80.1825 116.323Z" fill="#E6E6E6"/>
<path d="M81.37 118.766L80.7734 117.874L79.8803 118.47L80.4769 119.361L81.37 118.766Z" fill="#E6E6E6"/>
<path d="M77.9013 118.69L77.3047 117.798L76.4115 118.394L77.0081 119.285L77.9013 118.69Z" fill="#E6E6E6"/>
<path d="M81.9415 114.886C82.0556 114.927 82.1813 114.867 82.2221 114.753C82.263 114.639 82.2036 114.514 82.0894 114.473C81.9753 114.432 81.8497 114.492 81.8088 114.606C81.768 114.72 81.8274 114.845 81.9415 114.886Z" fill="#FFB6B6"/>
<path d="M78.2306 112.008C78.3447 112.049 78.4703 111.989 78.5112 111.876C78.552 111.762 78.4926 111.636 78.3785 111.595C78.2644 111.555 78.1388 111.614 78.0979 111.728C78.0571 111.842 78.1164 111.967 78.2306 112.008Z" fill="#FFB6B6"/>
<path d="M82.2618 111.82C82.3759 111.861 82.5016 111.802 82.5424 111.688C82.5833 111.574 82.5239 111.449 82.4098 111.408C82.2956 111.367 82.17 111.426 82.1292 111.54C82.0883 111.654 82.1477 111.78 82.2618 111.82Z" fill="#FFB6B6"/>
<path d="M57.326 123.381C61.3546 122.18 64.4665 120.692 64.2766 120.057C64.0867 119.422 60.6669 119.88 56.6382 121.081C52.6096 122.282 49.4977 123.771 49.6876 124.406C49.8775 125.041 53.2974 124.582 57.326 123.381Z" fill="#9F616A"/>
<path d="M52.9627 122.959C54.2349 122.58 55.0994 121.715 54.8936 121.027C54.6879 120.339 53.4898 120.088 52.2176 120.468C50.9454 120.847 50.0809 121.712 50.2866 122.4C50.4923 123.088 51.6905 123.338 52.9627 122.959Z" fill="#F50057"/>
<path d="M52.1033 123.217C53.3755 122.838 54.24 121.973 54.0343 121.285C53.8285 120.596 52.6304 120.346 51.3582 120.725C50.086 121.105 49.2215 121.97 49.4272 122.658C49.633 123.346 50.8311 123.596 52.1033 123.217Z" fill="#F50057"/>
<path d="M62.2673 120.499C63.5395 120.12 64.4041 119.255 64.1983 118.567C63.9926 117.879 62.7945 117.628 61.5223 118.008C60.2501 118.387 59.3855 119.252 59.5913 119.94C59.797 120.628 60.9951 120.878 62.2673 120.499Z" fill="#F50057"/>
<path d="M56.9002 121.786C58.1724 121.407 59.0369 120.542 58.8311 119.854C58.6254 119.166 57.4273 118.916 56.1551 119.295C54.8829 119.674 54.0184 120.539 54.2241 121.227C54.4298 121.915 55.628 122.166 56.9002 121.786Z" fill="#F50057"/>
<path d="M60.8377 120.613C62.1099 120.233 62.9744 119.368 62.7686 118.68C62.5629 117.992 61.3648 117.742 60.0926 118.121C58.8204 118.5 57.9559 119.365 58.1616 120.053C58.3673 120.741 59.5655 120.992 60.8377 120.613Z" fill="#F50057"/>
<path d="M63.2066 117.714C59.4653 120.365 54.7943 121.758 49.1936 121.891L49.1355 121.697C48.6961 120.231 48.838 118.652 49.5319 117.287C50.2257 115.923 51.4184 114.877 52.8632 114.365C54.0792 113.935 55.3166 113.568 56.5705 113.265C57.9132 112.949 59.3264 113.157 60.5198 113.849C61.7132 114.54 62.5963 115.661 62.9877 116.982L63.2066 117.714Z" fill="#FFECCF"/>
<path d="M62.7436 123.603C59.7597 124.83 56.6596 125.755 53.4902 126.361C52.739 126.508 51.9602 126.37 51.3051 125.975C50.6501 125.58 50.1654 124.955 49.9453 124.224L64.5343 119.875C64.7521 120.607 64.6894 121.394 64.3585 122.083C64.0276 122.772 63.4521 123.314 62.7436 123.603Z" fill="#FFECCF"/>
<path d="M53.0496 116.254C52.7567 116.493 52.4193 116.672 52.0569 116.78C51.6944 116.888 51.3142 116.923 50.938 116.884C51.231 116.645 51.5684 116.466 51.9308 116.358C52.2932 116.25 52.6734 116.215 53.0496 116.254Z" fill="#D0CDE1"/>
<path d="M55.4168 116.487C55.1239 116.726 54.7865 116.904 54.4241 117.012C54.0617 117.12 53.6814 117.156 53.3052 117.116C53.5982 116.877 53.9356 116.699 54.298 116.591C54.6604 116.482 55.0406 116.447 55.4168 116.487Z" fill="#D0CDE1"/>
<path d="M55.1512 114.896C54.8582 115.135 54.5208 115.313 54.1584 115.421C53.796 115.529 53.4158 115.565 53.0396 115.525C53.3325 115.286 53.6699 115.108 54.0323 115C54.3948 114.892 54.775 114.856 55.1512 114.896Z" fill="#D0CDE1"/>
<path d="M59.0887 113.723C58.7958 113.962 58.4584 114.14 58.0959 114.249C57.7335 114.357 57.3533 114.392 56.9771 114.352C57.27 114.114 57.6074 113.935 57.9699 113.827C58.3323 113.719 58.7125 113.684 59.0887 113.723Z" fill="#D0CDE1"/>
<path d="M58.2918 114.901C57.9989 115.14 57.6615 115.318 57.2991 115.426C56.9366 115.534 56.5564 115.57 56.1802 115.53C56.4732 115.291 56.8105 115.113 57.173 115.005C57.5354 114.897 57.9156 114.861 58.2918 114.901Z" fill="#D0CDE1"/>
</g>
</g>
<defs>
<filter id="filter0_d_649_19390" x="0" y="0" width="272" height="272" filterUnits="userSpaceOnUse" color-interpolation-filters="sRGB">
<feFlood flood-opacity="0" result="BackgroundImageFix"/>
<feColorMatrix in="SourceAlpha" type="matrix" values="0 0 0 0 0 0 0 0 0 0 0 0 0 0 0 0 0 0 127 0" result="hardAlpha"/>
<feOffset dy="2"/>
<feGaussianBlur stdDeviation="3"/>
<feComposite in2="hardAlpha" operator="out"/>
<feColorMatrix type="matrix" values="0 0 0 0 0 0 0 0 0 0 0 0 0 0 0 0 0 0 0.08 0"/>
<feBlend mode="normal" in2="BackgroundImageFix" result="effect1_dropShadow_649_19390"/>
<feBlend mode="normal" in="SourceGraphic" in2="effect1_dropShadow_649_19390" result="shape"/>
</filter>
<clipPath id="clip0_649_19390">
<rect width="200" height="181.132" fill="white" transform="translate(36 61)"/>
</clipPath>
<clipPath id="clip1_649_19390">
<rect width="190.576" height="124.937" fill="white" transform="translate(40.7109 151.436)"/>
</clipPath>
</defs>
</svg>
