<svg width="272" height="272" viewBox="0 0 272 272" fill="none" xmlns="http://www.w3.org/2000/svg">
<g filter="url(#filter0_d_649_19542)">
<rect x="6" y="4" width="260" height="260" rx="8" fill="white"/>
<path d="M64.125 24.4707V29.8711H67.4941C69.3008 29.8711 70.3262 28.8945 70.3262 27.166C70.3262 25.4766 69.2324 24.4707 67.416 24.4707H64.125ZM64.125 31.4238V37H62.3672V22.9082H67.6504C70.3652 22.9082 72.1426 24.5684 72.1426 27.1074C72.1426 29.0703 71.0781 30.5938 69.3105 31.1504L72.5723 37H70.5117L67.4941 31.4238H64.125ZM78.168 28.1426C76.5762 28.1426 75.4629 29.3633 75.3555 31.0527H80.873C80.834 29.3535 79.7695 28.1426 78.168 28.1426ZM80.834 34.0898H82.5039C82.2109 35.8672 80.4922 37.1758 78.2754 37.1758C75.3652 37.1758 73.5977 35.1543 73.5977 31.9609C73.5977 28.8066 75.3945 26.668 78.1973 26.668C80.9414 26.668 82.6309 28.6602 82.6309 31.7363V32.3809H75.3457V32.4785C75.3457 34.4219 76.4883 35.7012 78.3145 35.7012C79.6035 35.7012 80.5508 35.0469 80.834 34.0898ZM84.1738 29.6465C84.1738 27.9082 85.7266 26.668 87.9629 26.668C90.0625 26.668 91.6055 27.918 91.6836 29.6367H90.0625C89.9453 28.6602 89.1543 28.0547 87.9043 28.0547C86.6641 28.0547 85.8438 28.6699 85.8438 29.5586C85.8438 30.2617 86.3809 30.7305 87.5332 31.0234L89.1055 31.4043C91.1562 31.9219 91.8984 32.6641 91.8984 34.1582C91.8984 35.9258 90.2285 37.1758 87.8555 37.1758C85.6289 37.1758 84.0762 35.9648 83.9004 34.168H85.5996C85.7852 35.2227 86.5859 35.7891 87.9629 35.7891C89.3398 35.7891 90.1895 35.2031 90.1895 34.2852C90.1895 33.5625 89.7695 33.1719 88.627 32.8691L86.8398 32.4102C85.0527 31.9512 84.1738 31.0332 84.1738 29.6465ZM97.7383 28.1426C96.1465 28.1426 95.0332 29.3633 94.9258 31.0527H100.443C100.404 29.3535 99.3398 28.1426 97.7383 28.1426ZM100.404 34.0898H102.074C101.781 35.8672 100.062 37.1758 97.8457 37.1758C94.9355 37.1758 93.168 35.1543 93.168 31.9609C93.168 28.8066 94.9648 26.668 97.7676 26.668C100.512 26.668 102.201 28.6602 102.201 31.7363V32.3809H94.916V32.4785C94.916 34.4219 96.0586 35.7012 97.8848 35.7012C99.1738 35.7012 100.121 35.0469 100.404 34.0898ZM103.92 37V26.8438H105.521V28.5039H105.561C105.893 27.3809 106.83 26.668 108.021 26.668C108.314 26.668 108.568 26.7168 108.705 26.7363V28.3867C108.568 28.3379 108.207 28.2891 107.797 28.2891C106.479 28.2891 105.619 29.2363 105.619 30.6719V37H103.92ZM118.422 26.8438L114.691 37H112.953L109.213 26.8438H111L113.803 35.1934H113.842L116.654 26.8438H118.422ZM123.539 28.1426C121.947 28.1426 120.834 29.3633 120.727 31.0527H126.244C126.205 29.3535 125.141 28.1426 123.539 28.1426ZM126.205 34.0898H127.875C127.582 35.8672 125.863 37.1758 123.646 37.1758C120.736 37.1758 118.969 35.1543 118.969 31.9609C118.969 28.8066 120.766 26.668 123.568 26.668C126.312 26.668 128.002 28.6602 128.002 31.7363V32.3809H120.717V32.4785C120.717 34.4219 121.859 35.7012 123.686 35.7012C124.975 35.7012 125.922 35.0469 126.205 34.0898ZM138.471 37V28.2402H137.055V26.8438H138.471V25.7109C138.471 23.7578 139.379 22.8301 141.254 22.8301C141.635 22.8301 142.045 22.8691 142.289 22.9082V24.2852C142.084 24.2559 141.801 24.2266 141.518 24.2266C140.6 24.2266 140.16 24.7148 140.16 25.7207V26.8438H142.24V28.2402H140.17V37H138.471ZM147.719 37.1758C144.906 37.1758 143.012 35.1543 143.012 31.9219C143.012 28.6797 144.906 26.668 147.719 26.668C150.521 26.668 152.416 28.6797 152.416 31.9219C152.416 35.1543 150.521 37.1758 147.719 37.1758ZM147.719 35.6816C149.516 35.6816 150.688 34.3145 150.688 31.9219C150.688 29.5293 149.516 28.1621 147.719 28.1621C145.922 28.1621 144.74 29.5293 144.74 31.9219C144.74 34.3145 145.922 35.6816 147.719 35.6816ZM154.135 37V26.8438H155.736V28.5039H155.775C156.107 27.3809 157.045 26.668 158.236 26.668C158.529 26.668 158.783 26.7168 158.92 26.7363V28.3867C158.783 28.3379 158.422 28.2891 158.012 28.2891C156.693 28.2891 155.834 29.2363 155.834 30.6719V37H154.135ZM173.402 35.418V37H164.672V22.9082H173.402V24.4902H166.43V29.0117H173.041V30.5742H166.43V35.418H173.402ZM183.793 26.8438L180.062 37H178.324L174.584 26.8438H176.371L179.174 35.1934H179.213L182.025 26.8438H183.793ZM188.91 28.1426C187.318 28.1426 186.205 29.3633 186.098 31.0527H191.615C191.576 29.3535 190.512 28.1426 188.91 28.1426ZM191.576 34.0898H193.246C192.953 35.8672 191.234 37.1758 189.018 37.1758C186.107 37.1758 184.34 35.1543 184.34 31.9609C184.34 28.8066 186.137 26.668 188.939 26.668C191.684 26.668 193.373 28.6602 193.373 31.7363V32.3809H186.088V32.4785C186.088 34.4219 187.23 35.7012 189.057 35.7012C190.346 35.7012 191.293 35.0469 191.576 34.0898ZM195.092 37V26.8438H196.693V28.4648H196.732C197.299 27.3711 198.383 26.668 199.955 26.668C202.182 26.668 203.471 28.1035 203.471 30.4082V37H201.771V30.7109C201.771 29.0703 201 28.1719 199.438 28.1719C197.836 28.1719 196.791 29.3047 196.791 31.0234V37H195.092ZM206.186 24.3926H207.885V26.8438H209.857V28.2402H207.885V34.2754C207.885 35.2031 208.275 35.623 209.145 35.623C209.34 35.623 209.73 35.5938 209.848 35.5742V37C209.643 37.0488 209.174 37.0781 208.773 37.0781C206.908 37.0781 206.186 36.3164 206.186 34.3633V28.2402H204.672V26.8438H206.186V24.3926Z" fill="#272727"/>
<g clip-path="url(#clip0_649_19542)">
<path d="M210.363 189.705L212.35 174.299C219.689 171.089 227.683 169.759 235.639 170.425C223.917 178.601 223.787 196.357 215.322 208C212.654 211.611 209.226 214.562 205.291 216.634C201.357 218.706 197.016 219.847 192.592 219.971L182.946 224.891C182.298 217.616 183.2 210.285 185.59 203.401C187.98 196.517 191.801 190.245 196.791 185.017C199.618 182.112 202.792 179.583 206.238 177.489C207.929 183.597 210.363 189.705 210.363 189.705Z" fill="#F2F2F2"/>
<path d="M189.09 95.9922C189.603 94.7822 190.38 93.7087 191.363 92.8546C192.345 92.0005 193.507 91.3887 194.757 91.0665C197.534 90.3281 201.6 91.4529 203.687 93.0678C207.505 96.0219 208.437 106.17 205.814 109.377C205.292 109.356 203.492 109.34 202.964 109.325L202.216 107.392V109.306C198.094 109.207 193.803 109.269 189.509 109.333C189.124 107.062 188.208 98.1764 189.09 95.9922Z" fill="#2F2E41"/>
<path d="M189.791 218.365L186.031 218.365L184.242 203.539L189.791 203.539L189.791 218.365Z" fill="#9E616A"/>
<path d="M222.707 215.974L219.068 216.944L213.68 203.059L219.049 201.628L222.707 215.974Z" fill="#9E616A"/>
<path d="M194.838 106.93C198.126 106.93 200.792 104.204 200.792 100.842C200.792 97.4795 198.126 94.7539 194.838 94.7539C191.549 94.7539 188.883 97.4795 188.883 100.842C188.883 104.204 191.549 106.93 194.838 106.93Z" fill="#9E616A"/>
<path d="M190.739 92.9145C191.883 92.2014 193.194 91.8156 194.534 91.7975C195.873 91.7795 197.194 92.1298 198.356 92.8118C199.518 93.4938 200.479 94.4825 201.14 95.6746C201.8 96.8666 202.136 98.2181 202.11 99.5878C198.864 100.436 195.405 100.791 191.74 99.7921L190.902 97.6955L190.408 99.7936C189.286 100.6 188.204 100.599 187.16 99.7893C187.116 98.4234 187.423 97.0696 188.051 95.8632C188.679 94.6568 189.606 93.64 190.739 92.9145Z" fill="#2F2E41"/>
<path d="M191.475 225.663H188.807L188.331 223.088L187.112 225.663H180.036C179.697 225.663 179.367 225.552 179.093 225.346C178.82 225.141 178.618 224.851 178.517 224.52C178.416 224.189 178.422 223.834 178.532 223.506C178.643 223.178 178.853 222.895 179.132 222.698L184.783 218.709V216.105L190.726 216.468L191.475 225.663Z" fill="#2F2E41"/>
<path d="M226.468 222.515L223.886 223.203L222.79 220.834L222.245 223.641L215.398 225.465C215.07 225.553 214.723 225.531 214.408 225.402C214.093 225.274 213.826 225.046 213.647 224.752C213.467 224.457 213.385 224.112 213.411 223.766C213.437 223.421 213.571 223.093 213.792 222.83L218.276 217.512L217.633 214.993L223.474 213.812L226.468 222.515Z" fill="#2F2E41"/>
<path d="M222.251 206.651C219.95 197.906 217.391 189.354 211.23 183.494L209.534 158.048C211.92 153.519 205.726 141.566 205.726 141.566L203.563 138.346L188.566 141.006C185.056 150.793 183.345 153.206 183.547 171.583C183.748 189.96 184.238 209.048 184.238 209.048H184.021C183.661 209.048 183.316 209.194 183.062 209.454C182.807 209.714 182.664 210.067 182.664 210.435C182.664 210.803 182.807 211.156 183.062 211.416C183.316 211.677 183.661 211.823 184.021 211.823H190.807C191.167 211.823 191.512 211.677 191.767 211.416C192.021 211.156 192.164 210.803 192.164 210.435C192.164 210.067 192.021 209.714 191.767 209.454C191.512 209.194 191.167 209.048 190.807 209.048H190.632C194.615 197.602 195.327 179.997 195.503 161.386L201.168 184.906L214.856 206.562C214.507 206.589 214.182 206.755 213.949 207.022C213.716 207.29 213.594 207.639 213.608 207.997C213.622 208.355 213.772 208.693 214.024 208.941C214.277 209.188 214.614 209.326 214.965 209.325H221.75C222.066 209.326 222.372 209.213 222.615 209.008C222.858 208.803 223.024 208.517 223.083 208.2C223.143 207.883 223.092 207.555 222.94 207.272C222.788 206.989 222.544 206.769 222.251 206.651Z" fill="#2F2E41"/>
<path d="M207.267 143.938C207.21 143.712 207.085 143.509 206.91 143.36C206.734 143.211 206.516 143.122 206.288 143.107C204.442 141.191 203.058 124.186 204.511 123.01L204.508 122.989L204.076 113.538C204.06 113.195 203.921 112.87 203.686 112.625C203.45 112.38 203.135 112.232 202.799 112.209L200.514 112.056C200.482 112.055 200.453 112.042 200.431 112.019C200.409 111.996 200.397 111.965 200.397 111.933C200.397 111.675 200.347 111.419 200.25 111.181C200.154 110.942 200.012 110.726 199.834 110.543C199.655 110.361 199.443 110.216 199.21 110.117C198.977 110.019 198.727 109.968 198.475 109.968H191.707C191.269 109.968 190.846 110.132 190.517 110.428C190.189 110.725 189.977 111.134 189.923 111.578C189.92 111.609 189.905 111.637 189.883 111.658C189.86 111.678 189.831 111.689 189.801 111.688L189.8 111.688C189.031 111.672 188.282 111.938 187.689 112.438C187.095 112.939 186.697 113.64 186.566 114.414C185.641 119.917 186.078 131.402 186.994 138.346C187.314 140.763 184.878 145.404 184.757 147.426C184.745 147.621 184.771 147.817 184.833 148.003C184.895 148.188 184.992 148.359 185.119 148.505C184.85 148.585 184.62 148.768 184.48 149.017C184.34 149.266 184.3 149.561 184.369 149.839C184.439 150.125 184.617 150.37 184.865 150.521C185.112 150.672 185.407 150.716 185.687 150.644L206.479 145.286C206.759 145.214 206.998 145.031 207.146 144.779C207.294 144.526 207.337 144.224 207.267 143.938Z" fill="#F50057"/>
<path d="M162.547 120.629C162.907 120.485 163.295 120.423 163.681 120.449C164.068 120.475 164.444 120.586 164.784 120.777C165.123 120.967 165.418 121.231 165.647 121.55C165.876 121.87 166.034 122.236 166.109 122.625L187.003 127.219L183.772 130.975L163.844 125.872C163.197 125.958 162.542 125.799 162.003 125.424C161.463 125.05 161.077 124.486 160.917 123.84C160.757 123.193 160.835 122.509 161.135 121.918C161.435 121.326 161.938 120.867 162.547 120.629Z" fill="#9E616A"/>
<path d="M190.054 132.398C186.828 134.124 167.341 127.371 166.49 127.075L166.273 126.999L170.281 123.233L185.698 125.541L186.165 116.312C186.218 115.294 186.578 114.317 187.195 113.516C187.811 112.714 188.656 112.128 189.611 111.836C190.458 111.578 191.357 111.563 192.211 111.792C193.066 112.021 193.842 112.485 194.457 113.133C195.071 113.782 195.5 114.59 195.696 115.47C195.892 116.35 195.849 117.269 195.57 118.125L191.755 129.853C191.461 130.753 190.959 131.568 190.291 132.227C190.221 132.295 190.14 132.353 190.054 132.398Z" fill="#F50057"/>
<path d="M172.233 225.48H51.6261L51.5962 225.383L51.5663 225.286C51.172 224.004 50.8114 222.705 50.4869 221.397C50.1623 220.09 49.8738 218.773 49.6236 217.458C49.2835 215.672 49.011 213.868 48.8075 212.057C48.604 210.247 48.4695 208.43 48.4053 206.62C48.2939 203.412 48.8168 200.214 49.9427 197.218C51.0686 194.221 52.7743 191.488 54.9578 189.181C57.1413 186.874 59.7576 185.041 62.6501 183.793C65.5427 182.544 68.652 181.905 71.7918 181.913H154.353C157.637 181.907 160.884 182.609 163.884 183.972C166.884 185.336 169.57 187.331 171.765 189.826C173.961 192.322 175.617 195.263 176.626 198.457C177.635 201.651 177.974 205.027 177.622 208.364C177.386 210.521 176.991 212.658 176.44 214.754C175.87 216.923 175.151 219.048 174.287 221.113C173.994 221.816 173.681 222.521 173.35 223.228C173.019 223.933 172.673 224.635 172.309 225.333L172.271 225.407L172.233 225.48Z" fill="#FFEFEF"/>
<path d="M155.241 190.654H68.6539C66.7462 190.654 64.9166 189.879 63.5677 188.5C62.2188 187.121 61.4609 185.25 61.4609 183.3C61.4609 181.35 62.2188 179.479 63.5677 178.1C64.9166 176.721 66.7462 175.946 68.6539 175.946H155.241C157.148 175.946 158.978 176.721 160.327 178.1C161.676 179.479 162.434 181.35 162.434 183.3C162.434 185.25 161.676 187.121 160.327 188.5C158.978 189.879 157.148 190.654 155.241 190.654Z" fill="#F50057"/>
<path d="M156.336 185.568H68.2004L68.1408 185.374C66.7772 180.952 66.0001 176.363 65.8302 171.729C65.7521 169.378 66.1379 167.036 66.9645 164.84C67.7911 162.645 69.0416 160.643 70.6415 158.953C72.2414 157.262 74.1579 155.919 76.2766 155.002C78.3954 154.085 80.673 153.614 82.9738 153.616H143.241C145.648 153.614 148.027 154.129 150.226 155.129C152.424 156.129 154.392 157.592 156.001 159.421C157.61 161.25 158.825 163.405 159.565 165.746C160.305 168.087 160.555 170.561 160.298 173.007C159.854 177.149 158.547 181.326 156.413 185.421L156.336 185.568Z" fill="#FFEFEF"/>
<path d="M144.386 162.905H80.5992C78.6915 162.905 76.862 162.13 75.513 160.751C74.1641 159.372 73.4062 157.501 73.4062 155.551C73.4062 153.601 74.1641 151.73 75.513 150.351C76.862 148.972 78.6915 148.197 80.5992 148.197H144.386C146.293 148.197 148.123 148.972 149.472 150.351C150.821 151.73 151.579 153.601 151.579 155.551C151.579 157.501 150.821 159.372 149.472 160.751C148.123 162.13 146.293 162.905 144.386 162.905Z" fill="#F50057"/>
<path d="M148.632 137.038C147.295 135.515 145.659 134.296 143.831 133.462C142.003 132.627 140.024 132.195 138.022 132.193H88.1894C86.2811 132.191 84.3919 132.582 82.6345 133.343C80.8772 134.103 79.2876 135.218 77.9605 136.62C76.6335 138.022 75.5961 139.683 74.9104 141.503C74.2246 143.324 73.9045 145.267 73.9691 147.217C74.1092 151.053 74.7519 154.853 75.88 158.514L75.9397 158.708H148.876L148.952 158.561C150.656 155.374 151.748 151.883 152.169 148.277C152.384 146.255 152.18 144.209 151.571 142.273C150.962 140.336 149.96 138.553 148.632 137.038Z" fill="#FFEFEF"/>
<path d="M137.117 132.193H90.0455C89.6958 133.297 89.6064 134.469 89.7846 135.615C89.9628 136.761 90.4035 137.847 91.0708 138.785C91.7381 139.723 92.613 140.487 93.6241 141.013C94.6351 141.54 95.7536 141.814 96.8883 141.814H130.274C131.409 141.814 132.528 141.54 133.539 141.013C134.55 140.487 135.425 139.723 136.092 138.785C136.759 137.847 137.2 136.761 137.378 135.615C137.556 134.469 137.467 133.297 137.117 132.193Z" fill="#F50057"/>
<path d="M174.038 221.004C173.452 222.408 172.796 223.808 172.07 225.203H51.8259C51.0381 222.643 50.3919 220.039 49.8906 217.405C50.1148 217.227 50.374 217.1 50.6504 217.034C50.9268 216.968 51.2139 216.964 51.4921 217.022C52.0651 217.208 52.5603 217.585 52.8981 218.093C53.9105 219.436 54.334 221.137 54.733 222.786C55.1591 221.814 55.6016 220.818 56.3453 220.069C56.6413 219.755 56.9977 219.508 57.392 219.342C57.7863 219.176 58.21 219.096 58.6362 219.106C58.9374 218.555 59.3673 218.089 59.8875 217.749C60.6176 217.305 61.6138 217.244 62.2788 217.78C62.7251 218.191 63.0225 218.744 63.123 219.35C63.4948 221.004 63.1854 222.73 62.8759 224.401C63.6604 223.696 64.4693 222.98 65.4491 222.616C65.8926 222.45 66.3647 222.38 66.8361 222.408C66.9284 221.485 67.1667 220.584 67.5419 219.739C67.8592 218.929 68.4078 218.236 69.1162 217.749C69.8463 217.305 70.8425 217.244 71.5075 217.78C71.9538 218.191 72.2512 218.744 72.3516 219.35C72.7235 221.004 72.4141 222.73 72.1046 224.401C72.8891 223.696 73.698 222.98 74.6778 222.616C75.1213 222.45 75.5934 222.38 76.0648 222.408C76.1571 221.485 76.3954 220.584 76.7706 219.739C77.0879 218.929 77.6365 218.236 78.3449 217.749C79.075 217.305 80.0712 217.244 80.7362 217.78C81.1825 218.191 81.4799 218.744 81.5803 219.35C81.9522 221.004 81.6428 222.73 81.3333 224.401C82.1178 223.696 82.9267 222.98 83.9065 222.616C84.35 222.45 84.8221 222.38 85.2935 222.408C85.3858 221.485 85.6241 220.584 85.9993 219.739C86.3166 218.929 86.8652 218.236 87.5736 217.749C88.3037 217.305 89.2999 217.244 89.9649 217.78C90.4112 218.191 90.7086 218.744 90.809 219.35C91.1809 221.004 90.8715 222.73 90.562 224.401C91.3465 223.696 92.1554 222.98 93.1352 222.616C93.5787 222.45 94.0508 222.38 94.5222 222.408C94.6145 221.485 94.8528 220.584 95.228 219.739C95.5453 218.929 96.0939 218.236 96.8023 217.749C97.5324 217.305 98.5286 217.244 99.1936 217.78C99.6399 218.191 99.9373 218.744 100.038 219.35C100.41 221.004 100.1 222.73 99.7907 224.401C100.575 223.696 101.384 222.98 102.364 222.616C102.807 222.45 103.28 222.38 103.751 222.408C103.843 221.485 104.082 220.584 104.457 219.739C104.774 218.929 105.323 218.236 106.031 217.749C106.761 217.305 107.757 217.244 108.422 217.78C108.869 218.191 109.166 218.744 109.266 219.35C109.638 221.004 109.329 222.73 109.019 224.401C109.804 223.696 110.613 222.98 111.593 222.616C112.036 222.45 112.508 222.38 112.98 222.408C113.072 221.485 113.31 220.584 113.685 219.739C114.003 218.929 114.551 218.236 115.26 217.749C115.99 217.305 116.986 217.244 117.651 217.78C118.097 218.191 118.395 218.744 118.495 219.35C118.867 221.004 118.558 222.73 118.248 224.401C119.033 223.696 119.841 222.98 120.821 222.616C121.265 222.45 121.737 222.38 122.208 222.408C122.301 221.485 122.539 220.584 122.914 219.739C123.231 218.929 123.78 218.236 124.488 217.749C125.219 217.305 126.215 217.244 126.88 217.78C127.326 218.191 127.623 218.744 127.724 219.35C128.096 221.004 127.786 222.73 127.477 224.401C128.261 223.696 129.07 222.98 130.05 222.616C130.493 222.45 130.966 222.38 131.437 222.408C131.529 221.485 131.768 220.584 132.143 219.739C132.46 218.929 133.009 218.236 133.717 217.749C134.447 217.305 135.443 217.244 136.108 217.78C136.555 218.191 136.852 218.744 136.953 219.35C137.324 221.004 137.015 222.73 136.706 224.401C137.49 223.696 138.299 222.98 139.279 222.616C139.722 222.45 140.194 222.38 140.666 222.408C140.758 221.485 140.996 220.584 141.371 219.739C141.689 218.929 142.237 218.236 142.946 217.749C143.676 217.305 144.672 217.244 145.337 217.78C145.783 218.191 146.081 218.744 146.181 219.35C146.553 221.004 146.244 222.73 145.934 224.401C146.719 223.696 147.528 222.98 148.507 222.616C148.951 222.45 149.423 222.38 149.894 222.408C149.987 221.485 150.225 220.584 150.6 219.739C150.917 218.929 151.466 218.236 152.174 217.749C152.905 217.305 153.901 217.244 154.566 217.78C155.012 218.191 155.309 218.744 155.41 219.35C155.782 221.004 155.472 222.73 155.163 224.401C155.947 223.696 156.756 222.98 157.736 222.616C158.18 222.45 158.652 222.38 159.123 222.408C159.215 221.485 159.454 220.584 159.829 219.739C160.146 218.929 160.695 218.236 161.403 217.749C162.133 217.305 163.129 217.244 163.794 217.78C164.241 218.191 164.538 218.744 164.639 219.35C165.01 221.004 164.701 222.73 164.392 224.401C165.176 223.696 165.985 222.98 166.965 222.616C167.408 222.45 167.88 222.38 168.352 222.408C168.444 221.485 168.682 220.584 169.058 219.739C169.375 218.929 169.923 218.236 170.632 217.749C171.362 217.305 172.358 217.244 173.023 217.78C173.469 218.191 173.767 218.744 173.867 219.35C173.985 219.893 174.043 220.448 174.038 221.004Z" fill="#CCCCCC"/>
<path d="M75.811 141.22C77.7155 140.361 80.0124 140.687 81.7125 141.872C83.5027 143.121 84.3361 145.32 84.1184 147.489C83.9978 148.734 83.5042 149.911 82.7052 150.858L82.9931 150.736C82.1066 150.725 81.6211 149.665 81.7558 148.864C81.9382 147.779 83.15 147.218 84.113 147.136C85.4239 147.025 86.6844 147.606 87.8665 148.108C89.1352 148.65 90.4348 149.114 91.7582 149.497C94.4497 150.265 97.2241 150.688 100.018 150.756C101.395 150.79 102.773 150.735 104.143 150.591C105.395 150.459 106.679 150.297 107.854 149.809C109.041 149.317 110.067 148.507 110.574 147.275C110.824 146.73 110.925 146.126 110.867 145.527C110.809 144.928 110.593 144.356 110.243 143.872C110.192 143.821 110.13 143.784 110.061 143.766C109.992 143.747 109.92 143.747 109.852 143.766C109.783 143.784 109.72 143.821 109.67 143.871C109.619 143.922 109.582 143.986 109.562 144.056C109.375 145.005 109.382 145.985 109.585 146.932C109.789 147.878 110.182 148.771 110.742 149.554C111.336 150.389 112.107 151.076 112.997 151.564C113.887 152.052 114.873 152.328 115.882 152.373C118.186 152.5 120.439 151.587 122.44 150.506C124.531 149.376 126.438 147.929 128.564 146.861C130.614 145.832 132.977 145.073 135.258 145.691C137.076 146.183 138.998 147.807 138.398 149.941C138.166 150.766 137.52 151.46 136.641 151.457C135.896 151.455 135.036 150.973 134.946 150.149C134.838 149.161 135.763 148.385 136.587 148.094C137.766 147.677 139.081 147.989 140.287 148.094C142.268 148.276 144.244 147.704 145.839 146.489C147.376 145.345 148.497 143.709 149.022 141.841C149.146 141.365 149.226 140.878 149.262 140.387C149.304 139.853 148.489 139.856 148.448 140.387C148.347 141.389 148.053 142.36 147.583 143.245C147.113 144.13 146.476 144.911 145.709 145.542C144.946 146.194 144.064 146.685 143.115 146.989C142.084 147.29 141.003 147.372 139.94 147.228C138.717 147.101 137.402 146.872 136.221 147.348C135.316 147.712 134.442 148.434 134.194 149.437C133.712 151.387 135.895 152.801 137.569 152.11C139.447 151.334 139.736 148.744 138.736 147.158C137.534 145.252 135.135 144.51 133.016 144.652C127.982 144.989 124.329 149.114 119.786 150.831C117.642 151.642 115.166 151.955 113.116 150.7C112.286 150.173 111.592 149.449 111.091 148.591C110.59 147.733 110.298 146.765 110.238 145.768C110.21 145.268 110.247 144.767 110.348 144.277L109.667 144.46C110.175 145.131 110.153 146.048 109.883 146.812C109.554 147.667 108.925 148.366 108.118 148.772C107.232 149.215 106.277 149.5 105.296 149.614C104.209 149.775 103.114 149.874 102.016 149.91C97.5986 150.075 93.1938 149.327 89.0659 147.709C87.2058 146.979 85.2347 145.852 83.1866 146.473C81.6429 146.942 80.4593 148.451 81.1047 150.119C81.2228 150.467 81.4247 150.78 81.6919 151.027C81.959 151.274 82.2828 151.449 82.6334 151.535C82.819 151.592 83.018 151.584 83.1986 151.512C83.3639 151.38 83.5039 151.218 83.6115 151.034C83.8852 150.667 84.1188 150.27 84.3082 149.851C85.0292 148.248 85.1627 146.433 84.6843 144.738C83.5501 140.801 79.0113 138.872 75.4 140.501C74.9215 140.717 75.3355 141.435 75.811 141.22Z" fill="#3F3D56"/>
<path d="M66.9067 166.02C68.0724 168.891 69.8474 171.461 72.1035 173.545C74.3596 175.629 77.0403 177.175 79.9519 178.07C80.944 178.378 81.9613 178.594 82.9913 178.715C83.9724 178.823 85.049 178.76 85.8612 178.124C87.031 177.207 87.0058 174.587 85.1532 174.607C84.2374 174.616 83.471 175.474 83.3571 176.365C83.2243 177.404 83.8565 178.376 84.6142 179.004C86.2766 180.383 88.5572 180.553 90.5838 180.122C92.9112 179.626 94.9509 178.281 96.9917 177.102C99.3285 175.752 102.105 174.397 104.854 175.12C106.938 175.669 108.839 177.905 108.16 180.189L108.758 179.94C107.853 179.521 107.633 178.362 107.988 177.475C108.433 176.365 109.733 175.95 110.812 175.951C112.234 175.952 113.548 176.627 114.811 177.221C115.972 177.78 117.179 178.235 118.418 178.581C123.303 179.879 128.477 179.41 133.063 177.253C134.188 176.732 135.259 176.096 136.26 175.356C137.052 174.759 137.966 173.714 137.328 172.666C137.211 172.462 137.046 172.29 136.848 172.166C136.651 172.043 136.427 171.97 136.195 171.956C135.638 171.953 135.394 172.349 135.22 172.832C134.876 173.86 134.872 174.974 135.209 176.005C135.916 178.288 137.8 179.864 140.034 180.439C142.506 181.075 145.166 180.641 147.555 179.855C152.124 178.337 156.059 175.291 158.726 171.207C159.06 170.694 159.368 170.165 159.655 169.624C159.906 169.153 159.203 168.732 158.952 169.204C156.761 173.288 153.304 176.511 149.125 178.367C145.29 180.07 138.94 181.324 136.432 176.802C135.913 175.91 135.693 174.869 135.807 173.838C135.852 173.512 135.955 172.567 136.423 172.876C136.954 173.225 136.665 173.841 136.328 174.21C135.567 175.041 134.418 175.624 133.438 176.141C132.387 176.693 131.291 177.15 130.162 177.505C125.589 178.964 120.663 178.768 116.214 176.951C113.853 175.962 111.159 174.208 108.599 175.658C108.135 175.908 107.745 176.28 107.467 176.735C107.189 177.189 107.034 177.711 107.017 178.247C106.988 179.231 107.442 180.24 108.347 180.659C108.401 180.69 108.461 180.708 108.523 180.712C108.585 180.715 108.647 180.705 108.704 180.681C108.761 180.657 108.813 180.621 108.855 180.574C108.896 180.527 108.927 180.471 108.945 180.41C109.454 178.699 108.749 176.908 107.513 175.715C106.06 174.311 104.081 173.91 102.141 174.183C97.7335 174.805 94.5383 178.5 90.2245 179.348C88.3636 179.714 86.0675 179.508 84.7287 177.971C84.1306 177.284 83.7929 175.893 84.9111 175.489C85.7316 175.192 85.9882 176.187 85.8053 176.799C85.2401 178.689 82.1169 177.795 80.8209 177.452C79.0385 176.977 77.3319 176.244 75.7529 175.275C72.14 173.083 69.3135 169.761 67.6919 165.799C67.4965 165.31 66.7084 165.524 66.9067 166.02Z" fill="#CCCCCC"/>
<path d="M49.4946 201.328C55.737 200.126 63.4121 198.914 68.0946 204.458C69.0234 205.534 69.6652 206.837 69.958 208.241C70.0819 208.872 70.2372 209.573 69.6104 209.963C69.3691 210.105 69.0965 210.183 68.8179 210.189C68.5393 210.195 68.2637 210.129 68.0168 209.997C66.6492 209.221 67.4111 207.157 68.4405 206.481C69.8423 205.56 71.6456 205.954 73.0844 206.553C74.6452 207.203 76.1216 208.034 77.701 208.647C79.1939 209.226 80.7246 209.696 82.2819 210.056C85.5076 210.803 88.8195 211.087 92.1218 210.898C95.3242 210.748 98.487 210.112 101.506 209.01C102.662 208.57 103.864 207.933 104.567 206.856C104.891 206.378 105.057 205.806 105.041 205.225C105.025 204.643 104.828 204.082 104.479 203.623C104.112 203.118 103.583 202.761 102.985 202.614C102.387 202.467 101.757 202.54 101.206 202.819C100.696 203.1 100.282 203.533 100.018 204.061C99.8009 204.495 99.5182 205.354 99.7948 205.812C99.9353 206.045 100.279 206.137 100.504 206.25C100.881 206.439 101.261 206.621 101.644 206.797C102.314 207.105 102.992 207.394 103.678 207.664C105.18 208.253 106.715 208.747 108.277 209.143C114.419 210.696 120.829 210.777 127.008 209.38C128.544 209.032 130.058 208.589 131.542 208.054C132.945 207.547 134.426 207.005 135.715 206.238C136.732 205.633 137.924 204.593 137.829 203.263C137.79 202.776 137.568 202.325 137.209 202.003C136.849 201.682 136.382 201.517 135.905 201.543C135.416 201.544 134.936 201.685 134.521 201.949C134.105 202.213 133.77 202.591 133.552 203.039C132.999 204.32 133.552 205.78 134.358 206.802C136.099 209.011 139.069 209.805 141.733 209.778C144.821 209.746 147.748 208.749 150.612 207.665C153.819 206.451 157.167 205.103 160.651 205.318C163.791 205.512 166.749 207.411 169.937 207.017C172.705 206.675 174.329 204.411 175.047 201.833C175.372 200.576 175.593 199.294 175.71 198C175.768 197.468 174.954 197.472 174.896 198C174.619 200.53 174.198 203.739 172.01 205.346C169.356 207.295 165.9 205.577 163.118 204.885C159.909 204.087 156.759 204.631 153.666 205.667C150.618 206.688 147.685 208.083 144.51 208.666C141.753 209.172 138.702 209.115 136.297 207.473C135.115 206.666 133.706 205.079 134.25 203.49C134.56 202.582 136.178 201.839 136.835 202.792C137.803 204.195 135.37 205.524 134.436 205.964C133.005 206.634 131.534 207.212 130.032 207.692C120.201 210.827 109.564 209.95 100.352 205.243L100.554 205.602C100.397 204.165 101.825 202.816 103.189 203.572C104.488 204.292 104.479 205.874 103.51 206.865C102.556 207.842 101.187 208.277 99.9272 208.663C98.5372 209.09 97.1217 209.425 95.6896 209.666C89.6754 210.667 83.509 210.025 77.8159 207.804C75.266 206.806 72.6255 204.777 69.7671 205.155C68.6269 205.305 67.5243 205.871 66.9317 206.913C66.4094 207.831 66.2971 209.038 66.8523 209.967C67.7383 211.451 70.8416 211.383 70.8952 209.301C70.9563 206.93 69.4929 204.563 67.8582 203.01C62.7673 198.172 55.5036 199.326 49.2781 200.525C48.7638 200.625 48.9816 201.427 49.4946 201.328Z" fill="#CCCCCC"/>
<path d="M128.433 120.517C130.413 120.171 131.262 117.729 130.796 115.93C130.494 114.761 129.784 113.757 128.995 112.878C128.08 111.857 127.065 110.925 126.09 109.965C124.897 108.791 123.705 107.618 122.512 106.444C122.461 106.394 122.399 106.357 122.33 106.339C122.262 106.321 122.19 106.321 122.121 106.339C122.052 106.358 121.99 106.394 121.939 106.444C121.888 106.495 121.851 106.558 121.832 106.628C121.316 110.064 122.125 113.57 124.088 116.408C124.59 117.117 125.154 117.776 125.775 118.379C126.381 118.974 127.03 119.567 127.407 120.35L128.502 121.171C128.466 120.951 128.411 120.734 128.339 120.523C128.371 120.524 128.402 120.522 128.433 120.517Z" fill="#FD6584"/>
<path d="M128.367 120.309H127.552C127.98 121.199 127.805 122.553 127.746 123.518C127.68 124.596 127.588 125.673 127.509 126.751C127.329 129.174 127.15 131.597 126.97 134.02C126.931 134.554 127.745 134.551 127.784 134.02L128.262 127.574C128.343 126.476 128.425 125.379 128.506 124.282C128.572 122.956 128.525 121.627 128.367 120.309Z" fill="#3F3D56"/>
<path d="M128.428 120.403C128.6 119.884 128.661 119.334 128.608 118.789C128.555 118.244 128.388 117.718 128.119 117.244C128.063 117.153 127.974 117.087 127.871 117.062C127.769 117.036 127.66 117.052 127.569 117.107C127.478 117.161 127.411 117.25 127.382 117.354C127.354 117.458 127.366 117.569 127.416 117.664C127.631 118.041 127.763 118.462 127.802 118.897C127.842 119.332 127.787 119.77 127.643 120.181C127.614 120.288 127.628 120.401 127.681 120.497C127.735 120.593 127.823 120.663 127.927 120.693C128.031 120.722 128.142 120.708 128.236 120.654C128.33 120.599 128.399 120.509 128.428 120.403Z" fill="#3F3D56"/>
<path d="M96.6748 119.684C98.655 119.338 99.5039 116.896 99.0386 115.097C98.7361 113.928 98.0264 112.924 97.2376 112.045C96.3223 111.024 95.3071 110.092 94.3318 109.132C93.1393 107.958 91.9468 106.785 90.7543 105.611C90.7035 105.561 90.6408 105.524 90.5722 105.506C90.5037 105.488 90.4317 105.488 90.3632 105.506C90.2946 105.525 90.232 105.561 90.1813 105.611C90.1306 105.662 90.0935 105.725 90.0738 105.795C89.558 109.231 90.367 112.737 92.3303 115.575C92.8319 116.284 93.3966 116.943 94.0174 117.546C94.6232 118.141 95.2726 118.734 95.6489 119.517L96.7442 120.338C96.7079 120.118 96.6535 119.901 96.5816 119.69C96.6128 119.691 96.644 119.689 96.6748 119.684Z" fill="#FD6584"/>
<path d="M96.609 119.477H95.7947C96.2223 120.367 96.0476 121.721 95.9881 122.685C95.9217 123.764 95.8306 124.841 95.7508 125.919C95.5713 128.342 95.3918 130.765 95.2123 133.188C95.1727 133.722 95.9872 133.719 96.0266 133.188L96.5042 126.742C96.5854 125.644 96.6667 124.547 96.748 123.45C96.8138 122.124 96.7673 120.794 96.609 119.477Z" fill="#3F3D56"/>
<path d="M96.6701 119.571C96.8419 119.052 96.9032 118.502 96.85 117.957C96.7967 117.412 96.6301 116.885 96.3613 116.412C96.3049 116.321 96.216 116.255 96.1134 116.23C96.0108 116.204 95.9024 116.22 95.8112 116.275C95.72 116.329 95.6531 116.418 95.6245 116.522C95.596 116.626 95.6081 116.737 95.6582 116.832C95.8735 117.209 96.0054 117.63 96.0446 118.065C96.0837 118.5 96.0292 118.938 95.8849 119.349C95.8563 119.456 95.8703 119.569 95.9236 119.665C95.9769 119.761 96.0653 119.831 96.1694 119.861C96.2734 119.89 96.3846 119.876 96.4785 119.822C96.5724 119.767 96.6413 119.677 96.6701 119.571Z" fill="#3F3D56"/>
<path d="M111.604 118.297C113.585 117.951 114.434 115.509 113.968 113.711C113.666 112.541 112.956 111.538 112.167 110.658C111.252 109.637 110.237 108.705 109.261 107.745C108.069 106.572 106.876 105.398 105.684 104.224C105.633 104.174 105.57 104.138 105.502 104.119C105.433 104.101 105.361 104.101 105.293 104.119C105.224 104.138 105.162 104.174 105.111 104.225C105.06 104.275 105.023 104.339 105.003 104.408C104.488 107.844 105.297 111.35 107.26 114.188C107.762 114.897 108.326 115.557 108.947 116.159C109.553 116.754 110.202 117.347 110.579 118.13L111.674 118.951C111.638 118.731 111.583 118.514 111.511 118.304C111.542 118.305 111.574 118.302 111.604 118.297Z" fill="#FD6584"/>
<path d="M111.539 118.089H110.724C111.152 118.979 110.977 120.333 110.918 121.298C110.851 122.376 110.76 123.454 110.681 124.531C110.501 126.954 110.322 129.377 110.142 131.8C110.102 132.334 110.917 132.332 110.956 131.8L111.434 125.354C111.515 124.257 111.596 123.16 111.678 122.062C111.744 120.736 111.697 119.407 111.539 118.089Z" fill="#3F3D56"/>
<path d="M111.6 118.183C111.772 117.664 111.833 117.114 111.78 116.569C111.726 116.025 111.56 115.498 111.291 115.024C111.235 114.933 111.146 114.868 111.043 114.842C110.94 114.816 110.832 114.833 110.741 114.887C110.65 114.942 110.583 115.03 110.554 115.134C110.526 115.238 110.538 115.349 110.588 115.444C110.803 115.822 110.935 116.242 110.974 116.677C111.013 117.112 110.959 117.551 110.815 117.962C110.786 118.068 110.8 118.182 110.853 118.277C110.907 118.373 110.995 118.444 111.099 118.473C111.203 118.502 111.314 118.488 111.408 118.434C111.502 118.379 111.571 118.289 111.6 118.183Z" fill="#3F3D56"/>
<path d="M123.059 167.826C122.858 167.042 122.091 166.38 121.311 166.525C120.684 166.641 120.223 167.229 120.049 167.855C119.915 168.493 119.897 169.151 119.997 169.796C119.298 169.044 118.571 168.272 117.635 167.871C117.305 167.705 116.931 167.658 116.572 167.738C116.328 167.829 116.116 167.991 115.961 168.205C115.807 168.418 115.718 168.674 115.704 168.939C115.688 169.472 115.828 169.998 116.108 170.448C116.498 171.137 117.035 171.729 117.677 172.179C118.32 172.63 119.052 172.928 119.822 173.053L119.57 172.716C120.851 172.26 121.93 171.35 122.613 170.151C123.009 169.449 123.26 168.61 123.059 167.826Z" fill="#F50057"/>
<path d="M86.1369 200.57C85.936 199.786 85.169 199.124 84.3892 199.269C83.7625 199.385 83.3007 199.973 83.1275 200.599C82.9928 201.237 82.9752 201.895 83.0756 202.54C82.3763 201.788 81.6488 201.016 80.7128 200.615C80.3835 200.449 80.0091 200.402 79.6504 200.482C79.4064 200.573 79.1939 200.735 79.0396 200.949C78.8853 201.163 78.7959 201.418 78.7826 201.683C78.766 202.216 78.9065 202.742 79.186 203.192C79.5766 203.881 80.1127 204.473 80.7552 204.923C81.3978 205.374 82.1306 205.673 82.9002 205.797L82.648 205.46C83.9293 205.004 85.0086 204.094 85.691 202.895C86.0871 202.193 86.3378 201.354 86.1369 200.57Z" fill="#F50057"/>
<path d="M92.6604 151.731C92.4594 150.947 91.6925 150.285 90.9126 150.43C90.286 150.546 89.8241 151.134 89.6509 151.76C89.5163 152.398 89.4987 153.057 89.599 153.701C88.8998 152.949 88.1722 152.177 87.2363 151.776C86.907 151.61 86.5326 151.563 86.1739 151.643C85.9298 151.734 85.7174 151.896 85.563 152.11C85.4087 152.324 85.3193 152.579 85.306 152.844C85.2894 153.377 85.43 153.903 85.7094 154.353C86.1 155.042 86.6361 155.634 87.2787 156.085C87.9212 156.535 88.654 156.834 89.4236 156.958L89.1715 156.622C90.4527 156.165 91.532 155.255 92.2145 154.056C92.6105 153.354 92.8613 152.515 92.6604 151.731Z" fill="#F50057"/>
<path d="M150.026 105.884C149.355 108.9 149.036 112.32 150.827 115.019C151.588 116.177 152.705 117.043 154.002 117.478C155.314 117.876 156.698 117.963 158.048 117.733C161.103 117.3 163.818 115.673 166.823 115.041C168.149 114.763 169.556 114.67 170.832 115.207C171.789 115.609 172.796 116.417 172.801 117.57C172.805 118.753 171.8 119.539 170.8 119.903C169.465 120.389 168.078 120.201 166.694 120.14C165.203 120.074 163.683 120.211 162.445 121.145C161.379 121.995 160.562 123.127 160.083 124.419C159.46 125.963 159.207 127.624 158.809 129.235C158.454 130.684 157.95 132.091 157.308 133.433C156.047 136.062 154.28 138.404 152.112 140.319C151.042 141.259 149.743 142.218 148.283 142.304C147.157 142.37 145.787 141.887 145.353 140.72C145.192 140.217 145.208 139.671 145.398 139.178C145.588 138.686 145.941 138.276 146.395 138.02C147.36 137.522 148.411 138.233 148.723 139.208C148.805 139.433 148.833 139.674 148.806 139.912C148.779 140.15 148.698 140.379 148.568 140.578C148.275 141.025 148.98 141.442 149.271 140.999C149.946 139.97 149.593 138.586 148.767 137.761C148.363 137.341 147.824 137.085 147.25 137.041C146.675 136.998 146.105 137.169 145.645 137.524C145.168 137.895 144.807 138.402 144.606 138.98C144.406 139.559 144.375 140.185 144.518 140.781C144.865 142.062 146.097 142.877 147.326 143.079C148.845 143.328 150.306 142.718 151.532 141.837C152.761 140.929 153.88 139.873 154.862 138.692C156.859 136.344 158.36 133.6 159.272 130.631C160.168 127.695 160.233 123.816 162.896 121.833C164.267 120.812 165.946 120.926 167.553 121.019C168.971 121.102 170.355 121.087 171.656 120.431C172.73 119.888 173.597 118.888 173.615 117.613C173.633 116.326 172.74 115.292 171.687 114.705C168.905 113.157 165.565 114.406 162.832 115.44C160.084 116.481 156.946 117.702 154.026 116.607C152.678 116.072 151.593 115.012 151.008 113.66C150.301 112.126 150.2 110.387 150.364 108.723C150.46 107.842 150.61 106.968 150.812 106.106C150.928 105.584 150.143 105.361 150.026 105.884Z" fill="#3F3D56"/>
<path d="M155.017 97.4233C154.212 100.172 152.998 102.777 151.418 105.149C151.027 105.732 150.616 106.299 150.185 106.853C149.851 106.231 149.445 105.651 148.978 105.127C147.335 103.281 145.134 102.074 142.998 100.864C140.862 99.6543 138.693 98.3557 137.184 96.3938C136.507 95.5106 136.022 94.4898 135.762 93.3996C135.42 91.9205 135.55 90.3776 136.394 89.1428C137.621 87.3474 140.066 86.7147 142.146 87.2336C144.228 87.7525 145.97 89.2316 147.322 90.9299C146.879 88.8431 149.032 86.8285 151.114 87.0116C153.196 87.1975 154.865 89.0568 155.419 91.1158C155.975 93.172 155.614 95.3753 155.017 97.4233Z" fill="#F50057"/>
<g opacity="0.2">
<path d="M151.422 105.149C151.031 105.731 150.62 106.299 150.19 106.852C149.855 106.23 149.449 105.651 148.982 105.126C147.339 103.281 145.138 102.074 143.002 100.864C140.866 99.6542 138.697 98.3555 137.188 96.3936C136.511 95.5104 136.026 94.4896 135.766 93.3994C140.568 94.08 144.98 96.4732 148.224 100.156C149.523 101.652 150.6 103.334 151.422 105.149Z" fill="black"/>
</g>
<path d="M201.214 144.508C201.601 144.498 201.981 144.4 202.327 144.223C202.674 144.046 202.978 143.793 203.218 143.483C203.459 143.173 203.63 142.812 203.72 142.427C203.809 142.042 203.815 141.641 203.737 141.253L211.55 136.16L207.145 133.983L200.415 139.162C199.786 139.34 199.243 139.747 198.889 140.307C198.534 140.866 198.393 141.539 198.492 142.198C198.59 142.857 198.922 143.456 199.423 143.882C199.925 144.308 200.562 144.531 201.214 144.508Z" fill="#9E616A"/>
<path d="M202.81 119.723C202.81 119.723 198.224 115.932 200.044 113.242C201.864 110.552 206.511 113.481 206.511 113.481L220.039 129.202C220.039 129.202 205.669 142.537 206.115 140.556C206.561 138.576 203.227 137.028 203.227 137.028L209.64 129.654L208.233 128.957L208.807 128.62L208.204 127.174L202.81 119.723Z" fill="#F50057"/>
<path d="M230.118 225.584C230.118 225.628 230.111 225.671 230.098 225.711C230.085 225.751 230.065 225.787 230.04 225.818C230.015 225.849 229.986 225.873 229.953 225.889C229.92 225.906 229.885 225.914 229.85 225.914L179.172 225.923L175.632 225.925L173.297 225.928H170.713L169.304 225.931L165.39 225.934L103.805 225.973L103.336 225.975L75.7892 225.986H75.3343L51.8859 225.998H51.4309L44.1117 226C44.0407 226 43.9725 225.966 43.9222 225.904C43.872 225.842 43.8438 225.758 43.8438 225.67C43.8438 225.583 43.872 225.499 43.9222 225.437C43.9725 225.375 44.0407 225.34 44.1117 225.34L51.5075 225.337H51.9624L75.4041 225.326H75.859L103.192 225.315H103.658L126.949 225.304H127.255L164.962 225.276L168.869 225.273L170.657 225.271L173.483 225.268H175.898L179.701 225.265L229.85 225.254C229.885 225.254 229.92 225.262 229.953 225.279C229.986 225.295 230.015 225.32 230.04 225.35C230.065 225.381 230.085 225.417 230.098 225.458C230.112 225.498 230.118 225.541 230.118 225.584Z" fill="#CACACA"/>
<path d="M207.002 93.5187C206.414 92.5962 205.765 91.6213 204.766 91.2091C203.767 90.7969 202.35 91.2898 202.214 92.3823C202.113 93.199 202.722 93.9005 203.181 94.577C203.64 95.2535 203.938 96.2746 203.339 96.8244L203.002 97.0022C203.324 97.4279 203.74 97.7704 204.215 98.0022C204.69 98.2341 205.212 98.3488 205.738 98.3371C206.786 98.2693 207.796 97.4742 207.973 96.4161C208.145 95.3844 207.561 94.3954 207.002 93.5187Z" fill="#2F2E41"/>
</g>
</g>
<defs>
<filter id="filter0_d_649_19542" x="0" y="0" width="272" height="272" filterUnits="userSpaceOnUse" color-interpolation-filters="sRGB">
<feFlood flood-opacity="0" result="BackgroundImageFix"/>
<feColorMatrix in="SourceAlpha" type="matrix" values="0 0 0 0 0 0 0 0 0 0 0 0 0 0 0 0 0 0 127 0" result="hardAlpha"/>
<feOffset dy="2"/>
<feGaussianBlur stdDeviation="3"/>
<feComposite in2="hardAlpha" operator="out"/>
<feColorMatrix type="matrix" values="0 0 0 0 0 0 0 0 0 0 0 0 0 0 0 0 0 0 0.08 0"/>
<feBlend mode="normal" in2="BackgroundImageFix" result="effect1_dropShadow_649_19542"/>
<feBlend mode="normal" in="SourceGraphic" in2="effect1_dropShadow_649_19542" result="shape"/>
</filter>
<clipPath id="clip0_649_19542">
<rect width="200" height="139" fill="white" transform="translate(36 87)"/>
</clipPath>
</defs>
</svg>
