<svg width="261" height="261" viewBox="0 0 261 261" fill="none" xmlns="http://www.w3.org/2000/svg">
<rect x="0.5" y="0.5" width="260" height="260" rx="8" fill="white" stroke="#EC2323"/>
<path d="M34.625 24.9707V30.3711H37.9941C39.8008 30.3711 40.8262 29.3945 40.8262 27.666C40.8262 25.9766 39.7324 24.9707 37.916 24.9707H34.625ZM34.625 31.9238V37.5H32.8672V23.4082H38.1504C40.8652 23.4082 42.6426 25.0684 42.6426 27.6074C42.6426 29.5703 41.5781 31.0938 39.8105 31.6504L43.0723 37.5H41.0117L37.9941 31.9238H34.625ZM48.668 28.6426C47.0762 28.6426 45.9629 29.8633 45.8555 31.5527H51.373C51.334 29.8535 50.2695 28.6426 48.668 28.6426ZM51.334 34.5898H53.0039C52.7109 36.3672 50.9922 37.6758 48.7754 37.6758C45.8652 37.6758 44.0977 35.6543 44.0977 32.4609C44.0977 29.3066 45.8945 27.168 48.6973 27.168C51.4414 27.168 53.1309 29.1602 53.1309 32.2363V32.8809H45.8457V32.9785C45.8457 34.9219 46.9883 36.2012 48.8145 36.2012C50.1035 36.2012 51.0508 35.5469 51.334 34.5898ZM54.6738 30.1465C54.6738 28.4082 56.2266 27.168 58.4629 27.168C60.5625 27.168 62.1055 28.418 62.1836 30.1367H60.5625C60.4453 29.1602 59.6543 28.5547 58.4043 28.5547C57.1641 28.5547 56.3438 29.1699 56.3438 30.0586C56.3438 30.7617 56.8809 31.2305 58.0332 31.5234L59.6055 31.9043C61.6562 32.4219 62.3984 33.1641 62.3984 34.6582C62.3984 36.4258 60.7285 37.6758 58.3555 37.6758C56.1289 37.6758 54.5762 36.4648 54.4004 34.668H56.0996C56.2852 35.7227 57.0859 36.2891 58.4629 36.2891C59.8398 36.2891 60.6895 35.7031 60.6895 34.7852C60.6895 34.0625 60.2695 33.6719 59.127 33.3691L57.3398 32.9102C55.5527 32.4512 54.6738 31.5332 54.6738 30.1465ZM68.2383 28.6426C66.6465 28.6426 65.5332 29.8633 65.4258 31.5527H70.9434C70.9043 29.8535 69.8398 28.6426 68.2383 28.6426ZM70.9043 34.5898H72.5742C72.2812 36.3672 70.5625 37.6758 68.3457 37.6758C65.4355 37.6758 63.668 35.6543 63.668 32.4609C63.668 29.3066 65.4648 27.168 68.2676 27.168C71.0117 27.168 72.7012 29.1602 72.7012 32.2363V32.8809H65.416V32.9785C65.416 34.9219 66.5586 36.2012 68.3848 36.2012C69.6738 36.2012 70.6211 35.5469 70.9043 34.5898ZM74.4199 37.5V27.3438H76.0215V29.0039H76.0605C76.3926 27.8809 77.3301 27.168 78.5215 27.168C78.8145 27.168 79.0684 27.2168 79.2051 27.2363V28.8867C79.0684 28.8379 78.707 28.7891 78.2969 28.7891C76.9785 28.7891 76.1191 29.7363 76.1191 31.1719V37.5H74.4199ZM88.9219 27.3438L85.1914 37.5H83.4531L79.7129 27.3438H81.5L84.3027 35.6934H84.3418L87.1543 27.3438H88.9219ZM94.0391 28.6426C92.4473 28.6426 91.334 29.8633 91.2266 31.5527H96.7441C96.7051 29.8535 95.6406 28.6426 94.0391 28.6426ZM96.7051 34.5898H98.375C98.082 36.3672 96.3633 37.6758 94.1465 37.6758C91.2363 37.6758 89.4688 35.6543 89.4688 32.4609C89.4688 29.3066 91.2656 27.168 94.0684 27.168C96.8125 27.168 98.502 29.1602 98.502 32.2363V32.8809H91.2168V32.9785C91.2168 34.9219 92.3594 36.2012 94.1855 36.2012C95.4746 36.2012 96.4219 35.5469 96.7051 34.5898ZM108.424 37.5V27.3438H110.025V28.9648H110.064C110.543 27.8906 111.578 27.168 112.945 27.168C114.332 27.168 115.357 27.8711 115.797 29.1016H115.836C116.402 27.8906 117.594 27.168 119.02 27.168C121.031 27.168 122.33 28.4766 122.33 30.4883V37.5H120.631V30.8789C120.631 29.4922 119.859 28.6719 118.521 28.6719C117.174 28.6719 116.227 29.668 116.227 31.0449V37.5H114.527V30.6934C114.527 29.4727 113.707 28.6719 112.447 28.6719C111.1 28.6719 110.123 29.7266 110.123 31.1328V37.5H108.424ZM132.838 27.3438V37.5H131.227V35.8496H131.188C130.582 37.0215 129.527 37.6758 127.965 37.6758C125.748 37.6758 124.449 36.2402 124.449 33.9355V27.3438H126.148V33.6328C126.148 35.2832 126.92 36.1719 128.492 36.1719C130.143 36.1719 131.139 35.0391 131.139 33.3105V27.3438H132.838ZM135.133 37.5V23.4082H136.832V37.5H135.133ZM139.674 24.8926H141.373V27.3438H143.346V28.7402H141.373V34.7754C141.373 35.7031 141.764 36.123 142.633 36.123C142.828 36.123 143.219 36.0938 143.336 36.0742V37.5C143.131 37.5488 142.662 37.5781 142.262 37.5781C140.396 37.5781 139.674 36.8164 139.674 34.8633V28.7402H138.16V27.3438H139.674V24.8926ZM145.25 37.5V27.3438H146.949V37.5H145.25ZM146.1 25.6348C145.523 25.6348 145.045 25.1562 145.045 24.5801C145.045 23.9941 145.523 23.5254 146.1 23.5254C146.686 23.5254 147.164 23.9941 147.164 24.5801C147.164 25.1562 146.686 25.6348 146.1 25.6348ZM154.176 27.168C156.764 27.168 158.521 29.2383 158.521 32.4219C158.521 35.6055 156.773 37.6758 154.215 37.6758C152.76 37.6758 151.588 36.9629 150.982 35.8496H150.943V40.8887H149.244V27.3438H150.855V29.0625H150.895C151.52 27.9199 152.701 27.168 154.176 27.168ZM153.844 36.1816C155.65 36.1816 156.783 34.7266 156.783 32.4219C156.783 30.127 155.65 28.6621 153.844 28.6621C152.105 28.6621 150.934 30.166 150.934 32.4219C150.934 34.6875 152.105 36.1816 153.844 36.1816ZM160.328 37.5V23.4082H162.027V37.5H160.328ZM168.395 28.6426C166.803 28.6426 165.689 29.8633 165.582 31.5527H171.1C171.061 29.8535 169.996 28.6426 168.395 28.6426ZM171.061 34.5898H172.73C172.438 36.3672 170.719 37.6758 168.502 37.6758C165.592 37.6758 163.824 35.6543 163.824 32.4609C163.824 29.3066 165.621 27.168 168.424 27.168C171.168 27.168 172.857 29.1602 172.857 32.2363V32.8809H165.572V32.9785C165.572 34.9219 166.715 36.2012 168.541 36.2012C169.83 36.2012 170.777 35.5469 171.061 34.5898ZM179.225 24.8926H180.924V27.3438H182.896V28.7402H180.924V34.7754C180.924 35.7031 181.314 36.123 182.184 36.123C182.379 36.123 182.77 36.0938 182.887 36.0742V37.5C182.682 37.5488 182.213 37.5781 181.812 37.5781C179.947 37.5781 179.225 36.8164 179.225 34.8633V28.7402H177.711V27.3438H179.225V24.8926ZM187.867 36.2305C189.469 36.2305 190.699 35.1074 190.699 33.6426V32.8125L187.984 32.9785C186.617 33.0664 185.836 33.6719 185.836 34.6289C185.836 35.5957 186.646 36.2305 187.867 36.2305ZM187.486 37.6758C185.465 37.6758 184.107 36.4551 184.107 34.6289C184.107 32.8906 185.445 31.7969 187.789 31.6602L190.699 31.4941V30.6445C190.699 29.4043 189.879 28.6621 188.473 28.6621C187.164 28.6621 186.344 29.2773 186.129 30.2734H184.488C184.605 28.5156 186.109 27.168 188.512 27.168C190.895 27.168 192.398 28.457 192.398 30.4785V37.5H190.787V35.752H190.748C190.143 36.9141 188.854 37.6758 187.486 37.6758ZM199.605 37.6758C198.121 37.6758 196.959 36.9531 196.305 35.7812H196.266V37.5H194.645V23.4082H196.344V29.043H196.383C197.018 27.8809 198.199 27.168 199.635 27.168C202.193 27.168 203.922 29.2383 203.922 32.4219C203.922 35.6152 202.203 37.6758 199.605 37.6758ZM199.273 28.6621C197.555 28.6621 196.334 30.166 196.334 32.4219C196.334 34.6875 197.555 36.1816 199.273 36.1816C201.07 36.1816 202.184 34.7461 202.184 32.4219C202.184 30.1172 201.07 28.6621 199.273 28.6621ZM205.738 37.5V23.4082H207.438V37.5H205.738ZM213.805 28.6426C212.213 28.6426 211.1 29.8633 210.992 31.5527H216.51C216.471 29.8535 215.406 28.6426 213.805 28.6426ZM216.471 34.5898H218.141C217.848 36.3672 216.129 37.6758 213.912 37.6758C211.002 37.6758 209.234 35.6543 209.234 32.4609C209.234 29.3066 211.031 27.168 213.834 27.168C216.578 27.168 218.268 29.1602 218.268 32.2363V32.8809H210.982V32.9785C210.982 34.9219 212.125 36.2012 213.951 36.2012C215.24 36.2012 216.188 35.5469 216.471 34.5898ZM219.811 30.1465C219.811 28.4082 221.363 27.168 223.6 27.168C225.699 27.168 227.242 28.418 227.32 30.1367H225.699C225.582 29.1602 224.791 28.5547 223.541 28.5547C222.301 28.5547 221.48 29.1699 221.48 30.0586C221.48 30.7617 222.018 31.2305 223.17 31.5234L224.742 31.9043C226.793 32.4219 227.535 33.1641 227.535 34.6582C227.535 36.4258 225.865 37.6758 223.492 37.6758C221.266 37.6758 219.713 36.4648 219.537 34.668H221.236C221.422 35.7227 222.223 36.2891 223.6 36.2891C224.977 36.2891 225.826 35.7031 225.826 34.7852C225.826 34.0625 225.406 33.6719 224.264 33.3691L222.477 32.9102C220.689 32.4512 219.811 31.5332 219.811 30.1465Z" fill="#272727"/>
<path d="M86.5709 93.607H82.6772C82.3158 93.607 81.9692 93.4577 81.7136 93.192C81.458 92.9263 81.3145 92.566 81.3145 92.1902C81.3145 91.8145 81.458 91.4541 81.7136 91.1884C81.9692 90.9227 82.3158 90.7734 82.6772 90.7734H86.5709C86.9323 90.7734 87.279 90.9227 87.5345 91.1884C87.7901 91.4541 87.9337 91.8145 87.9337 92.1902C87.9337 92.566 87.7901 92.9263 87.5345 93.192C87.279 93.4577 86.9323 93.607 86.5709 93.607Z" fill="#FFEADA"/>
<path d="M87.937 92.7969H81.3178C81.1113 92.7969 80.9132 92.7116 80.7672 92.5598C80.6211 92.408 80.5391 92.202 80.5391 91.9873C80.5391 91.7726 80.6211 91.5667 80.7672 91.4149C80.9132 91.263 81.1113 91.1777 81.3178 91.1777H87.937C88.1435 91.1777 88.3416 91.263 88.4877 91.4149C88.6337 91.5667 88.7157 91.7726 88.7157 91.9873C88.7157 92.202 88.6337 92.408 88.4877 92.5598C88.3416 92.7116 88.1435 92.7969 87.937 92.7969Z" fill="#CACACA"/>
<path d="M87.1447 96.2487H81.9868C81.4228 96.2479 80.8822 96.0145 80.4837 95.5996C80.0852 95.1847 79.8613 94.6223 79.8613 94.036C79.8613 93.4496 80.0852 92.8873 80.4837 92.4724C80.8822 92.0575 81.4228 91.824 81.9868 91.8232H87.1447C87.7092 91.8232 88.2506 92.0564 88.6497 92.4713C89.0489 92.8863 89.2731 93.4491 89.2731 94.036C89.2731 94.6228 89.0489 95.1857 88.6497 95.6006C88.2506 96.0156 87.7092 96.2487 87.1447 96.2487Z" fill="#FFEADA"/>
<path d="M74.8781 104.258C73.873 111.049 124.783 111.05 123.774 104.257C124.779 97.4674 73.869 97.4674 74.8781 104.258Z" fill="#2F2E41"/>
<path d="M100.763 106.854H97.8867V146.416H100.763V106.854Z" fill="#2F2E41"/>
<path d="M82.518 101.755C82.3491 101.413 82.1077 101.115 81.8119 100.885C81.5161 100.654 81.1737 100.496 80.8106 100.423C80.4474 100.35 80.0731 100.364 79.7159 100.464C79.3587 100.563 79.028 100.746 78.7487 100.998L68.19 98.3984L67.4113 95.7119L63.1992 96.4308C63.7695 98.2582 63.5403 102.94 66.2518 102.988L78.1973 104.082C79.6174 106.995 83.9766 104.631 82.518 101.755Z" fill="#FFCFCF"/>
<path d="M59.6263 120.865H70.2484C70.2484 121.182 81.1957 121.44 81.1957 121.44C83.298 123.04 82.3095 127.156 79.5385 127.075L59.6263 127.075C55.9642 127.129 55.9567 120.811 59.6263 120.865Z" fill="#DFDFDF"/>
<path d="M71.1809 126.961H68.3047V146.282H71.1809V126.961Z" fill="#DFDFDF"/>
<path d="M79.3702 146.177C79.3702 146.501 75.0117 146.302 69.6353 146.302C64.2588 146.302 59.9004 146.501 59.9004 146.177C63.5972 142.508 75.726 142.541 79.3702 146.177Z" fill="#DFDFDF"/>
<path d="M76.5453 143.682L79.2576 143.682L80.548 136.368H76.5449L76.5453 143.682Z" fill="#FFCFCF"/>
<path d="M75.8439 146.416L84.5899 146.415C84.7191 141.643 78.7199 142.896 75.8438 142.761L75.8439 146.416Z" fill="#2F2E41"/>
<path d="M80.606 139.147L86.0134 126.54C86.4649 125.478 86.5148 124.277 86.1533 123.178C85.7917 122.079 85.0452 121.162 84.0624 120.609L72.3333 114.071C69.7737 113.855 64.5937 113.376 62.044 113.131C57.4088 121.839 76.757 123.809 79.4966 125.302C79.6001 125.331 79.6967 125.382 79.7804 125.451C79.8641 125.52 79.9332 125.607 79.9832 125.705C80.0332 125.804 80.0631 125.912 80.0711 126.023C80.0791 126.134 80.0649 126.245 80.0294 126.35L75.0057 138.085C74.954 138.233 74.9356 138.393 74.9521 138.55C74.9686 138.707 75.0194 138.859 75.1007 138.992C75.182 139.126 75.2917 139.239 75.4213 139.322C75.5509 139.405 75.697 139.456 75.8485 139.471C76.6426 139.279 80.2613 140.42 80.606 139.147Z" fill="#2F2E41"/>
<path d="M74.7738 143.682L77.4862 143.682L78.7769 136.368H74.7734L74.7738 143.682Z" fill="#FFCFCF"/>
<path d="M74.0881 146.416L82.8341 146.415C82.9632 141.643 76.964 142.896 74.0879 142.761L74.0881 146.416Z" fill="#2F2E41"/>
<path d="M78.6073 139.837L84.0148 127.231C84.4663 126.168 84.5162 124.968 84.1546 123.869C83.7931 122.769 83.0465 121.852 82.0637 121.3L70.3347 114.761C68.1011 114.575 63.3206 114.133 61.1155 113.939L61.116 113.884C59.9543 115.365 60.3879 120.73 63.8283 121.641C69.0749 123.641 75.1359 125.35 77.4982 125.992C77.6016 126.021 77.6982 126.072 77.7819 126.141C77.8656 126.211 77.9346 126.297 77.9846 126.396C78.0346 126.494 78.0645 126.602 78.0725 126.713C78.0804 126.824 78.0663 126.936 78.0308 127.041L73.0071 138.775C72.9554 138.924 72.937 139.083 72.9535 139.24C72.97 139.398 73.0208 139.549 73.1021 139.683C73.1834 139.816 73.2931 139.929 73.4227 140.012C73.5523 140.095 73.6984 140.146 73.8499 140.162C74.6495 139.976 78.2587 141.106 78.6073 139.837Z" fill="#2F2E41"/>
<path d="M68.4313 114.168C68.6905 113.978 72.4137 116.008 73.0774 114.398C69.98 106.348 72.1145 102.871 70.2171 98.2549C68.9683 94.5787 64.6273 94.8319 61.6289 94.7354C60.5111 95.2975 59.5983 96.2204 59.0267 97.3664C58.4551 98.5124 58.2555 99.8199 58.4576 101.094C58.4751 106.118 61.3667 109.95 60.3556 113.594C60.3134 113.743 60.3007 113.9 60.3181 114.055C60.3356 114.209 60.383 114.359 60.4573 114.494C60.5317 114.629 60.6316 114.747 60.751 114.841C60.8703 114.935 61.0068 115.003 61.152 115.041C61.6987 114.904 68.2737 114.193 68.5406 113.961L68.4313 114.168Z" fill="#CACACA"/>
<path d="M63.2613 81.5254C56.1547 81.5586 56.1553 92.7921 63.2616 92.8242C70.3679 92.791 70.3673 81.5575 63.2613 81.5254Z" fill="#FFCFCF"/>
<path d="M61.5298 92.3599C61.8186 92.4913 62.4098 90.0995 62.145 89.6211C61.7511 88.9097 61.7744 88.9148 61.5129 88.4441C60.7312 87.4579 62.0828 85.8229 62.8082 87.0751C62.8519 83.3116 69.8889 86.5646 69.2016 82.3752C61.1606 74.2015 49.9347 87.0707 61.5298 92.3599Z" fill="#2F2E41"/>
<path d="M73.5268 106.318L82.9684 98.5747C85.9136 99.6788 87.5442 94.8541 84.577 93.8001C84.2284 93.6716 83.8564 93.6272 83.4889 93.6702C83.1214 93.7132 82.7681 93.8426 82.4558 94.0484C82.1435 94.2542 81.8802 94.5312 81.686 94.8584C81.4918 95.1856 81.3717 95.5544 81.3348 95.9369L71.9359 101.574L69.5969 100.174L67.0059 103.701C68.6028 104.605 71.5487 108.198 73.5268 106.318Z" fill="#FFCFCF"/>
<path d="M65.8489 104.799L71.236 100.991C69.9617 99.4697 68.245 94.9405 65.6226 96.4259C62.627 97.6837 65.5575 102.731 65.8489 104.799Z" fill="#CACACA"/>
<path d="M106.059 147.288H49.8623C49.8232 147.288 49.7857 147.218 49.758 147.091C49.7304 146.965 49.7148 146.794 49.7148 146.616C49.7148 146.438 49.7304 146.266 49.758 146.14C49.7857 146.014 49.8232 145.943 49.8623 145.943H106.059C106.098 145.943 106.135 146.014 106.163 146.14C106.191 146.266 106.206 146.438 106.206 146.616C106.206 146.794 106.191 146.965 106.163 147.091C106.135 147.218 106.098 147.288 106.059 147.288Z" fill="#CACACA"/>
<path d="M182.605 94.6529H186.499C186.86 94.6529 187.207 94.5036 187.462 94.2379C187.718 93.9722 187.861 93.6119 187.861 93.2361C187.861 92.8604 187.718 92.5 187.462 92.2343C187.207 91.9686 186.86 91.8193 186.499 91.8193H182.605C182.243 91.8193 181.897 91.9686 181.641 92.2343C181.386 92.5 181.242 92.8604 181.242 93.2361C181.242 93.6119 181.386 93.9722 181.641 94.2379C181.897 94.5036 182.243 94.6529 182.605 94.6529Z" fill="#FFEADA"/>
<path d="M181.239 93.8438H187.858C188.065 93.8438 188.263 93.7585 188.409 93.6067C188.555 93.4548 188.637 93.2489 188.637 93.0342C188.637 92.8195 188.555 92.6136 188.409 92.4617C188.263 92.3099 188.065 92.2246 187.858 92.2246H181.239C181.032 92.2246 180.834 92.3099 180.688 92.4617C180.542 92.6136 180.46 92.8195 180.46 93.0342C180.46 93.2489 180.542 93.4548 180.688 93.6067C180.834 93.7585 181.032 93.8438 181.239 93.8438Z" fill="#CACACA"/>
<path d="M182.023 97.2946H187.181C187.745 97.2938 188.286 97.0603 188.684 96.6455C189.083 96.2306 189.307 95.6682 189.307 95.0819C189.307 94.4955 189.083 93.9332 188.684 93.5183C188.286 93.1034 187.745 92.8699 187.181 92.8691H182.023C181.459 92.8691 180.917 93.1023 180.518 93.5172C180.119 93.9322 179.895 94.495 179.895 95.0819C179.895 95.6687 180.119 96.2316 180.518 96.6465C180.917 97.0615 181.459 97.2946 182.023 97.2946Z" fill="#FFEADA"/>
<path d="M194.292 105.304C195.297 112.095 144.387 112.095 145.396 105.303C144.391 98.5133 195.301 98.5133 194.292 105.304Z" fill="#2F2E41"/>
<path d="M168.397 107.899H171.273V147.462H168.397V107.899Z" fill="#2F2E41"/>
<path d="M186.65 102.801C186.819 102.459 187.06 102.161 187.356 101.93C187.652 101.7 187.994 101.542 188.357 101.469C188.721 101.396 189.095 101.41 189.452 101.509C189.809 101.609 190.14 101.792 190.419 102.044L200.978 99.4443L201.757 96.7578L205.969 97.4767C205.398 99.3041 205.628 103.986 202.916 104.034L190.971 105.128C189.551 108.041 185.191 105.677 186.65 102.801Z" fill="#FFB6B6"/>
<path d="M209.549 121.91H198.927C198.927 122.228 187.98 122.486 187.98 122.486C185.878 124.086 186.866 128.202 189.637 128.121L209.549 128.121C213.212 128.175 213.219 121.857 209.549 121.91Z" fill="#DFDFDF"/>
<path d="M197.989 128.007H200.865V147.328H197.989V128.007Z" fill="#DFDFDF"/>
<path d="M189.8 147.222C189.8 147.545 194.158 147.347 199.535 147.347C204.911 147.347 209.27 147.545 209.27 147.222C205.573 143.553 193.444 143.586 189.8 147.222Z" fill="#DFDFDF"/>
<path d="M192.623 144.728L189.91 144.728L188.62 137.414H192.623L192.623 144.728Z" fill="#FFB6B6"/>
<path d="M193.326 147.461L184.58 147.461C184.451 142.689 190.45 143.941 193.326 143.807L193.326 147.461Z" fill="#2F2E41"/>
<path d="M188.564 140.193L183.156 127.586C182.705 126.524 182.655 125.323 183.017 124.224C183.378 123.125 184.125 122.208 185.108 121.655L196.837 115.117C199.396 114.901 204.576 114.422 207.126 114.177C211.761 122.885 192.413 124.855 189.673 126.348C189.57 126.377 189.473 126.428 189.39 126.497C189.306 126.566 189.237 126.653 189.187 126.751C189.137 126.85 189.107 126.958 189.099 127.069C189.091 127.18 189.105 127.291 189.14 127.396L194.164 139.131C194.216 139.279 194.234 139.439 194.218 139.596C194.201 139.753 194.151 139.905 194.069 140.038C193.988 140.172 193.878 140.285 193.749 140.368C193.619 140.451 193.473 140.502 193.321 140.517C192.527 140.325 188.909 141.466 188.564 140.193Z" fill="#2F2E41"/>
<path d="M194.396 144.728L191.684 144.728L190.393 137.414H194.396L194.396 144.728Z" fill="#FFB6B6"/>
<path d="M195.082 147.461L186.336 147.461C186.207 142.689 192.206 143.941 195.082 143.807L195.082 147.461Z" fill="#2F2E41"/>
<path d="M190.561 140.883L185.153 128.276C184.702 127.214 184.652 126.014 185.013 124.914C185.375 123.815 186.121 122.898 187.104 122.346L198.833 115.807C201.067 115.621 205.847 115.179 208.052 114.985L208.052 114.93C209.214 116.411 208.78 121.776 205.34 122.687C200.093 124.687 194.032 126.396 191.67 127.038C191.566 127.067 191.47 127.118 191.386 127.187C191.302 127.256 191.233 127.343 191.183 127.442C191.133 127.54 191.103 127.648 191.095 127.759C191.088 127.87 191.102 127.982 191.137 128.087L196.161 139.821C196.213 139.97 196.231 140.129 196.214 140.286C196.198 140.443 196.147 140.595 196.066 140.729C195.985 140.862 195.875 140.975 195.745 141.058C195.616 141.141 195.47 141.192 195.318 141.208C194.518 141.022 190.909 142.152 190.561 140.883Z" fill="#2F2E41"/>
<path d="M200.746 115.214C200.487 115.024 196.764 117.054 196.1 115.444C199.198 107.394 197.063 103.917 198.961 99.3008C200.209 95.6246 204.55 95.8778 207.549 95.7812C208.667 96.3434 209.579 97.2663 210.151 98.4123C210.723 99.5583 210.922 100.866 210.72 102.139C210.703 107.164 207.811 110.996 208.822 114.64C208.864 114.789 208.877 114.946 208.86 115.101C208.842 115.255 208.795 115.405 208.72 115.54C208.646 115.675 208.546 115.793 208.427 115.887C208.307 115.981 208.171 116.049 208.026 116.087C207.479 115.95 200.904 115.239 200.637 115.007L200.746 115.214Z" fill="#8E8E8E"/>
<path d="M205.907 82.5713C213.013 82.6045 213.013 93.838 205.906 93.8701C198.8 93.8369 198.801 82.6034 205.907 82.5713Z" fill="#FFB6B6"/>
<path d="M207.638 93.4058C207.349 93.5372 206.758 91.1454 207.023 90.667C207.417 89.9556 207.394 89.9607 207.655 89.49C208.437 88.5038 207.085 86.8688 206.36 88.121C206.316 84.3575 199.279 87.6105 199.966 83.421C208.007 75.2474 219.233 88.1166 207.638 93.4058Z" fill="#2F2E41"/>
<path d="M195.651 107.364L186.209 99.6206C183.264 100.725 181.634 95.9 184.601 94.846C184.949 94.7175 185.321 94.6731 185.689 94.7161C186.056 94.7591 186.41 94.8885 186.722 95.0943C187.034 95.3001 187.298 95.5771 187.492 95.9043C187.686 96.2315 187.806 96.6003 187.843 96.9828L197.242 102.62L199.581 101.22L202.172 104.746C200.575 105.651 197.629 109.243 195.651 107.364Z" fill="#FFB6B6"/>
<path d="M203.319 105.845L197.932 102.037C199.206 100.516 200.923 95.9863 203.545 97.4718C206.541 98.7296 203.61 103.777 203.319 105.845Z" fill="#8E8E8E"/>
<path d="M165.718 148.334H225.928C225.97 148.334 226.01 148.263 226.04 148.137C226.069 148.011 226.086 147.84 226.086 147.662C226.086 147.483 226.069 147.312 226.04 147.186C226.01 147.06 225.97 146.989 225.928 146.989H165.718C165.676 146.989 165.636 147.06 165.606 147.186C165.576 147.312 165.56 147.483 165.56 147.662C165.56 147.84 165.576 148.011 165.606 148.137C165.636 148.263 165.676 148.334 165.718 148.334Z" fill="#CACACA"/>
<path d="M77.6729 230.125C77.5308 230.132 77.3901 230.093 77.2699 230.014C77.1496 229.935 77.0557 229.82 77.0008 229.684C76.9459 229.547 76.9327 229.397 76.963 229.253C76.9932 229.108 77.0655 228.977 77.17 228.877C77.1875 228.805 77.2 228.753 77.2175 228.681C77.2113 228.665 77.205 228.649 77.1986 228.633C77.0555 228.282 76.8155 227.983 76.5089 227.773C76.2024 227.563 75.8429 227.452 75.4756 227.453C75.1083 227.454 74.7496 227.569 74.4446 227.781C74.1395 227.993 73.9017 228.294 73.7611 228.647C73.1988 230.052 72.483 231.461 72.3068 232.947C72.2291 233.604 72.2619 234.27 72.4035 234.915C71.083 231.925 70.3973 228.675 70.3929 225.385C70.3926 224.56 70.4368 223.735 70.5252 222.914C70.5983 222.242 70.6997 221.574 70.8294 220.911C71.5372 217.314 73.0568 213.942 75.2635 211.073C76.3315 210.468 77.1952 209.538 77.7383 208.408C77.935 208.002 78.074 207.568 78.1511 207.12C78.0306 207.137 77.9081 207.147 77.7877 207.155C77.7501 207.157 77.7106 207.159 77.6731 207.161L77.6589 207.162C77.5265 207.168 77.3952 207.134 77.2808 207.065C77.1664 206.995 77.0738 206.893 77.0142 206.77C76.9545 206.647 76.9303 206.509 76.9445 206.372C76.9587 206.236 77.0107 206.106 77.0943 205.999C77.1463 205.933 77.1983 205.866 77.2504 205.8C77.3294 205.697 77.4104 205.597 77.4894 205.494C77.4985 205.485 77.5071 205.474 77.5151 205.464C77.6059 205.347 77.6968 205.232 77.7876 205.115C77.6218 204.848 77.3987 204.624 77.1359 204.461C76.2253 203.907 74.9692 204.291 74.3115 205.146C73.6518 206.001 73.5273 207.2 73.7564 208.269C73.9818 209.178 74.3544 210.04 74.8586 210.819C74.8092 210.885 74.7578 210.948 74.7085 211.014C73.8058 212.219 73.0191 213.513 72.3596 214.877C72.52 213.349 72.3286 211.803 71.8011 210.366C71.2665 209.027 70.2645 207.9 69.3821 206.742C68.3222 205.352 66.1488 205.959 65.9621 207.721C65.9603 207.738 65.9585 207.755 65.9568 207.772C66.0878 207.849 66.2161 207.931 66.3417 208.017C66.4994 208.126 66.6216 208.282 66.6922 208.465C66.7629 208.648 66.7788 208.848 66.7378 209.041C66.6967 209.233 66.6007 209.408 66.4623 209.542C66.3239 209.677 66.1496 209.765 65.9622 209.795L65.943 209.798C65.9897 210.288 66.0722 210.774 66.1898 211.252C66.5308 212.585 67.1333 213.83 67.9595 214.909C68.7857 215.989 69.8179 216.88 70.9913 217.526C71.0683 217.567 71.1434 217.608 71.2204 217.647C70.5578 219.596 70.1422 221.627 69.984 223.687C69.8945 224.903 69.8997 226.124 69.9998 227.339L69.9939 227.296C69.7411 225.945 69.0469 224.726 68.0287 223.845C66.5163 222.556 64.3796 222.081 62.7481 221.044C62.5747 220.928 62.3731 220.867 62.167 220.866C61.9609 220.866 61.759 220.926 61.5851 221.041C61.4112 221.156 61.2725 221.32 61.1853 221.513C61.0982 221.707 61.0663 221.923 61.0933 222.135C61.0955 222.15 61.0978 222.165 61.1 222.18C61.3432 222.283 61.58 222.402 61.8091 222.535C61.9401 222.612 62.0684 222.693 62.194 222.779C62.3517 222.889 62.4738 223.045 62.5445 223.228C62.6152 223.41 62.6311 223.611 62.59 223.803C62.549 223.996 62.453 224.17 62.3146 224.305C62.1762 224.44 62.0019 224.528 61.8144 224.558L61.7952 224.561C61.7814 224.563 61.7696 224.565 61.7558 224.567C62.1713 225.597 62.7546 226.545 63.48 227.37C64.3761 228.368 65.4592 229.166 66.6629 229.714C67.8665 230.262 69.1654 230.549 70.4798 230.558H70.4818C70.8385 232.168 71.3555 233.734 72.0243 235.233H77.5348C77.5546 235.169 77.5724 235.104 77.5901 235.04C77.0801 235.074 76.568 235.042 76.0653 234.946C76.4742 234.425 76.883 233.9 77.2919 233.379C77.301 233.37 77.3096 233.359 77.3176 233.349C77.525 233.082 77.7343 232.818 77.9417 232.551L77.9418 232.551C77.9529 231.734 77.8624 230.919 77.6729 230.125Z" fill="#FFDBDB"/>
<path d="M159.04 203.882L157.609 204.468L169.261 235.16L170.692 234.575L159.04 203.882Z" fill="#E6E6E6"/>
<path d="M149.579 234.575L151.01 235.16L162.662 204.468L161.231 203.882L149.579 234.575Z" fill="#E6E6E6"/>
<path d="M159.543 209.492C165.157 209.492 169.709 207.665 169.709 205.412C169.709 203.159 165.157 201.333 159.543 201.333C153.928 201.333 149.377 203.159 149.377 205.412C149.377 207.665 153.928 209.492 159.543 209.492Z" fill="#E6E6E6"/>
<path d="M168.012 207.147L151.748 205.122C150.996 205.029 150.27 204.783 149.611 204.398C148.951 204.013 148.371 203.497 147.903 202.879C147.436 202.262 147.09 201.554 146.886 200.798C146.682 200.042 146.623 199.251 146.713 198.471C146.803 197.691 147.04 196.937 147.411 196.253C147.782 195.568 148.279 194.966 148.874 194.48C149.469 193.995 150.15 193.636 150.878 193.424C151.607 193.212 152.368 193.151 153.12 193.245L169.385 195.27C170.902 195.459 172.285 196.266 173.229 197.513C174.173 198.76 174.601 200.346 174.419 201.921C174.237 203.496 173.46 204.931 172.259 205.912C171.057 206.892 169.53 207.336 168.012 207.147Z" fill="#2F2E41"/>
<path d="M164.834 164.684L167.218 167.084L170.265 168.487C169.999 168.679 168.596 188.304 170.404 189.121C171.943 189.816 170.374 190.391 170.428 192.01C170.481 193.629 170.68 196.959 170.68 196.959C162.219 200.34 158.935 200.668 154.017 194.866C153.983 194.541 154.058 194.213 154.228 193.938C154.397 193.663 154.653 193.456 154.952 193.352C156.042 192.914 154.376 190.033 155.265 189.697C156.154 189.36 155.417 185.39 155.417 185.39L153.524 176.445L153.061 175.094L155.453 167.476L158.152 166.818L159.484 164.362L164.834 164.684Z" fill="#E6E6E6"/>
<path d="M132.956 182.811C133.215 182.591 133.517 182.432 133.842 182.346C134.166 182.26 134.505 182.249 134.834 182.314C135.163 182.378 135.474 182.517 135.746 182.72C136.018 182.923 136.243 183.185 136.407 183.489L144.421 182.007L142.747 186.04L135.394 186.829C134.885 187.08 134.305 187.129 133.763 186.966C133.222 186.803 132.757 186.44 132.456 185.944C132.156 185.449 132.04 184.857 132.133 184.279C132.225 183.702 132.518 183.18 132.956 182.811Z" fill="#A0616A"/>
<path d="M141.242 186.341C141.945 187.096 142.636 187.005 143.317 186.222L152.854 185.675L152.883 185.617C152.917 185.551 154.926 181.599 156.709 177.9C156.983 177.331 157.252 176.767 157.508 176.225C157.618 175.99 157.726 175.761 157.831 175.535C158.539 174.014 159.102 172.728 159.323 172.053C159.832 170.541 159.828 168.894 159.312 167.385L159.297 167.348L159.264 167.328C158.587 166.926 157.798 166.775 157.027 166.9C156.257 167.026 155.55 167.42 155.024 168.018C152.501 170.921 150.661 174.392 149.651 178.158L149.079 180.302L143.177 181.819C142.575 181.482 142.055 181.566 141.647 182.213L141.242 186.341Z" fill="#E6E6E6"/>
<path d="M150.512 226.932L152.537 228.85L160.629 221.654L157.64 218.822L150.512 226.932Z" fill="#FFB6B6"/>
<path d="M150.604 225.756L151.174 226.296L154.225 227.465L154.592 229.534L154.592 229.534C155.267 230.173 155.669 231.063 155.71 232.01C155.752 232.956 155.43 233.881 154.815 234.581L154.739 234.666L148.209 228.48L150.604 225.756Z" fill="#2F2E41"/>
<path d="M165.854 204.542L164.106 201.038C164.252 197.49 167.217 194.718 170.621 195.071C172.517 195.268 174.256 196.44 174.874 199.748C176.464 208.252 157.289 225.085 157.289 225.085L153.959 222.768L153.885 220.452L155.837 219.304L155.909 217.334L157.761 216.508L165.854 204.542Z" fill="#2F2E41"/>
<path d="M165.894 158.496C166.17 155.513 164.064 152.863 161.191 152.576C158.318 152.289 155.765 154.475 155.488 157.458C155.212 160.44 157.318 163.091 160.191 163.378C163.064 163.664 165.617 161.479 165.894 158.496Z" fill="#A0616A"/>
<path d="M164.909 226.4L162.62 227.967L155.707 219.55L159.085 217.236L164.909 226.4Z" fill="#FFB6B6"/>
<path d="M166.951 228.302L159.572 233.356L159.51 233.26C159.008 232.469 158.828 231.503 159.011 230.575C159.195 229.647 159.725 228.833 160.487 228.311L160.487 228.311L161.16 226.326L164.35 225.665L164.994 225.224L166.951 228.302Z" fill="#2F2E41"/>
<path d="M154.459 204.202L156.622 200.55C157.011 197.022 154.498 193.804 151.083 193.603C149.18 193.491 147.286 194.367 146.179 197.534C143.333 205.678 159.747 225.406 159.747 225.406L163.385 223.655L163.806 221.38L162.05 219.93L162.274 217.973L160.569 216.857L154.459 204.202Z" fill="#2F2E41"/>
<path d="M162.501 159.27C162.506 159.2 162.511 159.13 162.515 159.06C162.493 159.127 162.488 159.2 162.501 159.27Z" fill="#2F2E41"/>
<path d="M166.986 156.759C166.798 155.868 166.381 155.047 165.778 154.384C165.175 153.722 164.409 153.242 163.564 152.997C163.332 152.594 163.016 152.25 162.639 151.99C162.262 151.731 161.834 151.562 161.386 151.496C160.545 151.38 159.702 151.639 158.893 151.906C158.393 152.071 157.895 152.24 157.398 152.413C156.993 152.554 156.495 152.876 156.63 153.297C156.528 153.242 156.411 153.223 156.297 153.244C156.184 153.265 156.08 153.324 156.002 153.412C155.925 153.5 155.877 153.613 155.867 153.732C155.858 153.851 155.886 153.97 155.948 154.071C155.761 153.82 155.327 153.981 155.222 154.28C155.118 154.579 155.241 154.91 155.394 155.185C155.853 155.969 156.55 156.573 157.375 156.902C158.201 157.23 159.108 157.266 159.954 157.002C160.449 156.834 160.955 156.557 161.463 156.681C161.941 156.797 162.286 157.258 162.422 157.749C162.522 158.178 162.549 158.621 162.503 159.06C162.567 158.904 162.689 158.781 162.84 158.718C162.992 158.655 163.161 158.657 163.312 158.724C163.673 158.911 163.803 159.405 163.713 159.814C163.624 160.223 162.684 161.809 162.435 162.14C162.163 162.452 161.963 162.824 161.85 163.228C162.741 163.086 163.633 162.944 164.524 162.802L164.572 162.852C165.954 161.737 167.335 158.539 166.986 156.759Z" fill="#2F2E41"/>
<path d="M154.183 194.972C154.306 194.648 154.496 194.357 154.74 194.118C154.983 193.88 155.274 193.699 155.592 193.59C155.91 193.481 156.247 193.445 156.58 193.486C156.912 193.526 157.232 193.642 157.517 193.825L163.831 188.491L164.253 192.86L158.193 197.255C157.866 197.732 157.381 198.067 156.831 198.197C156.282 198.327 155.705 198.244 155.211 197.962C154.717 197.681 154.339 197.221 154.15 196.67C153.96 196.118 153.972 195.514 154.183 194.972Z" fill="#A0616A"/>
<path d="M164.175 193.671C164.936 193.953 165.524 193.743 165.764 192.541L172.921 187.45L172.92 187.385C173.853 187.31 173.64 172.982 172.208 172.281C171.947 170.702 171.173 169.264 170.016 168.205L169.986 168.181L169.948 168.18C169.168 168.169 168.407 168.435 167.792 168.933C167.177 169.431 166.744 170.131 166.564 170.919C165.714 174.728 165.729 178.69 166.607 182.492L167.109 184.654L163.985 187.4C163.121 187.165 162.738 187.526 162.802 188.439L164.175 193.671Z" fill="#E6E6E6"/>
<path d="M109.571 205.976L108.236 206.522L119.108 235.16L120.443 234.614L109.571 205.976Z" fill="#E6E6E6"/>
<path d="M100.751 234.614L102.086 235.16L112.958 206.522L111.623 205.976L100.751 234.614Z" fill="#E6E6E6"/>
<path d="M110.052 211.21C115.29 211.21 119.537 209.506 119.537 207.404C119.537 205.302 115.29 203.598 110.052 203.598C104.813 203.598 100.566 205.302 100.566 207.404C100.566 209.506 104.813 211.21 110.052 211.21Z" fill="#E6E6E6"/>
<path d="M104.291 163.54C104.506 164.936 105.246 166.186 106.348 167.015C107.451 167.845 108.826 168.186 110.17 167.963C110.323 167.938 110.473 167.906 110.621 167.867C111.864 167.54 112.944 166.743 113.649 165.632C114.354 164.52 114.633 163.175 114.431 161.861C114.367 161.443 114.255 161.034 114.097 160.644C113.613 159.44 112.72 158.464 111.588 157.898C110.456 157.332 109.164 157.217 107.956 157.574C106.748 157.93 105.707 158.735 105.032 159.834C104.356 160.934 104.093 162.252 104.291 163.54Z" fill="#FFB6B6"/>
<path d="M131.965 230.929L134.271 230.217L132.745 220.432L129.342 221.482L131.965 230.929Z" fill="#FFB6B6"/>
<path d="M117.824 227.067C117.965 227.194 118.105 227.319 118.248 227.445C118.53 227.696 118.817 227.944 119.104 228.189C119.248 228.312 119.394 228.434 119.539 228.555L119.538 228.56L119.547 228.563L119.55 228.566L119.783 228.668L120.277 227.77L120.504 227.357L120.826 226.771L121.416 225.7L124.52 220.062L121.25 218.631L121.04 219.151L121.038 219.151L120.934 219.408L118.982 224.218L118.583 225.201L118.571 225.231L118.331 225.818L118.124 226.327L117.894 226.896L117.824 227.067Z" fill="#FFB6B6"/>
<path d="M100.748 202.663C100.909 203.058 101.075 203.452 101.242 203.843C101.554 204.572 101.879 205.292 102.215 206.004C102.215 206.006 102.217 206.006 102.218 206.008C102.434 206.293 102.682 206.552 102.956 206.778C102.967 206.789 102.98 206.798 102.992 206.809C103.194 206.972 103.415 207.109 103.649 207.217C103.734 207.254 103.82 207.292 103.905 207.329C104.211 207.46 104.516 207.579 104.82 207.689C105.362 207.883 105.903 208.048 106.443 208.184C106.486 208.196 106.529 208.206 106.573 208.217C108.8 208.759 111.036 208.843 113.394 208.767C114.558 208.73 115.753 208.654 116.99 208.574C117.395 208.547 117.801 208.521 118.211 208.497C118.242 208.495 118.275 208.492 118.307 208.491C118.894 208.455 119.49 208.422 120.099 208.393C120.867 208.357 121.657 208.329 122.476 208.315L122.241 209.471C122.057 210.36 121.743 211.214 121.309 212.004C120.812 212.981 120.418 213.754 120.726 215.549L120.875 216.418C120.67 216.803 120.555 217.233 120.537 217.673C120.52 218.113 120.601 218.551 120.774 218.953L120.815 219.049L117.615 224.673L117.408 225.038L118.578 225.23L120.017 225.469L122.456 225.87L127.093 219.119L127.315 218.797L127.318 218.779L129.103 204.634C129.117 204.509 129.127 204.382 129.13 204.255C129.152 203.68 129.064 203.106 128.87 202.566C128.676 202.027 128.38 201.533 128 201.113C127.637 200.709 127.199 200.383 126.713 200.155C126.227 199.927 125.703 199.802 125.17 199.787L123.941 199.751L121.429 199.676L119.66 199.625L119.625 199.624L114.407 199.47L114.277 197.857L114.214 197.82L112.186 196.647L105.174 192.59L105.156 192.58L104.695 192.313L104.622 192.402C104.6 192.429 104.578 192.455 104.558 192.482C103.936 193.303 103.397 194.188 102.949 195.123C102.203 196.648 101.54 198.215 100.966 199.818C100.94 199.888 100.918 199.951 100.898 200.008L100.89 200.026C100.881 200.053 100.876 200.07 100.873 200.075C100.588 200.789 100.57 201.714 100.748 202.663Z" fill="#2F2E41"/>
<path d="M101.213 197.42C101.253 197.319 101.299 197.218 101.346 197.12C101.715 196.381 102.123 195.664 102.568 194.972C103.069 194.183 103.654 193.346 104.335 192.447C104.664 192.012 105.016 191.561 105.39 191.095C105.578 190.861 105.772 190.623 105.972 190.381C105.98 190.37 105.989 190.359 105.998 190.348L106.056 190.277L113.265 192.512L115.374 193.337L115.897 194.789L115.883 195.147C115.885 195.147 115.885 195.147 115.883 195.149L115.847 196.125L115.847 196.126L115.8 197.416L115.813 197.416L119.967 197.538L124.247 197.663L126.547 197.732C127.08 197.747 127.604 197.872 128.09 198.1C128.576 198.327 129.014 198.653 129.377 199.058C129.757 199.478 130.052 199.972 130.246 200.511C130.44 201.05 130.529 201.624 130.507 202.2C130.504 202.316 130.495 202.436 130.482 202.552L131.81 208.131C132.605 211.467 132.91 214.909 132.715 218.34L133.485 223.769L133.26 223.754L129.908 223.53L129.022 223.471L127.546 220.244C127.377 219.877 127.222 219.501 127.081 219.119C126.85 218.495 126.656 217.857 126.503 217.208L123.914 206.26C123.584 206.264 123.258 206.266 122.935 206.266C121.441 206.272 120.012 206.242 118.649 206.176C114.215 205.965 110.436 205.384 107.143 204.403C106.218 204.129 105.33 203.822 104.48 203.483C104.168 203.36 103.861 203.232 103.559 203.099C103.488 203.069 103.418 203.039 103.348 203.007C102.724 202.726 102.178 202.287 101.76 201.73C101.341 201.173 101.064 200.516 100.954 199.819C100.818 199.01 100.908 198.177 101.213 197.42Z" fill="#2F2E41"/>
<path d="M131.517 229.298L134.012 228.525L134.403 228.403L134.759 229.98L138.673 231.573C138.867 231.652 139.031 231.793 139.142 231.975C139.253 232.158 139.305 232.372 139.29 232.588C139.275 232.803 139.195 233.008 139.06 233.172C138.925 233.336 138.743 233.451 138.541 233.5L134.321 234.527L133.243 233.145L133.311 234.773L131.721 235.161L130.91 229.486L131.517 229.298Z" fill="#2F2E41"/>
<path d="M117.616 224.673L117.408 225.038L117.556 225.062L117.616 224.673Z" fill="#2F2E41"/>
<path d="M118.346 225.278L120.643 226.552L121.003 226.751L120.187 228.131L121.889 232.122C121.973 232.32 121.994 232.54 121.949 232.75C121.905 232.961 121.796 233.152 121.64 233.294C121.483 233.436 121.287 233.522 121.08 233.54C120.873 233.559 120.666 233.508 120.488 233.395L116.794 231.043L116.964 229.273L115.909 230.479L114.518 229.593L117.787 224.969L118.346 225.278Z" fill="#2F2E41"/>
<path d="M134.414 194.343C134.169 194.42 133.912 194.441 133.659 194.404C133.406 194.367 133.163 194.273 132.949 194.129C132.735 193.984 132.554 193.793 132.419 193.568C132.284 193.343 132.198 193.089 132.167 192.826L126.098 191.461L128.405 189.118L133.814 190.774C134.244 190.75 134.667 190.89 135.004 191.168C135.34 191.446 135.567 191.842 135.641 192.282C135.715 192.722 135.631 193.175 135.404 193.554C135.178 193.934 134.826 194.215 134.414 194.343Z" fill="#FFB6B6"/>
<path d="M116.571 191.399L105.368 181.46C104.481 180.671 103.931 179.549 103.84 178.34C103.748 177.131 104.123 175.934 104.881 175.011C105.301 174.501 105.824 174.093 106.413 173.816C107.002 173.539 107.643 173.401 108.29 173.41C108.936 173.419 109.573 173.575 110.155 173.869C110.737 174.162 111.249 174.585 111.656 175.107L119.883 185.668L130.919 188.761L130.633 192.545L116.571 191.399Z" fill="#F50057"/>
<path d="M103.513 181.196L103.276 190.217C100.01 195.944 99.6388 198.725 100.543 200.208L115.698 194.917L115.924 194.356L114.897 190.524L116.168 186.366C116.392 185.931 119.431 183.261 116.582 178.197L110.852 170.183L108.78 170.01C108.023 172.027 106.868 173.027 105.504 173.493C102.42 176.427 102.873 176.905 103.513 181.196Z" fill="#F50057"/>
<path d="M115.093 159.697C115.014 159.931 114.888 160.145 114.725 160.327C114.562 160.509 114.364 160.654 114.145 160.752C113.795 160.409 113.416 160.099 113.013 159.826C113.188 160.195 113.332 160.579 113.442 160.974C113.434 160.976 113.427 160.976 113.42 160.977C112.693 161.078 111.962 160.891 111.251 160.706L111.35 160.8C111.356 161.392 111.2 161.973 110.899 162.476C110.598 162.978 110.165 163.381 109.651 163.637C109.082 163.908 108.331 164.097 108.191 164.729C108.066 165.289 108.533 165.79 108.983 166.123C109.432 166.455 109.959 166.819 110.032 167.389C110.15 168.315 109.005 168.903 108.811 169.815C108.642 170.596 109.224 171.341 109.863 171.787C110.502 172.234 111.255 172.542 111.749 173.158C112.624 174.248 112.342 175.988 111.44 177.055C111.342 177.171 111.238 177.281 111.127 177.384C110.88 177.06 110.61 176.756 110.319 176.474C109.969 176.131 109.59 175.821 109.187 175.547C109.362 175.916 109.506 176.301 109.616 176.696C109.76 177.203 109.851 177.724 109.888 178.252C109.239 178.572 108.557 178.818 107.856 178.985C106.091 179.433 104.274 179.627 102.458 179.561C101.628 179.547 100.804 179.426 100.003 179.2C100.369 177.998 100.477 176.726 100.317 175.476C99.8629 176.575 99.1602 177.543 98.2685 178.3C97.5208 177.689 96.966 176.823 96.8736 175.849C96.7604 174.65 97.3407 173.505 97.9847 172.504C98.6304 171.503 99.3733 170.526 99.657 169.36C100.072 167.658 99.4386 165.889 99.3573 164.137C99.3058 163.035 99.4741 161.933 99.8516 160.902C100.229 159.87 100.808 158.931 101.551 158.142C102.295 157.354 103.187 156.733 104.172 156.319C105.158 155.905 106.215 155.707 107.277 155.736C108.235 155.795 109.185 155.945 110.116 156.186C110.622 156.299 111.125 156.413 111.631 156.526C112.256 156.646 112.868 156.827 113.461 157.065C113.977 157.275 114.431 157.622 114.776 158.073C114.946 158.3 115.063 158.565 115.118 158.846C115.173 159.128 115.164 159.419 115.093 159.697Z" fill="#2F2E41"/>
<path d="M181.625 192.775H95.0293V192.675C95.0305 191.596 95.4441 190.561 96.1793 189.797C96.9146 189.034 97.9115 188.605 98.9513 188.604H177.703C178.743 188.605 179.74 189.034 180.475 189.797C181.211 190.561 181.624 191.596 181.625 192.675V192.775Z" fill="#CCCCCC"/>
<path d="M188.039 234.638L186.704 235.207L175.832 192.147L177.167 191.578L188.039 234.638Z" fill="#CCCCCC"/>
<path d="M168.342 234.638L169.677 235.207L180.549 192.147L179.214 191.578L168.342 234.638Z" fill="#CCCCCC"/>
<path d="M108.175 234.638L106.841 235.207L95.9688 192.147L97.3036 191.578L108.175 234.638Z" fill="#CCCCCC"/>
<path d="M88.4707 234.639L89.8055 235.208L100.677 192.148L99.3426 191.579L88.4707 234.639Z" fill="#CCCCCC"/>
<path d="M148.212 185.453C148.237 185.372 148.246 185.286 148.238 185.201C148.229 185.116 148.203 185.034 148.161 184.961C148.119 184.887 148.063 184.824 147.996 184.775C147.928 184.726 147.852 184.693 147.771 184.677C147.741 184.67 147.71 184.666 147.68 184.665L143.994 184.566C143.912 184.566 143.83 184.583 143.754 184.617C143.678 184.651 143.61 184.701 143.554 184.764C143.502 184.752 143.449 184.747 143.397 184.747C143.282 184.744 143.168 184.764 143.06 184.807C142.953 184.85 142.855 184.914 142.772 184.996C142.689 185.078 142.622 185.177 142.575 185.285C142.529 185.394 142.503 185.512 142.5 185.631C142.497 185.75 142.517 185.869 142.558 185.98C142.6 186.091 142.662 186.193 142.741 186.279C142.82 186.365 142.915 186.435 143.02 186.483C143.125 186.531 143.238 186.558 143.353 186.561C143.485 186.563 143.616 186.535 143.736 186.479L144.075 190.242C144.108 190.366 144.178 190.476 144.275 190.554C144.373 190.633 144.492 190.677 144.616 190.68L147.012 190.744C147.135 190.746 147.255 190.708 147.355 190.635C147.456 190.562 147.531 190.457 147.571 190.337L148.212 185.453ZM143.36 186.301C143.195 186.296 143.038 186.224 142.924 186.1C142.81 185.975 142.748 185.809 142.752 185.637C142.756 185.465 142.825 185.302 142.945 185.184C143.064 185.065 143.224 185 143.39 185.004C143.401 185.004 143.412 185.009 143.423 185.009C143.397 185.113 143.398 185.223 143.425 185.326L143.666 186.223C143.573 186.278 143.467 186.304 143.36 186.301Z" fill="#F50057"/>
<path d="M147.765 184.677C147.687 185.143 146.804 185.471 145.743 185.414C144.767 185.367 143.968 185.011 143.822 184.59C143.876 184.573 143.933 184.565 143.989 184.567L147.675 184.665C147.705 184.667 147.736 184.67 147.765 184.677Z" fill="white"/>
<path d="M135.94 183.964C135.966 183.883 135.975 183.797 135.966 183.712C135.958 183.627 135.932 183.545 135.89 183.472C135.848 183.398 135.792 183.335 135.724 183.286C135.657 183.237 135.58 183.203 135.5 183.188C135.47 183.181 135.439 183.177 135.409 183.176L131.723 183.077C131.64 183.076 131.559 183.093 131.483 183.127C131.407 183.161 131.338 183.212 131.282 183.275C131.231 183.263 131.178 183.257 131.125 183.258C130.894 183.252 130.67 183.342 130.502 183.508C130.334 183.673 130.237 183.901 130.231 184.142C130.225 184.382 130.311 184.615 130.471 184.789C130.63 184.964 130.85 185.065 131.081 185.071C131.213 185.074 131.344 185.046 131.465 184.989L131.804 188.753C131.836 188.877 131.907 188.986 132.004 189.065C132.102 189.144 132.221 189.188 132.345 189.19L134.741 189.254C134.863 189.257 134.983 189.219 135.084 189.145C135.184 189.072 135.26 188.968 135.3 188.848L135.94 183.964ZM131.089 184.812C130.924 184.807 130.767 184.735 130.653 184.61C130.539 184.486 130.477 184.32 130.481 184.148C130.485 183.976 130.554 183.813 130.673 183.694C130.793 183.576 130.953 183.511 131.118 183.514C131.13 183.514 131.14 183.52 131.152 183.52C131.126 183.624 131.126 183.733 131.154 183.837L131.395 184.734C131.302 184.788 131.196 184.815 131.089 184.812Z" fill="#F50057"/>
<path d="M135.506 183.188C135.427 183.654 134.544 183.982 133.483 183.925C132.507 183.878 131.709 183.522 131.562 183.1C131.617 183.084 131.673 183.076 131.729 183.077L135.415 183.176C135.445 183.177 135.476 183.181 135.506 183.188Z" fill="white"/>
<path d="M134.13 190.308C133.895 190.412 133.641 190.461 133.385 190.452C133.13 190.443 132.88 190.375 132.652 190.255C132.424 190.135 132.225 189.964 132.068 189.755C131.911 189.546 131.799 189.303 131.742 189.045L125.568 188.349L127.625 185.768L133.173 186.824C133.598 186.753 134.033 186.846 134.395 187.086C134.758 187.326 135.024 187.695 135.142 188.125C135.26 188.554 135.222 189.014 135.035 189.416C134.849 189.818 134.527 190.136 134.13 190.308Z" fill="#FFB6B6"/>
<path d="M116.117 189.325L103.97 180.662C103.008 179.974 102.348 178.918 102.135 177.726C101.921 176.534 102.173 175.303 102.833 174.302C103.199 173.749 103.678 173.286 104.236 172.946C104.794 172.607 105.417 172.399 106.061 172.338C106.705 172.276 107.354 172.363 107.963 172.591C108.571 172.819 109.123 173.184 109.58 173.658L118.831 183.264L130.118 185.137L130.216 188.931L116.117 189.325Z" fill="#F50057"/>
<path d="M206.358 235.486L54.7222 235.547C54.6679 235.547 54.6158 235.522 54.5775 235.477C54.5391 235.433 54.5176 235.372 54.5176 235.309C54.5176 235.247 54.5391 235.186 54.5775 235.142C54.6158 235.097 54.6679 235.072 54.7222 235.072L206.358 235.011C206.412 235.011 206.464 235.036 206.503 235.08C206.541 235.125 206.563 235.185 206.563 235.248C206.563 235.311 206.541 235.371 206.503 235.416C206.464 235.461 206.412 235.486 206.358 235.486Z" fill="#CACACA"/>
<path d="M93.714 97.1616C93.7428 97.0717 93.7527 96.9765 93.743 96.8823C93.7334 96.7881 93.7044 96.6971 93.6581 96.6155C93.6117 96.5339 93.5491 96.4636 93.4744 96.4092C93.3996 96.3549 93.3146 96.3178 93.2248 96.3004C93.1916 96.2931 93.1579 96.2887 93.124 96.2874L89.0336 96.1778C88.9418 96.1768 88.8509 96.1958 88.7666 96.2336C88.6824 96.2713 88.6066 96.3269 88.5444 96.3969C88.4871 96.3842 88.4287 96.3779 88.3701 96.3781C88.2427 96.3747 88.1159 96.3973 87.9969 96.4447C87.878 96.4922 87.7692 96.5635 87.6768 96.6546C87.5844 96.7457 87.5102 96.8549 87.4585 96.9758C87.4068 97.0967 87.3785 97.227 87.3753 97.3592C87.3721 97.4915 87.394 97.6231 87.4399 97.7465C87.4857 97.87 87.5545 97.9828 87.6424 98.0786C87.7302 98.1744 87.8354 98.2513 87.952 98.3049C88.0685 98.3585 88.194 98.3877 88.3214 98.3909C88.4679 98.394 88.6133 98.363 88.7468 98.3002L89.1231 102.477C89.1593 102.615 89.2373 102.736 89.3455 102.824C89.4537 102.911 89.5863 102.96 89.7234 102.963L92.3826 103.034C92.5187 103.036 92.6521 102.994 92.7636 102.913C92.8751 102.832 92.959 102.716 93.0032 102.582L93.714 97.1616ZM88.3299 98.1028C88.1463 98.0978 87.9722 98.0174 87.8456 97.8793C87.719 97.7412 87.6503 97.5567 87.6546 97.3661C87.6589 97.1755 87.7359 96.9945 87.8685 96.8627C88.0012 96.7309 88.1788 96.6591 88.3624 96.663C88.3754 96.6631 88.3868 96.6695 88.3998 96.6695C88.3707 96.7849 88.3714 96.9062 88.4019 97.0211L88.6696 98.0166C88.566 98.0768 88.4486 98.1067 88.3299 98.1028Z" fill="#F50057"/>
<path d="M69.9521 83.0909C69.8636 83.3509 69.7245 83.5891 69.5433 83.7907C69.3622 83.9924 69.143 84.1531 68.8993 84.2628C68.5107 83.8821 68.0903 83.5379 67.6431 83.2342C67.8375 83.6438 67.9967 84.0703 68.1191 84.5089C68.1102 84.5107 68.1031 84.5107 68.0943 84.5126C67.2875 84.6246 66.4771 84.4171 65.688 84.2113L65.7977 84.316C65.8045 84.9727 65.6306 85.6177 65.2965 86.1754C64.9624 86.733 64.482 87.1801 63.9116 87.4642C63.28 87.7654 62.4467 87.9748 62.291 88.6765C62.1529 89.2973 62.6713 89.8538 63.1703 90.223C63.6692 90.5922 64.2531 90.9963 64.3345 91.6281C64.4654 92.6567 63.1951 93.3087 62.9792 94.3208C62.7917 95.1877 63.4375 96.0142 64.147 96.5101C64.8565 97.0061 65.6916 97.3477 66.2401 98.031C67.2114 99.2414 66.8982 101.172 65.8968 102.356C65.7884 102.485 65.6726 102.608 65.55 102.722C65.2758 102.362 64.9759 102.025 64.653 101.712C64.2643 101.331 63.8439 100.987 63.3968 100.683C63.5911 101.093 63.7504 101.519 63.8727 101.958C64.0325 102.521 64.1339 103.099 64.1753 103.684C63.454 104.04 62.6976 104.313 61.9194 104.498C59.9602 104.996 57.9443 105.211 55.9285 105.137C55.0077 105.122 54.0924 104.988 53.2038 104.737C53.6106 103.403 53.7296 101.992 53.5523 100.604C53.0483 101.823 52.2684 102.898 51.2788 103.738C50.449 103.06 49.8332 102.099 49.7306 101.017C49.605 99.6877 50.249 98.4167 50.9638 97.3055C51.6804 96.1942 52.5049 95.1105 52.8198 93.8156C53.2799 91.9275 52.5774 89.964 52.4872 88.0189C52.4301 86.7957 52.6168 85.5734 53.0358 84.4286C53.4548 83.2837 54.097 82.2411 54.9221 81.3658C55.7473 80.4906 56.7377 79.8017 57.8312 79.3422C58.9247 78.8827 60.0979 78.6626 61.2771 78.6956C62.3402 78.7602 63.3951 78.9275 64.4283 79.1952C64.9891 79.3201 65.5482 79.4468 66.1091 79.5717C66.8026 79.7052 67.4827 79.9057 68.1403 80.1705C68.7136 80.4028 69.2172 80.7888 69.6 81.2891C69.7882 81.5411 69.9178 81.8348 69.9789 82.1473C70.04 82.4598 70.0308 82.7827 69.9521 83.0909Z" fill="#2F2E41"/>
<path d="M168.641 105.293C173.66 105.293 177.729 104.292 177.729 103.058C177.729 101.824 173.66 100.823 168.641 100.823C163.622 100.823 159.553 101.824 159.553 103.058C159.553 104.292 163.622 105.293 168.641 105.293Z" fill="#F2F2F2"/>
<path d="M168.627 104.89C172.741 104.89 176.076 104.07 176.076 103.058C176.076 102.047 172.741 101.227 168.627 101.227C164.513 101.227 161.178 102.047 161.178 103.058C161.178 104.07 164.513 104.89 168.627 104.89Z" fill="#D0CDE1"/>
<path d="M168.582 102.9C170.975 102.9 172.915 102.594 172.915 102.216C172.915 101.838 170.975 101.532 168.582 101.532C166.19 101.532 164.25 101.838 164.25 102.216C164.25 102.594 166.19 102.9 168.582 102.9Z" fill="#9F616A"/>
<path d="M166.255 101.96C167.01 101.96 167.623 101.628 167.623 101.219C167.623 100.809 167.01 100.478 166.255 100.478C165.499 100.478 164.887 100.809 164.887 101.219C164.887 101.628 165.499 101.96 166.255 101.96Z" fill="#F50057"/>
<path d="M165.757 101.96C166.512 101.96 167.125 101.628 167.125 101.219C167.125 100.809 166.512 100.478 165.757 100.478C165.001 100.478 164.389 100.809 164.389 101.219C164.389 101.628 165.001 101.96 165.757 101.96Z" fill="#F50057"/>
<path d="M171.743 102.131C172.499 102.131 173.111 101.799 173.111 101.39C173.111 100.98 172.499 100.648 171.743 100.648C170.988 100.648 170.375 100.98 170.375 101.39C170.375 101.799 170.988 102.131 171.743 102.131Z" fill="#F50057"/>
<path d="M168.599 101.96C169.354 101.96 169.967 101.628 169.967 101.219C169.967 100.809 169.354 100.478 168.599 100.478C167.843 100.478 167.23 100.809 167.23 101.219C167.23 101.628 167.843 101.96 168.599 101.96Z" fill="#F50057"/>
<path d="M170.942 101.96C171.698 101.96 172.311 101.628 172.311 101.219C172.311 100.809 171.698 100.478 170.942 100.478C170.187 100.478 169.574 100.809 169.574 101.219C169.574 101.628 170.187 101.96 170.942 101.96Z" fill="#F50057"/>
<path d="M172.712 100.763C170.239 101.602 167.465 101.602 164.389 100.763V100.647C164.388 99.7748 164.723 98.9356 165.324 98.3032C165.925 97.6708 166.746 97.2936 167.617 97.2496C168.35 97.2127 169.085 97.2137 169.818 97.2525C170.602 97.2981 171.339 97.6422 171.877 98.2139C172.415 98.7857 172.714 99.5418 172.712 100.327V100.763Z" fill="#FFBC73"/>
<path d="M171.493 103.904C169.665 104.089 167.824 104.089 165.997 103.904C165.563 103.861 165.161 103.659 164.868 103.337C164.575 103.014 164.413 102.595 164.412 102.159H173.077C173.076 102.595 172.914 103.014 172.621 103.337C172.328 103.659 171.926 103.861 171.493 103.904Z" fill="#FFBC73"/>
<path d="M167.406 98.311C167.208 98.3937 166.995 98.4364 166.779 98.4364C166.564 98.4364 166.351 98.3937 166.152 98.311C166.351 98.2282 166.564 98.1855 166.779 98.1855C166.995 98.1855 167.208 98.2282 167.406 98.311Z" fill="#D0CDE1"/>
<path d="M168.664 98.8246C168.466 98.9074 168.252 98.95 168.037 98.95C167.822 98.95 167.609 98.9074 167.41 98.8246C167.609 98.7418 167.822 98.6992 168.037 98.6992C168.252 98.6992 168.466 98.7418 168.664 98.8246Z" fill="#D0CDE1"/>
<path d="M168.77 97.9125C168.571 97.9953 168.358 98.0379 168.143 98.0379C167.927 98.0379 167.714 97.9953 167.516 97.9125C167.714 97.8297 167.927 97.7871 168.143 97.7871C168.358 97.7871 168.571 97.8297 168.77 97.9125Z" fill="#D0CDE1"/>
<path d="M171.114 97.9125C170.915 97.9953 170.702 98.0379 170.486 98.0379C170.271 98.0379 170.058 97.9953 169.859 97.9125C170.058 97.8297 170.271 97.7871 170.486 97.7871C170.702 97.7871 170.915 97.8297 171.114 97.9125Z" fill="#D0CDE1"/>
<path d="M170.485 98.4252C170.286 98.508 170.073 98.5506 169.858 98.5506C169.642 98.5506 169.429 98.508 169.23 98.4252C169.429 98.3424 169.642 98.2998 169.858 98.2998C170.073 98.2998 170.286 98.3424 170.485 98.4252Z" fill="#D0CDE1"/>
<path d="M177.056 102.602L177.077 103.063L177.104 103.662C177.104 103.662 174.355 103.817 173.801 104.402C173.788 104.415 173.777 104.428 173.766 104.443L172.665 104.202L172.662 103.659C172.662 103.659 172.677 103.651 172.707 103.635C172.714 103.631 172.722 103.627 172.73 103.622C174.078 102.963 175.556 102.614 177.056 102.602Z" fill="#F50057"/>
<path opacity="0.1" d="M177.061 102.602L177.081 103.063C175.862 103.101 173.555 103.827 173.555 103.827L172.711 103.635C174.064 102.966 175.551 102.613 177.061 102.602Z" fill="black"/>
<path opacity="0.1" d="M172.73 103.622L173.551 103.827L173.801 104.402C173.788 104.414 173.777 104.428 173.766 104.442L172.665 104.201L172.662 103.659C172.662 103.659 172.677 103.65 172.707 103.635C172.714 103.631 172.722 103.627 172.73 103.622Z" fill="white"/>
</svg>
