<svg width="30" height="30" viewBox="0 0 30 30" fill="none" xmlns="http://www.w3.org/2000/svg">
<path d="M16.1914 0.444092V2.46225C18.1875 2.46225 20.0576 2.9668 21.8015 3.97588C23.4615 4.96394 24.7852 6.28835 25.7728 7.94913C26.7814 9.69401 27.2856 11.565 27.2856 13.5622H29.3028C29.3028 11.1866 28.7039 8.97924 27.5063 6.94005C26.3506 4.96394 24.7852 3.39776 22.8101 2.24152C20.772 1.04323 18.5657 0.444092 16.1914 0.444092ZM5.759 3.47134C5.19168 3.47134 4.6979 3.65003 4.27766 4.00741L1.03133 7.31846L1.12589 7.25539C0.600589 7.69686 0.253893 8.24345 0.0857984 8.89515C-0.0612846 9.54685 -0.0192609 10.1775 0.211869 10.7872C0.800201 12.4269 1.58815 14.1087 2.5757 15.8326C3.96248 18.2081 5.61192 20.3419 7.52399 22.2339C10.5917 25.3243 14.4054 27.7629 18.9649 29.5498H18.9965C19.6058 29.76 20.2152 29.8021 20.8245 29.6759C21.4549 29.5498 22.0117 29.2765 22.4949 28.856L25.6782 25.6711C26.0985 25.2507 26.3086 24.7356 26.3086 24.126C26.3086 23.4953 26.0985 22.9697 25.6782 22.5493L21.5494 18.3868C21.1292 17.9664 20.6039 17.7561 19.9735 17.7561C19.3432 17.7561 18.8179 17.9664 18.3976 18.3868L16.412 20.405C14.8151 19.6482 13.4283 18.7127 12.2517 17.5985C11.075 16.4633 10.14 15.0863 9.44658 13.4675L11.4637 11.4494C11.905 10.9869 12.1256 10.4403 12.1256 9.80963C12.1256 9.15793 11.8734 8.63237 11.3692 8.23294L11.4637 8.32754L7.24033 4.00741C6.8201 3.65003 6.32632 3.47134 5.759 3.47134ZM16.1914 4.48042V6.49858C17.4731 6.49858 18.6498 6.81392 19.7214 7.44459C20.814 8.07527 21.6755 8.93719 22.3058 10.0304C22.9362 11.1025 23.2514 12.2798 23.2514 13.5622H25.2685C25.2685 11.9224 24.8588 10.3983 24.0393 8.98975C23.2198 7.62329 22.1272 6.53011 20.7615 5.71024C19.3537 4.89036 17.8303 4.48042 16.1914 4.48042ZM5.759 5.4895C5.82203 5.4895 5.89558 5.52103 5.97962 5.5841L10.1085 9.80963C10.1295 9.89372 10.1085 9.9673 10.0454 10.0304L7.05123 12.9945L7.27185 13.6252L7.68158 14.5082C8.01777 15.2229 8.40649 15.9167 8.84774 16.5894C9.45708 17.5354 10.1295 18.3448 10.8649 19.0175C11.8524 19.9845 13.0396 20.8675 14.4264 21.6663C15.1198 22.0658 15.7081 22.3601 16.1914 22.5493L16.8217 22.8331L19.879 19.7743C19.921 19.7323 19.9525 19.7112 19.9735 19.7112C19.9945 19.7112 20.026 19.7323 20.0681 19.7743L24.323 24.0314C24.365 24.0734 24.386 24.1049 24.386 24.126C24.386 24.126 24.365 24.147 24.323 24.189L21.1712 27.3109C20.7089 27.7103 20.2046 27.8154 19.6583 27.6262C15.3719 25.9654 11.7999 23.695 8.94229 20.8149C7.1773 19.049 5.63293 17.0414 4.30918 14.792C3.36365 13.1732 2.62823 11.6071 2.10294 10.0934V10.0619C2.01889 9.8727 2.00838 9.65196 2.07142 9.39969C2.13445 9.1264 2.25002 8.91617 2.41811 8.76901L5.53837 5.5841C5.60141 5.52103 5.67495 5.4895 5.759 5.4895ZM16.1914 8.51674V10.5349C17.0319 10.5349 17.7463 10.8292 18.3346 11.4179C18.9229 12.0065 19.2171 12.7212 19.2171 13.5622H21.2342C21.2342 12.6582 21.0031 11.8173 20.5408 11.0394C20.0996 10.2616 19.4902 9.65196 18.7128 9.21049C17.9354 8.74799 17.0949 8.51674 16.1914 8.51674Z" fill="#EC2323"/>
</svg>
