<svg width="30" height="30" viewBox="0 0 30 30" fill="none" xmlns="http://www.w3.org/2000/svg">
<path d="M10.5305 1.71704V6.86792H8.47012V4.80757H2.28906V23.3507H4.34941V24.3809C4.34941 25.2179 4.64988 25.9369 5.25082 26.5378C5.87322 27.1602 6.60292 27.4714 7.43994 27.4714C8.27696 27.4714 8.99594 27.1602 9.59687 26.5378C10.2193 25.9369 10.5305 25.2179 10.5305 24.3809V23.3507H27.0133V6.86792H22.8926V1.71704H10.5305ZM12.5908 3.77739H20.8322V8.92827H12.5908V3.77739ZM4.34941 6.86792H6.40977V21.2904H4.34941V6.86792ZM8.47012 8.92827H10.5305V10.9886H22.8926V8.92827H24.9529V21.2904H8.47012V8.92827ZM11.5606 13.049V15.1093H13.621V13.049H11.5606ZM15.6813 13.049V15.1093H17.7417V13.049H15.6813ZM19.8021 13.049V15.1093H21.8624V13.049H19.8021ZM11.5606 17.1697V19.23H13.621V17.1697H11.5606ZM15.6813 17.1697V19.23H17.7417V17.1697H15.6813ZM19.8021 17.1697V19.23H21.8624V17.1697H19.8021ZM6.40977 23.3507H8.47012V24.3809C8.47012 24.6599 8.36281 24.9067 8.14819 25.1213C7.95503 25.3145 7.71895 25.4111 7.43994 25.4111C7.16094 25.4111 6.91412 25.3145 6.6995 25.1213C6.50634 24.9067 6.40977 24.6599 6.40977 24.3809V23.3507Z" fill="#EC2323"/>
</svg>
